<svg xmlns="http://www.w3.org/2000/svg" viewBox="0 0 426.85 226.7"><title>autog-marina-sirtis</title><g id="Layer_2" data-name="Layer 2"><g id="Layer_3" data-name="Layer 3"><path d="M83.62,177.09c-1.44-5.5-3.27-10.94-4.15-16.52-.55-3.53-2-4.41-5.18-4.48-10.61-.27-21.23-.56-31.84-1.1-3.57-.17-7.59-.28-8.11-5.44C34,146,35.65,144,39,143.78c10.25-.79,20.52-1.72,30.79-1.94,6.5-.13,6.72-.34,7.41-6.68,1.45-13.33,3.42-26.61,5.41-39.88C83.81,87.09,85.49,79,86.92,70.8a10,10,0,0,0-.16-2.29l1.42,1.76c-4.69,3.6-9.3,7.31-14.08,10.78C56.47,93.85,38,95.11,19.72,85.91,6.12,79.05,2.13,66.45.55,52.91c-1.17-10.09-.68-20.35,3.39-30A26.88,26.88,0,0,1,7.6,16.46c5.65-7,11.64-6.72,17.18.38C35.44,30.48,39.76,46.7,43.84,63c.81,3.23,1.36,6.53,2.27,9.73.82,2.91.85,5.88-2.53,6.29-1.7.21-4.82-1.77-5.41-3.43-3.29-9.2-6.41-18.51-8.77-28-2.07-8.3-4.1-16.42-9.47-23.37-2.74-3.55-4.93-2.47-6.39.57C6.63,39.17,6.7,60.34,16.19,72.05,23.57,81.16,34.68,83.57,46,83.27c8.55-.22,16.83-2.35,24-7.29,10.14-6.92,15.4-17.32,17-28.82,1.83-13.39,1.62-27.06,2.28-40.61.14-2.76-.6-6.44,3.25-6.55,1.06,0,3.16,4.28,3.22,6.64.31,12.82,1.16,25.75-.1,38.46-1.9,19.06-5.47,38-8.2,57-1.65,11.46-3,23-4.54,34.42-.45,3.47.61,5.17,4.6,5,13.8-.5,27.6-.73,41.4-1,6.95-.12,14.44-1.73,20.73.29,13.07,4.2,26.16,1.22,39.15,2.47a5.09,5.09,0,0,1,3.55,2.2c-36.42,1.35-72.78-.07-109,2.46L83,149.63c1.29.58,2.54,1.53,3.88,1.67,16.33,1.75,32.74,3,49,5.13,24.05,3.15,48.11,6.44,72,10.6,15.69,2.72,31.15,6.88,46.61,10.81,3.93,1,7.67,3.23,11.13,5.48,6.42,4.19,7.51,10.4,1.71,15.41a55.54,55.54,0,0,1-17.79,10.39c-7.13,2.44-15,2.91-22.54,3.91-1.4.18-3-1.22-4.5-1.89,1.32-.83,2.55-2.09,4-2.43,9.84-2.26,19.83-4,29.56-6.6,5.29-1.44,11.36-4.44,11.31-10.54,0-5.54-6.43-7.45-11-8.72-15.35-4.26-30.79-8.36-46.4-11.51-15.95-3.21-32.08-5.83-48.25-7.63-24.3-2.7-48.69-4.42-73-6.64-4.2-.39-5.27,1.11-4.44,5.17,1,4.72,1.33,9.56,2,14.34Z"/><path d="M173.82,64.19c2.34,1.45,4.78,2.78,7,4.38,4.63,3.32,4.45,7.89-.7,10-9.85,4.06-20.12,6-30.79,3.9-5.24-1-9.83-3-12.08-8.51-1.63-3.94-4.49-2-7.2-1.33C123,74.29,115.92,76,108.75,77.12c-3.58.55-7.76,0-9.17-4.27-1.35-4,.25-7.58,3.8-9.95,6.69-4.46,13.74-8.24,22-8.26,1.78,0,4.47,1.22,5.12,2.62.82,1.79,0,4.34-.17,7.25-7.09-4.9-15.43-.8-23.32,5.63a44.91,44.91,0,0,0,26.7-5.32c6.27-3.42,8.41-2.73,9,4.33.32,4,2.2,6,5.9,6.84a50.24,50.24,0,0,0,25.65-.69,16.94,16.94,0,0,0,3.25-1.83l.14-1.59c-3.46-1.12-7-2.12-10.39-3.38-3-1.11-8-.3-7.83-5.17s4.9-4.67,8.44-5.14c8-1.08,16.08-2.34,24.17-2.83,6-.37,11,3.68,12.92,9.15,2,5.8,5.86,7.37,11.4,4.59a19.55,19.55,0,0,0,9.64-11c.41-1,1.56-2.42,2.47-2.49a4.27,4.27,0,0,1,3.06,1.89c3.7,5.51,8.33,6.22,13.31,1.64a45.32,45.32,0,0,0,4.74-5.74c2.13-2.72,4-2.56,5.53.58a12.68,12.68,0,0,1,.79,2.37c1.77,7,4.67,10.28,11.79,10.51,6.9.23,13.87-.89,20.76-1.81,3.89-.53,3.2-3.51,3-6.59-.46-8.57-.65-17.18-.35-25.75.15-4.2,3.05-7.1,7.5-7.35,4.82-.27,6.19,3.38,6.73,7.16,1.08,7.53,2.36,15.09,2.54,22.67.08,3.06-1.81,6.88-4,9.13-2.8,2.84-3,5.19-1.55,8.4a22.37,22.37,0,0,1,2.28,6c.17,1.28-1,2.74-1.6,4.12-1.4-.65-2.82-1.28-4.19-2-.23-.12-.29-.58-.42-.88-1.41-3.29-2-8.2-4.45-9.42s-6.9,1.26-10.51,1.51c-6.42.46-13,1.28-19.28.33-4.06-.62-7.89-3.84-11.41-6.44-2.18-1.6-3.36-2.31-5.9-.46-4.44,3.21-9.58,4.79-15.09,2.85-3.35-1.18-5.42.22-8,2.28-2.88,2.32-6.4,4.56-9.94,5.22-7.61,1.41-12.13.42-14-7.88-1.08-4.93-4.22-6.86-9-6.69-3.16.11-6.34,0-9.48.26a66.46,66.46,0,0,0-7.21,1.4Zm131.34-13.8c-.69-4.33-1.11-9-2.27-13.47-.5-1.91-2.54-3.42-3.87-5.12-1.28,1.94-3.43,3.78-3.64,5.83a71.61,71.61,0,0,0,0,15.28c.29,2.75,2.19,5.33,3.37,8,2-2.42,4.12-4.77,6-7.3C305.2,52.9,305,51.66,305.16,50.39Z"/><path d="M282.31,210l31.34-3.32.21-1.94a32.22,32.22,0,0,0-4-2.08c-4.55-1.61-9.23-2.89-13.71-4.68-4-1.58-8.49-3.14-8-8.82.52-5.49,5.15-6,9.15-6.83a101.84,101.84,0,0,1,13.8-1.94c13.43-.86,26.87-1.62,40.31-2.12,7.21-.27,10.22,2.52,11.52,9.65a34.27,34.27,0,0,1,1,6.89c-.14,4.64,2.38,5.27,6.28,5.5,7.11.42,14.19,1.43,21.26,2.3a4.92,4.92,0,0,1,3.31,2.28c-1.55.12-3.1.32-4.66.34-5.66,0-11.34-.18-17,.13-3.56.19-7.83.21-6.54,6.14.2.93-1.43,2.25-2.21,3.39-1.08-1.07-2.9-2-3.09-3.22-.75-4.89-3.46-6-8-5.78a80.74,80.74,0,0,1-13.43-.81c-1.21-.13-2.29-1.43-3.42-2.2,1-1,2-2.82,3.13-3a76.28,76.28,0,0,1,12.9-.69c4.58.19,5.86-1.86,5.57-6-.44-6.29-2.18-8.93-8.43-9.45a97.13,97.13,0,0,0-17.37.55c-10.73,1-21.44,2.35-32.12,3.79-1.52.2-2.87,1.72-4.3,2.63,1.35,1.1,2.54,2.62,4.09,3.2,5.14,1.92,10.43,3.44,15.63,5.22a23.77,23.77,0,0,1,5.9,2.57c3.83,2.62,3.34,6.68-1,8.39a21.29,21.29,0,0,1-7.28,1.52c-10.24.17-20.47.07-30.71.07Z"/><path d="M408.55,221.84c3.32,0,5.41.11,7.48,0,1.2-.09,3.29-.45,3.37-.94a5.56,5.56,0,0,0-.91-4c-5.33-6.56-10.86-13-16.27-19.46-1.05-1.27-2.42-2.61-2.71-4.09-.47-2.45-1.13-5.76.07-7.37s4.7-2.31,7-2c4.73.61,9.79,1.21,12.77,6.82l-14.25-1.51-1,1.81c4.76,5.8,9.55,11.57,14.27,17.4a84.76,84.76,0,0,1,7.23,9.45c2.47,4.12,1.16,7.13-3.53,8.23S412.92,227.19,408.55,221.84Z"/><path d="M267,149.42l-68-3,0-1.25c22.77-.31,45.53-.08,68.24,1.56Z"/><path d="M220.18,39.27c-2.45-2.69-4.14-4.47-5.64-6.4-.07-.1,2-2.35,2.34-2.18a25,25,0,0,1,5.63,4.1C222.77,35.05,221.41,37,220.18,39.27Z"/></g></g></svg>