<svg xmlns="http://www.w3.org/2000/svg" viewBox="0 0 303.05 177.69"><title>autog-alec-baldwin</title><g id="Layer_2" data-name="Layer 2"><g id="Layer_3" data-name="Layer 3"><path d="M99.15,70.79c.09.45.39,1,.24,1.33Q92.27,88.79,85.06,105.4a29.16,29.16,0,0,0-2,4.52,4.72,4.72,0,0,0,.56,3.44A96.91,96.91,0,0,0,104,134.43c6.55,5.06,13.38,9.81,20.38,14.23,5.35,3.38,8.56,2,10.55-3.9.48-1.4.8-2.86,1.2-4.29.8-2.87,1.73-5.78-2.64-7.13,5.87-.4,7.92,2.91,6,8.82-.42,1.32-.93,2.61-1.37,3.92-2.17,6.44-5.43,8.15-11.63,5.12a125.51,125.51,0,0,1-15.14-9.14,134.72,134.72,0,0,1-24.6-21.37c-1.83-2-3.16-4.53-5-7.21l-17,31.69c4.38-1.27,8.47-2.47,12.58-3.63,5-1.41,7.49-.28,9.5,4.39.87,2,1.56,4.1,4.48,3.15.2-.06.52.12.74.26s.18.3.26.46c-3.15,2.93-5,2.21-7.68-1-1.14-1.41-1.72-4-3-4.37-2-.56-4.55.08-6.75.65-3.2.82-6.28,2.13-9.46,3.06-2.21.65-3.38,2-4.58,4-4.41,7.05-8.94,14.06-13.85,20.76-2,2.8-4.8,5.44-9.09,4.71-3.26-.56-4.56-2.83-3.16-6,.51-1.16,1-2.35,1.68-4.14.62,2.68,1.15,5,1.88,8.1,2-1.56,4.06-2.57,5.3-4.2,4.91-6.45,9.57-13.09,14.26-19.58-8.69,1.77-17,4-25.37,5-12.86,1.5-24.69-3.38-29.95-16.39A36,36,0,0,1,.09,124.25c.4-6,.72-11.85,2.7-17.48,2.51-7.13,5-14.29,8-21.21a91,91,0,0,1,7.71-13.75C22.39,66,26.52,60.39,30.88,55A146.35,146.35,0,0,1,44,40.36c6.65-6.31,13.22-12.8,21.5-17.12C71,20.35,76.35,17.1,82,14.37a21.7,21.7,0,0,1,15.7-1.48,10.51,10.51,0,0,1,5.58,4.19,6.88,6.88,0,0,0,6.66,3.75A16.8,16.8,0,0,1,120,24.23a12.13,12.13,0,0,1,5.24,12.28c-.85,6.07-1.79,12.14-2.92,18.17-.47,2.52.41,3.79,2.73,3.38a41.14,41.14,0,0,0,10-2.68A72.63,72.63,0,0,0,156,41.06c1.31-1.29,1.48-3.8,2-5.79,3.35-12.05,8-23.41,17-32.54,1.46-1.49,3.16-3.5,5.4-2.43s1.28,3.61.68,5.28C179,11.29,176.84,17,174.29,22.5a66,66,0,0,1-12.81,18.34,5,5,0,0,0-1.25,2.67,21.16,21.16,0,0,0,3,14.1c1,1.67,2.21,2.26,3.81.93s3.19-2.81,4.72-4.29c1-1,1.87-2,2.83-3,4.56-4.73,9.56-1.65,11.27,2.56,2.35,5.79.62,11.27-1.46,16.69-.7,1.85-1.48,3.66-2,5.68,9.51-5.53,19.73-9,30.08-12.08,11.12-3.3,22.33-6.3,33.52-9.36,5.15-1.42,10.31-2.86,15.54-4,9.33-2,18.71-3.67,28.06-5.51,3.35-.66,6.69-1.33,10-2.1,1.7-.4,3.09-.18,3.4,1.67s-1.08,2-2.63,2.17c-3.84.47-7.67,1.14-11.48,1.89-8.39,1.64-16.78,3.27-25.13,5.12-6.1,1.34-12.15,2.95-18.18,4.56-10.89,2.92-21.87,5.57-32.6,9A258.29,258.29,0,0,0,186.74,77.8a20.51,20.51,0,0,0-10.38,9.64c-.33.67-1.71.83-2.6,1.23a11,11,0,0,1-.23-2.65,4.48,4.48,0,0,1,1.1-1.91c6.23-7.43,8.06-16.38,8.81-25.68.17-2.22-.31-4.8-2.52-5.27-1.58-.34-3.86.84-5.3,2-2.2,1.78-3.83,4.25-5.92,6.2-2.49,2.34-4.63,2.2-7-.2-4.24-4.22-5.55-9.62-6.07-16.09-2.19,1.86-3.82,3.7-5.85,4.89-6.45,3.76-12.92,7.54-19.63,10.8-3.29,1.59-7.07,2-10.61-.32-2-1.27-3.11-2.51-2.54-5.12,1.29-5.89,2.55-11.81,3.4-17.77,1.35-9.4-5.21-15.27-14.22-13.54.11,5.84.86,11.67.16,17.33-.82,6.69-2.78,13.26-4.49,19.82-.52,2-1.82,3.8-2.77,5.7l.09-.07-.51.92c-1.84-.89-.69-2.23-.39-3.3,1.28-4.49,2.94-8.89,4-13.43.9-4.07,2.67-8,2.33-12.33-.37-4.74-.41-9.5-.6-14.47-9.46,1.33-17,5.41-24,10.74-8.4,6.41-13.36,14.76-14.22,25.33a65.93,65.93,0,0,0,3.79,27.5,86.87,86.87,0,0,0,9.94,20.57c1.94-3.71,3.87-7.17,5.58-10.74,1.4-2.93,2.65-6,3.77-9,2-5.52,5.29-10.51,6.68-16.3.17-.71,1.11-1.24,1.69-1.85l1,.35Zm-19.5,40.36c-.52-.71-1.07-1.34-1.5-2C69.9,95.71,64,81.54,63.8,65.49c-.11-7.44,1.18-14.57,4.88-21.08,6.22-10.9,16.06-17.3,27.52-21.53C98.5,22,101,21.6,103.34,21c-1.61-4.31-5.31-6.37-9.69-6.26-7.53.17-14,3.33-20.25,6.9C56.92,31,43.53,43.89,31.65,58.56a139.66,139.66,0,0,0-23.79,42.8c-3.39,9.88-5.2,19.94-4.43,30.5C4.48,146.08,16.08,156,30.21,154.58a92.2,92.2,0,0,0,24-5.36c2.11-.81,5-1.39,6-3,4-6.32,7.38-13,11-19.57C74,121.52,76.78,116.4,79.65,111.15Zm82.41-76.83A65.78,65.78,0,0,0,177.82,5.51C169.48,13.44,165.06,23.5,162.06,34.32Z"/><path d="M100.13,66.79l-.09.07Z"/><path d="M99.21,68.32l.05-.08Z"/><polygon points="99.15 70.79 99.13 70.77 99.11 70.64 99.15 70.79"/></g></g></svg>