<svg xmlns="http://www.w3.org/2000/svg" viewBox="0 0 304.53 149.39"><title>autog-steven-yeun</title><g id="Layer_2" data-name="Layer 2"><g id="Layer_3" data-name="Layer 3"><path d="M304.36,4.1c-2.55.81-5.39,2.77-7.6,2.21C288.43,4.22,281.94,8.53,275,11.5c-7.48,3.22-14.88,6.65-22.45,9.66-2.78,1.1-6.69,2.68-8.8,1.58-7.54-3.95-11.13,1.42-15.42,5.37-5.63,5.18-10.94,10.73-16.79,15.64-1.61,1.35-5.91,2.18-6.84,1.2-5.23-5.46-11.24-4.5-17.11-2.64-13.07,4.12-23.39,12.39-31.4,23.31-1.19,1.62-.57,5.86.77,7.84,11.44,16.86,23,33.67,35,50.13,10,13.67,9.29,17-6.67,22.63-12.95,4.58-25.65,5-36.83-4.38-11.54-9.72-14.55-22.65-11.28-36.74,2.41-10.35,6.66-20.27,9.51-30.53,1-3.53.72-7.63.11-11.32-1.38-8.47-4.46-16.82-4.76-25.29-.38-10.68,7.71-18.85,18.24-20.29,2-.27,4.22,1.4,6.34,2.18-1.62,1.18-3.07,3-4.87,3.46-11.83,3.23-16.4,8.84-15.23,21,.61,6.34,2.77,12.53,4.25,18.88C159.22,56,166,48.92,174,43.75c9.57-6.19,19.93-11.83,32.09-5,1.36.77,5-1.19,6.83-2.75,8.56-7.25,16.83-14.83,25.26-22.24A52.52,52.52,0,0,1,243,10.49l3.3,7.42c8.72-3.54,17.46-6.84,26-10.63,9-4,17.72-9.27,28.28-6.51,1.34.35,2.64.86,4,1.3ZM150.73,73.15c-5.9,14.23-10.65,27.2-10.6,41.6,0,12.46,5,21.95,16.19,27.23,11.83,5.58,23.32,3.21,34.13-3.58,3.62-2.28,3.85-4.78,1.39-8.18C178.41,111.69,165.08,93.09,150.73,73.15Z"/><path d="M98.4,37.74c-9.53-6.45-19.42-4-27.87-.07-21.18,9.91-41.71,21.18-62.48,32-.8.42-1.28,1.44-2.86,3.29C11.1,73.92,16,75.25,21,75.45c11,.45,21.94,0,32.9.53,12.61.54,25.2,1.65,38,2.53-1.08-17.15,4.55-33.29,17.28-46.73a26.94,26.94,0,0,1,7.94-5.8c1.66-.78,4.11.14,6.59,1.26C105.5,37.63,97.86,53.34,96.46,72.61l2.17,1.3,15-25.63L115,49c-4.57,8.31-8.85,16.8-13.81,24.86-3.51,5.7-4.88,10.55,1.18,15.28a8.73,8.73,0,0,1,2.73,3.64c3.78,10,7.92,19.75,15.33,27.74.33.36,0,1.36-.26,4.79-3.47-5.18-5.83-8.7-8.2-12.22C106.4,131,94.53,140.18,79.65,146c-3.8,1.47-8.48.69-12.76.95,0-4.36-1.36-9.34.27-13,6.22-13.93,13.4-27.43,20.26-41.07,1.23-2.45,2.67-4.81,5-9-8-1.42-14.79-3.43-21.68-3.72C52.12,79.4,33.5,79.35,14.89,79a4.15,4.15,0,0,1-1.51-.18Q6.68,75.81,0,72.73c3.29-3.2,6.08-7.31,10-9.44C27.6,53.61,45.28,43.94,63.5,35.45,70.89,32,79.61,31,87.86,29.91,92.65,29.27,97.36,31.13,98.4,37.74ZM93.1,87.91c-9.75,17.4-19.8,34.54-24.35,54.58,16.25.46,35.88-15.93,37.4-30.42a8.51,8.51,0,0,0-1-4.94C101.41,100.86,97.42,94.74,93.1,87.91Z"/></g></g></svg>