<svg xmlns="http://www.w3.org/2000/svg" viewBox="0 0 278.89 162"><title>autog-chiwetel-ejiofor</title><g id="Layer_2" data-name="Layer 2"><g id="Layer_3" data-name="Layer 3"><path d="M81.72,161.32a7.89,7.89,0,0,1,1.82-1c4.58-1.13,9.18-2.17,13.76-3.27s8.82-2.26,13.26-3.21c9.66-2.07,19.31-4.22,29-6s19.53-3.08,29.32-4.48c5.38-.77,10.79-1.3,16.19-1.95.54-.07,1.08-.16,1.62-.25-.89-2.82-1.91-5.47-2.56-8.21-1.56-6.64-3.06-13.31-4.38-20a30.36,30.36,0,0,0-12.72-19.62,33.13,33.13,0,0,0-17.19-5.87c-6.23-.44-12.11.8-18.09,2a37.4,37.4,0,0,1-8.91.56c-3.6-.14-5.16-3.61-3-6.51a60.88,60.88,0,0,1,11.79-12.36c3.26-2.46,6.57-4.86,10-7.08a13.29,13.29,0,0,1,4.49-1.54c.52-.11,1.22.61,1.83.95-.32.52-.55,1.39-1,1.48-4.35,1-7.63,3.78-11.07,6.27a66.23,66.23,0,0,0-12.45,12.19,20.08,20.08,0,0,0-1.73,3.12c1.15.28,2.33.89,3.44.77,4.18-.46,8.37-1,12.5-1.8a47.53,47.53,0,0,1,17.87-.18c7.29,1.36,13.21,5.23,18.35,10.47,5.64,5.76,7.83,13,9.21,20.66,1.14,6.33,2.61,12.6,4,18.89a17.76,17.76,0,0,0,.82,2.53c1.35,3.49,3.79,4.15,6.5,1.5,4.47-4.38,8.78-8.94,13.15-13.44,2-2,3.83-4.14,5.86-6.09,1.26-1.21,2.77-2.14,4.12-3.26,1.57-1.31,3.1-2.66,4.62-4a27.73,27.73,0,0,1,10.32-5.77c6.1-2,11.84-.48,17.57,1.13,4.64,1.3,9.16,3,13.71,4.59,4.72,1.66,9.09,3.94,12.49,7.71,4.24,4.7,3,8.89-1.2,12.38-4.56,3.82-10.05,5.57-15.92,6.14s-11.9,1.29-17.87,1.61c-7.2.4-14.43.34-21.63.7-6,.3-12.06.93-18.09,1.39-3.31.26-6.66.21-9.75,1.76a2.09,2.09,0,0,1-1.3.18c-4.06-1-8,.2-12,.63-4.57.48-9.15.95-13.71,1.57q-9.66,1.32-19.27,2.85c-5,.78-10,1.58-14.9,2.57-6.63,1.32-13.22,2.88-19.85,4.25-8.25,1.71-16.52,3.34-24.78,5-1.33.26-2.67.45-4,.68Zm115.71-21.26c1.4-.07,2.37-.11,3.34-.18,9-.63,18-1.36,27.08-1.88,8.64-.49,17.31-.62,26-1.17,5.33-.33,10.66-1.12,15.5-3.55a22.78,22.78,0,0,0,5.91-4.18c2.19-2.2,1.89-4.26-.26-6.57a28,28,0,0,0-11.6-7.21c-2-.71-4.1-1.35-6.05-2.24A51.29,51.29,0,0,0,237.1,108a21,21,0,0,0-15.88,6.46c-6.27,6.27-12.23,12.86-18.28,19.34C201.14,135.71,199.46,137.74,197.43,140.06Z"/><path d="M104,3a7.87,7.87,0,0,0-2.79,0c-6.68,2.7-13.5,5.15-19.93,8.38-9.76,4.89-19.44,10-28.8,15.66A135.29,135.29,0,0,0,31.16,43.52C22.71,51.25,14.56,59.29,8.33,69A49.44,49.44,0,0,0,3.21,79.57C2.1,82.75,2,86.37,5.26,88.63a13.11,13.11,0,0,0,5.66,2.08c5.64.7,11.18-.45,16.66-1.64,4.11-.9,8.18-2,12.23-3.15,3.63-1,7.21-2.21,10.8-3.35C56.3,80.76,62,79,67.66,77.06c3.69-1.29,7.23-3,10.85-4.49,1.09-.45,2.24-.76,3.35-1.14l.34.54A10.38,10.38,0,0,1,80,73.87c-5.52,2.44-11,4.88-16.65,7.09-3.86,1.51-7.84,2.71-11.8,3.94-5,1.57-10.08,3-15.12,4.54a93.35,93.35,0,0,1-19.84,4c-3.82.28-7.61.43-11.26-1.36S.1,87.2,0,83.35c-.13-5,1.79-9.34,4.61-13.26,3.55-4.92,7.26-9.74,11.08-14.46A56.34,56.34,0,0,1,21.42,50c4.39-4.11,8.7-8.3,13.25-12.21C37.93,35,41.51,32.55,45,30a88.37,88.37,0,0,1,8-5.64c7-4,14.08-8,21.27-11.7,6.15-3.18,12.46-6,18.78-8.87,3.14-1.39,6.44-2.4,9.7-3.5.85-.28,2.08-.68,2.4.59.2.78-.31,1.74-.5,2.61Z"/><path d="M83.68,50.19a54.43,54.43,0,0,0,4.93-3.39,15.28,15.28,0,0,1,10-3.64,32.68,32.68,0,0,0,9.88-1.92c2.67-.9,5.41-1.59,8.16-2.25,4.53-1.09,8.92-2.7,12.39-5.77,3.13-2.78,6.45-5.38,8.91-8.94,3.17-4.57,6.81-8.81,10.24-13.19a5,5,0,0,1,.59-.81c.44-.35,1-.62,1.42-.93.38.61,1.11,1.26,1,1.81a31,31,0,0,1-1.1,4.52c-2.45,8.71-5,17.39-7.33,26.12-.71,2.66-.82,5.48-1.35,8.21a9.38,9.38,0,0,1-1.2,2.3l-.58-.16a13.56,13.56,0,0,1-.12-1.68,64.92,64.92,0,0,1,2.95-16.85c1.79-5.76,3.31-11.61,4.94-17.43L147,16c-1.6,2.12-3.25,4.2-4.77,6.36A66.07,66.07,0,0,1,128.05,37a31,31,0,0,1-10.21,4.75c-3.39,1-6.71,2.24-10.11,3.22-2,.59-4.26,1.47-6.26,1.21-5.71-.73-9.93,1.91-14.12,5.1-2,1.51-4.15,2.78-6.26,4.1-.89.56-2.11,1-2.67-.1a3.32,3.32,0,0,1,.17-2.85c3.11-4.71,6.44-9.27,9.58-14,3.54-5.29,7.85-9.93,12.06-14.66,3.46-3.89,7.7-6.8,12-9.71a18.69,18.69,0,0,1,2-1.45c.77-.38,1.8-.56,2,.55a2,2,0,0,1-.87,1.77,38.89,38.89,0,0,0-14,11.28c-6,7.33-11.6,15-17.35,22.54a7.65,7.65,0,0,0-.56,1.15Z"/></g></g></svg>