<svg xmlns="http://www.w3.org/2000/svg" viewBox="0 0 40 40"><title>gear</title><g id="Layer_2" data-name="Layer 2"><g id="Layer_2-2" data-name="Layer 2"><path d="M37,17.69h3v4.62H37a17.44,17.44,0,0,1-1.13,4.21L38.47,28l-2.3,4-2.62-1.51a16.63,16.63,0,0,1-3.09,3L32,36.17l-4,2.3-1.57-2.71a17.16,17.16,0,0,1-4.12,1V40H17.69V36.7a16.52,16.52,0,0,1-4-1.12L12,38.47l-4-2.3,1.71-3a16.93,16.93,0,0,1-2.86-2.94L3.83,32,1.52,28l3.05-1.76a16.59,16.59,0,0,1-1-3.93H0V17.69H3.54a17.3,17.3,0,0,1,1-3.94L1.52,12,3.83,8l3,1.74A16.93,16.93,0,0,1,9.71,6.8L8,3.83l4-2.3,1.67,2.89a16.52,16.52,0,0,1,4-1.12V0h4.62V3.21a16.59,16.59,0,0,1,4.12,1L28,1.52l4,2.31L30.46,6.5a17,17,0,0,1,3.1,3L36.17,8l2.31,4-2.57,1.48A17.44,17.44,0,0,1,37,17.69ZM20,10A10,10,0,1,0,30,20,10,10,0,0,0,20,10Zm0,13.86A3.85,3.85,0,1,1,23.85,20,3.86,3.86,0,0,1,20,23.85Z"/></g></g></svg>