<svg xmlns="http://www.w3.org/2000/svg" viewBox="0 0 235.5 71.1"><defs><style>.cls-1{fill:#666;}</style></defs><title>loading</title><g id="Layer_2" data-name="Layer 2"><g id="Layer_1-2" data-name="Layer 1"><path class="cls-1" d="M2,24.9,2.7,23a.36.36,0,0,0,.06-.24l.12-.48a3.64,3.64,0,0,1,1-1.92c.18-.24.12-.6.3-.9s.42-.3.54-.54c.3-.48.24-1.2.6-1.74.18-.24.42-.3.54-.6s.12-.6.3-.84.48-.12.6-.3c1-1.14,1.92-3.6,3.12-5.16s2.52-2.64,3.72-4A13.36,13.36,0,0,1,14.7,4.8c.78-.72,1.14-.18,1.5-1.2.12,0,.24.06.36.06.36,0,2.94-2.1,5.4-2.1a9.14,9.14,0,0,1,2.52.36c0,.84,1.26.3,1.26,3.18a13.31,13.31,0,0,1-2.1,3.12c-.78.84-1.32,1.74-2,2.58-.9,1.08-3.36,3.78-3.24,3.78-.9,0-.84,1.44-1.68,1.44-.6,0-1,.18-1.14.84.06-.42-3.78,3.84-5.16,4.92-.24.18-1.2.42-1.2.72a1,1,0,0,0,.06.42c-.66.36-.66-.24-1.2,1.14-.12.24-.42.36-.54.6-.3.54-.36,1.14-.6,1.68-.12.24-.6.42-.6.72s.18.3-.54,2.46c-.12.36-.66.48-.66.84s.12.42.12.66c0,.06-.06.18-.06.24A26.1,26.1,0,0,0,4,38.76c0,1.44,1.32,2,2.52,2,.78,0,1.38-1.08,2.1-1.14l.06-.06.78-.3a4.19,4.19,0,0,0,1.44-.78,13.82,13.82,0,0,1,2.34-1.74c.48,0,2.22-2,2.88-2-.18,0,2.88-1.5,2.88-2S21.18,31.32,21.6,31c.24-.24.36-.66.6-.84s.54-.06.84-.3.72-.84,1.14-1.14a18.17,18.17,0,0,0,2.88-2.34.65.65,0,0,0,.3.06c.36,0,.36-.24.78-.24a.45.45,0,0,1,.24.12c0,.48-1.74,1.56-1.86,1.8.06-.06-.72,1-1.44,1.14S24.42,31,22.74,31v.3c-.24.18-.6.12-.84.3s-.12.48-.3.54a62.6,62.6,0,0,1-5.76,4.32c-.3.24-.6.12-.84.3-.6.48-.24,1.14-1.32,1.14.42,0-1,.54-1,.6s-.12.42-.3.6-.6.12-.84.24c-.54.3-.6,1-1.44,1-.12,0-.18-.06-.3-.06a3.58,3.58,0,0,1-2.16,1.44h-.3c-.6,0-1.56.24-2.28.24-.54,0-1.38-.3-1.92-.36-.12,0-.24.06-.36.06A14.43,14.43,0,0,1,.3,38.82a6.45,6.45,0,0,1-.3-2.4c0-1.62.06-3.24.06-4.86.24-.48.42-2.7.6-2.88.36-.36.3-1,.84-2.58.12-.24.3-.18.3-.3C1.92,25.5,1.86,25.2,2,24.9Zm7.38-4c.66,0,.9-.78,1.32-1.14.18-.12.84-.3.84-.54a6,6,0,0,1,2-2c.24,0,1-.66,1.14-.84,0-.36.18-.18.3-.3l2-2c.18-.18.84-.3.9-.54C18.3,12,21,10.26,22.2,8.22c.78-1.32,2.28-2,2.28-4A2.53,2.53,0,0,0,23,2.16a.46.46,0,0,1-.48.36c-.24,0-.48-.12-.72-.12-.48,0-.3.66-.78.66-.66,0-.78.78-1.2,1.14s-1.2.42-1.2.78c0,.12.06.24.06.36.12-.18-2,1.86-2,2.46,0,.12.06.18.06.3s-.36.06-.36.3a1,1,0,0,0,.06.42c-.18.24-.78.3-.9.54a14.13,14.13,0,0,0-.84,2.34c-.12.18-.54.12-.6.54a.72.72,0,0,1-.12.3l-.06-.06c-.3,0-2.7,4.56-3.24,5.52A25,25,0,0,1,9.36,20.88Z"/><path class="cls-1" d="M81.84,26.46l-2.46,2a17,17,0,0,1-2.4,2L76.8,31c-.66,0-2.1,1.8-3.06,1.8L73.5,33a.22.22,0,0,1,.06.18c0,.12-.06.18-.24.18a.45.45,0,0,1-.3-.06,3.75,3.75,0,0,1-1.5,1l-.78.48c-.9.6-1.8,1.08-2.64,1.74-.18.12-.84.12-1.14.24-.12.18-.18.48-.3.6-.3.24-1.14,0-1.44.6a24.38,24.38,0,0,1-5.76-2,3.93,3.93,0,0,1-.3-1.86,3.93,3.93,0,0,1,.3-1.86L59.28,32c-.78,0-2.28,2-3,2.46-.24.18-.6.12-.84.3-.72.54-.06.84-1.44.84-.72.36-.36.66-1.44.66s-3.48-.12-4-.66c-.24,0-.48.06-.72.06-1.5,0-1.68-1.38-1.68-2.34,1.32-2.1,3.06-4.8,5.16-6.12-.12-.06-.24-.18-.36-.18s-.66.36-.78.36-.3-.24-.54-.24l-.06.3a1.91,1.91,0,0,1-.54-.18l-.12.24a1.91,1.91,0,0,1-.54-.18c-.12.06-.18.12-.3.12-.42,0-.78-.36-1.14-.36a1.52,1.52,0,0,1-.72.12,32.6,32.6,0,0,1-5-.48l.18.6c-.6,0-2.1,3.48-2.58,4-.12.18-.18-.12-.3.3-.3,1-6.84,6.06-8,6.9-.24.18-.54.6-.78.6s-.3-.06-.42-.06a8.83,8.83,0,0,1-2.58,2c-.3.12-2.28.48-2.58.54a.84.84,0,0,1-.54.18,8.23,8.23,0,0,1-3.48-1.32c-.6-.3-1.74-.18-1.74-1.26a3.42,3.42,0,0,1-.48-2c0-2.52.78-4.14,3.06-6.48a23.36,23.36,0,0,1,2.28-2.58c.42-.36,1.08-.48,1.44-.84s-.06-.6.9-.6c.24-.18.24-.42.6-.6.54-.3,1.14-.24,1.68-.54.36-.18.66-.6,1.08-.78a10.33,10.33,0,0,1,4.86-.9c.9,0,1.8.36,2.7.36.18,0,.42-.12.6-.12a9,9,0,0,1,2.58.3c.42.18.3.84,1.2.84l.06.3a24.56,24.56,0,0,0,5.1.54l.48.24c.24,0,.42-.12.66-.12.72,0,1.44.18,2.16.18.12,0,.18-.18.36-.18l.24.12a8.35,8.35,0,0,1,.78-.36,1.91,1.91,0,0,1,.54.18.36.36,0,0,1,.24-.06l1.26.06.9-.36c1.08,0,2.22-.84,3.36-.84a7.75,7.75,0,0,1,1.26.3c1.2.24,3.3-.12,3.48,1.68a3,3,0,0,1,2.52-1.2,3.36,3.36,0,0,1,2.1.66c0,2.76-2.46,6.78-2.88,10.08a1.76,1.76,0,0,0,1,.24A5.24,5.24,0,0,0,67,35.88c.6-.36,7.2-4.14,7.26-4.62l.18.06c2-1.56,3.78-3.12,5.7-4.86.24-.24,1.26-.6,1.86-1.08ZM39.48,27c-1.62-.84-2.7-2.58-5.22-2.58-.66.9-1.08.48-1.74.84-.24.12-.3.48-.54.6s-.84,0-1.2.24a15.09,15.09,0,0,0-1.14,1.44c-1.26,1.26-2.46,2.1-3.18,3.78-.84.3-3.42,5.16-3.42,8a1.85,1.85,0,0,0,1.14.36c1.32.06,4.56-2,5.76-2.64s2.34-1.92,3.78-2.64c0-1.26,2.34-2.22,3.12-3.12a7.63,7.63,0,0,1,2-2.58c.24-.18.12-.9.3-1.2C39.42,27.48,39.48,27.24,39.48,27Zm19.44-1.5c0,.24-.18.24-.36.24h-.3c-.36,0-.54.48-.78.66s-.6.06-.9.3-.3.6-.54.84a11.21,11.21,0,0,0-3.48,4c-.18.24-.6.6-.6.9,0,.54-.9,1.44-.9,2.28,0,.48.6.48,1,.48.9,0,.9-.3,1.68-.78a10.22,10.22,0,0,0,1.44-.54c.12-.12.18-.48.3-.6s.6-.12.84-.3l.9-.84c.9-.84,3.72-2.16,3.72-3.48C60.9,26.28,60.36,26.34,58.92,25.5Z"/><path class="cls-1" d="M107.52,43.86c.66-.42,1.44-.54,2.1-1a23.26,23.26,0,0,0,1.86-1.56l1-.78a.19.19,0,0,0,.06-.12v-.06c.06.72,2.46-2.1,3.66-2.7a13.79,13.79,0,0,0,2.82-2.1c1.5-1.26,3.18-2.28,4.62-3.6,1.26-1.14,2.88-1.92,4.08-3.12.06,0,.12.12.12.18a3.29,3.29,0,0,1-.3,1c-.84,0-2.7,2.82-3.66,2.82-1.26,2.1-4,3.18-5.64,4.68-.3.24-.3.54-.66.78-.9.6-4.62,3.12-4.62,3.18v.3a.36.36,0,0,1-.06.24l-.24-.06c-1.2.78-2.34,1.8-3.48,2.7-.78.6-1.68,1.08-2.46,1.68-.12.12-.42.72-.6.72s-.3-.24-.6-.24a15.49,15.49,0,0,1-1.86,1.32c-.84.66-1.92,1-2.7,1.74h-.36c-1.86,0-2.94.9-4,.9-.12,0-2.22-1.14-2.28-1.2a9.78,9.78,0,0,1-1.68-3.24A16.23,16.23,0,0,1,91.8,41a19.34,19.34,0,0,1,.54-4.92,18.34,18.34,0,0,0,.78-3.6.22.22,0,0,0-.06-.18c-.24,0-1,.66-1.38.78-.12,0-.24-.06-.36-.06S89.4,35.22,88.5,35.4c-.36.06-.54.66-.84.9-.6.48-1.44.72-2,1.14-.3.24-.48.66-.84.84s-1.44.6-1.44.66v.24H83c-.42,0-3.3,1.38-5.76,1.38-.78,0-1.14-.78-1.44-1.38v-.6c-.9-.72-1-2.58-1-3.78,0-1.86,1-3.42,1.56-5.16.3-.78.18-1.32.84-2a49.63,49.63,0,0,1,4-4.08c2-1.5,4.86-3.18,7.5-3.18.6,0,.84.3,1.14.3s.78-.06,1.14-.06a10.18,10.18,0,0,1,2.64,1.8c0,.78-.06.36.36,1.14h.24a7.35,7.35,0,0,1,.12,1.14c0,1-.3,3.06-1,3.78-.3-.06-.66-.18-.66-.54,0-.9.42-1.62.42-2.64A2.22,2.22,0,0,0,92,23v-.6a9.09,9.09,0,0,0-2.88-.54c-1.32,0-1.44.84-2.28,1.44-.24.18-.9.18-.9.54,0,.78-2.1,2.22-2.58,2.88s-.54,1.8-1.44,2A.36.36,0,0,1,82,29c0,.66-.84,1.8-1,2.34a2.51,2.51,0,0,1-.24.6c-.66.9-.9,1-.9,2.22a9.19,9.19,0,0,0-1,2.82c0,.36.6.9.72,1.26a8.78,8.78,0,0,0,5.22-2,2.61,2.61,0,0,1,1.14-.6l.3-.6c.24-.18.6-.06.84-.24.48-.3.72-.9,1.2-1.2s.84-.06,1.14-.24.72-.9,1.14-1.2c.24-.18.66-.06.84-.24.6-.6,1.92-2,2.94-2a11.37,11.37,0,0,1,.84-3.48c.12-.24.48-.3.6-.54.24-.42.72-2.4,1.14-3.18.12-.24.42-.36.54-.6.48-.9.72-2.16,1.2-3.12.12-.24.42-.36.54-.6a24.38,24.38,0,0,1,2.64-4.86c.54-.72,1-1.56,1.44-2.34,0-.54.6-.72.84-1.14s.48-1.2.84-1.74,1-.9,1.44-1.44l1.74-2.28c1.38-1.8,2.94-2.46,4.92-3.78.18-.12.12-.42.3-.54a3.86,3.86,0,0,1,1.44-.3,8,8,0,0,1,2,.3,6.27,6.27,0,0,1,.72,2.94,3.07,3.07,0,0,1-.48,1.92l-.24.9c-.42,0-1.68,2-1.74,2.58s-.9.48-1.2,1.74c-.06.36-1.44,1.56-2,3.18-.12.42-.84.78-1.14,1.14s-.12.54-.3.84c-.36.6-2,1.62-2.58,2.28-1,1.08-1.74,2.34-2.64,3.48.12-.18-1.32,2-1.8,2a2.6,2.6,0,0,0-.3-.06,8.62,8.62,0,0,1-1.08,1.5c-.24.24-.66.24-.84.54s-.12.78-.3,1.14a19.09,19.09,0,0,0-1.74,5.22c-.9,3.36-2.46,6.6-3.06,10A11.65,11.65,0,0,1,96,43.14c-.06.3-.36.54-.36.84,0,1.74-.42,4.62,1.74,4.62,3.6,0,6.84-3.18,7.8-3.18h.42C106.32,45.06,106.8,44.28,107.52,43.86Zm-3.42-26c0,.36-.42.6-.6.9a11.82,11.82,0,0,0-.84,2.58c-.12.42-.6.84-.6,1.26a.53.53,0,0,0,.3.48c.9-1.68,3.84-4,4-4.92.12-.54,1.62-1.56,2-2a39.31,39.31,0,0,0,5.46-7.5c1-1.56,2.58-3.9,2.58-5.76,0-.6-.06-1.44-.84-1.44-.24.24-.6.18-.84.3s-.36.42-.6.54-.6.12-.84.3-.18.66-.42.66a1.32,1.32,0,0,1-.48-.06c-.3.3-.24.84-.54,1.14a3.13,3.13,0,0,0-.9,1.14c-.24.36-.6.54-.84.9-1.56,2.4-4.38,6.72-4.38,7.62a1,1,0,0,0,.06.42c-.18.24-.42.3-.6.54C105.24,16,104.1,17.16,104.1,17.82Z"/><path class="cls-1" d="M149.94,28.32c0,.72-4.44,3.9-5.16,4.44-.12.06-.24.42-.36.42h-.24c0,.24-.12.48-.36.48,0,.06,0,.06-.06.06l-.6.36c-.36.24-1,.66-1,1.2-.48.48-1.14.66-1.62,1.14-.84,1-2.22,2.76-2.76,2.82-.78.18-1.32,1.68-2.58,1.68-.18.48-3.12,2.58-3.78,3-1.08,0-2.16.48-3.36.48-2.28,0-4.62-.6-4.62-3.78,0-2.58,1.38-4.8,1.38-7.38h.3a24.41,24.41,0,0,1,2.58-5.16,17.13,17.13,0,0,1,1.2-2c.48,0,1.26-1.08,2.82-1.08a2.69,2.69,0,0,1,1.2.24c0,1.14-.54,4.14-1.44,4.62-.3.66-1.32,4.2-1.44,4.32a18.13,18.13,0,0,0-1.92,7.38,3.25,3.25,0,0,0,.48,1.8,7.78,7.78,0,0,0,3.12-.84c.24-.24.36-.66.6-.84s.6-.12.9-.3c.54-.24,1.56-1.56,2.28-2,.24-.18.6-.06.84-.3s.18-.42.3-.54.66-.12.9-.3.78-1.14,1.08-1.44l1.14-1.2c.3-.3,1-.3,1.2-.6s.18-.72.42-.72l.24-.12C142.38,33.12,149.16,28.26,149.94,28.32ZM135.36,15.06c0-.66.24-2.22,1.14-2.22.54,0,1,.36,1.5.36a1,1,0,0,0,.42-.06,16.07,16.07,0,0,1-2,4.08C135.6,16.92,135.36,15.9,135.36,15.06Z"/><path class="cls-1" d="M147.06,30.06c1.62-1.32,3.24-3.18,5-4.32.66-.42,1.5-.66,2.16-1.14,1.5.36,3.78.3,3.78,2.4a10.27,10.27,0,0,1-.6,2.76c-.12.18-.54.48-.6.6-.48.9-.3,2-.9,2.88a8.73,8.73,0,0,0-1.14,2.58.39.39,0,0,0-.3.3c0,.12.06.24.06.36,0,.3-.48.54-.6.78A20.47,20.47,0,0,0,152.76,41c.06.12.18.3.36.3.48,0,.9-1.32,1.62-1.44a7.81,7.81,0,0,0,2.34-2l2-2a8.57,8.57,0,0,1,1.2-.84c1.68-1.5,3.42-2.94,5.16-4.32.24-.18.78-.18.9-.3s.12-.48.24-.6.66-.12.9-.3c-.18.12,1.56-1.74,3-1.74.12,0,.72.06.72.3,0-.24,2.4.72,2.64,1a.4.4,0,0,0,.24.42,9.57,9.57,0,0,1-.84,4.08l-.12.12a2.13,2.13,0,0,0-.72,1.56,14.55,14.55,0,0,0-1.74,4.08,25.85,25.85,0,0,0-.9,5.16,7.85,7.85,0,0,0,.6,3.72c.54,0,1.14.06,1.86.06,1.8,0,4-.54,4.74-1.74.72-.42,1.26.12,1.5-.9a.65.65,0,0,0,.3.06c.48,0,.24-.54.54-.6,1.74-.84,1.32-1.08,2.58-2,.54-.42,1.2-.72,1.74-1.14.36-.3,1.2-1.5,1.62-1.5.12,0,.3.06.42.06a15.23,15.23,0,0,1,2.16-1.74l.72-.66c.12-.36.24-.66.66-.78,1.2-.42,3.42-3.6,4.5-3.6.36,0,.06-.54.36-.72a4.17,4.17,0,0,1,.78-.3c.42-.54,3.18-3.36,4.56-4,.48,0,1.5-1.14,1.86-1.14a.16.16,0,0,1,.18.18c0,1-3.18,2.82-4.08,3.72a75.6,75.6,0,0,1-6.6,5.76c-.78.6-4.08,2.94-4.08,3.42,0,.06.06.12.06.18,0-.24-1.5,1.32-2.28,1.92a15.37,15.37,0,0,0-2.88,2.34,11.18,11.18,0,0,1-1.56,1.5c-.12,0-.3-.06-.42-.06l-.3.54c-.36.24-.78.12-1.14.3s-.36.42-.6.6a10.51,10.51,0,0,1-5.82,1.74,10.62,10.62,0,0,1-1.38-.06l-.3-.3a4.63,4.63,0,0,0-1.38.36c-.12,0-.24-.36-.78-.36-.84,0-1-1.14-1.86-1.14-.48-.54-1.26-.66-1.74-1.14a24.17,24.17,0,0,1-.18-2.94c0-5.34.66-7.2,5.1-14.34l-.12-.18c-1.38,0-2.28,1.62-3.36,2.22-.6.42-1,.78-1.44,1.14-.24.18-.6.12-.9.3s-.36,1-1.14,1.14-1.14,1.74-2,1.74-2.16,2.64-2.88,3.18c-.36.24-.84.24-1.2.54s-.42.84-.84,1.14-.78.36-1.14.6c-.54.42-.72.84-1.44,1.14h-.6a.54.54,0,0,1-.42.18,8.6,8.6,0,0,1-3.9-1.62c.12-6.3,3-9.3,5.16-14.7-.66.06-2.34,1.5-2.82,1.92-.24.24-1.8,2.1-3.06,2.1Z"/><path class="cls-1" d="M211.92,32.82a6.09,6.09,0,0,0-1.44.6,15.6,15.6,0,0,1-4.92,3.12c-.12.12-.18.54-.3.6a8,8,0,0,1-3.48,1.14,3.32,3.32,0,0,1-2.52-1.14c-.6-.42-.48.36-1.2-1.14a3.59,3.59,0,0,1-.84-1.74c0-3.42,4.32-7.26,6.9-9.18.54-.42.78-.24,1.44-.9,3.24-1.38,1.86-.84,2.52-.84.42,0,.48-.66,1-.66.24,0,.42.06.66.06.66,0,1.56-.3,2.52-.3.3,0,.54.24.84.3,1.68.36,2.16.24,3.18,1.74.18.3.6.48.6.84s-.3.42-.3.78c1.56,0,1.2-1.56,1.74-1.92.36-.24.84-.36.84-.84A8.68,8.68,0,0,1,221.46,21a7.75,7.75,0,0,1,1.26-.3c.78,0,1.14.78,1.14,1.44s-1.14,1.92-1.56,2.94c0,.12.06.24.06.36s-.72,1.26-1.5,2.76a1,1,0,0,1,.06.42c0,.36-.48.42-.66.78,0,.12.06.24.06.36,0,.42-.66.84-.6.84v-.06l.06.36c-1.74,3.12-2.34,3.6-3.72,6.66l-.3.66-.06.06c-.06.78-1.2,1.68-1.2,2.58,0,.12.12.36.24.36s.42-.42.78-.42a.22.22,0,0,1,.18.06c2.22-2,4.92-3.54,7.2-5.46,1.92-1.92,1.26-1,2.28-1.68s1.92-1.8,2.88-2.64c.54-.48,1.2-.66,1.74-1.14s.72-1,1.14-1.44a24.28,24.28,0,0,1,2-1.38c.12,0,.3.06.42.06a.22.22,0,0,0,.18-.06c0-.12-.06-.24-.06-.36s.12-.24.3-.24a.45.45,0,0,1,.3.06,5.08,5.08,0,0,1,1.38-.72c0,.36-3.3,2.94-3.66,3.24-.18.18.06.24-.3.3s-.3,1-1.14,1.14c-.42.06-.6.6-.9.84s-.78.3-1.14.6-.72,1.32-1.44,1.44c-.48.06-.54.54-.84.84s-.84.3-1.2.6-.24.6-.54.84a1,1,0,0,0-.42-.06.22.22,0,0,0-.18.06v.24a1,1,0,0,1-.42.06c-.9,0-3,2.88-3.6,2.88-.36,0-.66.6-.9.84s-.78.3-1.14.6c-.66.48-.84.84-1.74,1.44-.12,0-.24-.06-.36-.06.06,0-1.26.9-1.62,1.2-1.86,1.32-2.64,4.2-2.88,4.62-.9,1.5-1.2,3.3-2,4.86a28.68,28.68,0,0,0-1.14,2.88c-.12.18-.54.18-.6.3-.78,1.38-1.56,4.32-2,4.32-.12.36-.06.84-.24,1.14a6.38,6.38,0,0,1-.9.9c-1.26,1.32-2,3.06-3.42,4.32-.84.78-1.74,1.56-2.64,2.28-.06.06-.12.48-.3.6s-.24-.06-.36-.06c-.48,0-.24.66-.6.66a.85.85,0,0,1-.36-.12c-.24.06-2.1,1.26-2.4,1.26s-.42-.06-.6-.06c-.72,0-1.38.3-2.1.3-1.26,0-2.94-.18-3.66-1.14l.06-.36c-.3-.6-.9-2-.9-1.92V66.54c-.36-.06-.3-.42-.3-.72,0-1.74.48-2.52,1.74-4.2a1,1,0,0,1-.06-.42c0-.3.42-.24.6-.42s.18-.66.3-.9c.42-.72,2.46-2.82,2.64-3.18s.36-.12.54-.24a1.32,1.32,0,0,1-.06-.48c0-.12.12-.12.3-.12h.24c.36,0,1-1.14,1.26-1.44a1,1,0,0,0,.42.06c.18,0,.66-1,1-1.2s.78-.12,1.14-.3.36-.48.6-.6.6-.06.84-.24a17.74,17.74,0,0,1,2.34-1.44c.72-.42.72-1,1.74-1.2.06,0,2.52-1.74,2.88-2,.6-.06,1.56-1.62,2.58-1.74a10.54,10.54,0,0,1,1.74-3.48c.6-.78,1.2-3.18,1.74-4.26a42.35,42.35,0,0,1,3.18-5.52c.18-.24.06-.84.24-1.14s.48-.36.6-.54c0-.84.3-1,.3-1.2C213.84,30.36,211.8,33,211.92,32.82Zm-8.1,17c-.9.24-3.36,2-3.6,2-1.14,0-2.46,1.74-2.46,1.74-.78,0-.54.36-.78.36s-.18-.06-.36-.12v.24a1,1,0,0,1-.42.06c-1,.54-1.86,1.8-2.76,2.58-1.92,1.68-2.1,2.46-3.42,4.32s-2.1,2.64-2.1,4.92a5.51,5.51,0,0,0,1.5,4,2.46,2.46,0,0,1,.66-.06c.78,0,1.62.18,2.4.18a6.42,6.42,0,0,0,3.84-2.4c.18-.24.18-.78.3-.9s.72-.06.9-.24.06-.66.24-.9c.66-.78.9-.24,1.5-1.74.12-.24.42-.3.54-.54s.12-.6.3-.9.48-.36.6-.54c.24-.36.18-1.74.84-1.74,0-1,.18-.54.6-1.14,0-2.1,2.28-4.32,2.28-6.24,0-.3.42-.48.6-.66a28.07,28.07,0,0,0,1.44-4.32l.18-.18-.18-.12c0-.06-.6.9-.78.9a1,1,0,0,1-.42-.06A4.14,4.14,0,0,0,203.82,49.8Zm11.52-23.52a2.4,2.4,0,0,0-2.46-2.7c-1.86,0-1.92,1-3.24,1.74a7.2,7.2,0,0,0-2.88,2.34c-1,.66-.48.72-.9,1.14-.12.12-.48.18-.6.3s-.06.6-.24.84c-.3.48-.9.72-1.2,1.14-.48.66-2.4,4.26-2.4,4.92a1.75,1.75,0,0,0,.12.54,7.69,7.69,0,0,0,4.62-2c.36-.24.78-.06,1.14-.3s.3-.66.6-.84c.72-.48.84,0,1.74-.9.54-.54,1.26-.9,1.86-1.44,1.2-1,2.34-2.16,3.6-3.12A8.1,8.1,0,0,0,215.34,26.28Z"/></g></g></svg>