<svg xmlns="http://www.w3.org/2000/svg" viewBox="0 0 256.73 286.28"><defs><style>.cls-1{opacity:0.3;}</style></defs><title>sign-here</title><g id="Layer_2" data-name="Layer 2"><g id="Layer_2-2" data-name="Layer 2"><g class="cls-1"><path d="M5.12,255.78c0-.51.36-.46.41-1.12.15-2.09.71-3.87,0-6a36.65,36.65,0,0,1-4-2.85c-1.48-1.47-2.29-4.53-.66-6.16,1.07-1.07,1.78-.76,3.2-.76,0,.1.06.15.16.25.25.26.76.56.91.71,1,1,.56,3.11,1.58,4.13,1.38,1.37,3.72,1.27,5.14,2.59l.72.31c.81.41,2.24.82,2.44,1l.51.51c1.12.2,3.87,2.65,6.16,4.63,1-1,.82-2.24,1.48-3.41s.91-.81.92-2.44l.76-1.68c.92-2,1.12-4.59,2.19-6.37.46-3.21,1.27-7.07,1.83-10.39.2-1.42-.36-4.12.61-5.09.15-.15.36,0,.46.16a2.76,2.76,0,0,1,.51.61l-.71,3.77c-.26,1.57.2,3.46-.21,5-.1.41-.51.62-.56,1-.15.87.41,1.22-.41,2l.31.3c.1.11.15.26,0,.61l-.35.26a3.31,3.31,0,0,1-.51,2.24V240l-.26.05c-.36.76-.31,2.95-.56,3.21s-.51.3-.71.5-.05.77-.15,1.18c-.16.56-.92,1.52-1,2a43.76,43.76,0,0,1-2,5.86c-.2.61.21,1.12-.2,1.73a33,33,0,0,1,5.8,9.27,8.53,8.53,0,0,0,.46,1.47c.1.1.31.21.41.31s-.26.66-.1.92a5.1,5.1,0,0,1,.71,1.73c0,4.78.2,7.84-1.78,12a6.92,6.92,0,0,1-.92,1.94,2.49,2.49,0,0,0-1,1.47.54.54,0,0,0-.3.1c-.21.21-.26.46-.46.67-1.07,1.06-4.63,2.59-6.72,1.63-.16-.16-.26-.36-.41-.51-.36-.36-.36.15-.66-.16A5.37,5.37,0,0,1,16.88,283l-.4-.41c.51-.5-.56-1.27-.72-1.73,0-.25.46-.56.21-.81l-.41-.41c.31-.3-.15-1.27-.25-1.68-.51-2.44,0-5.55.71-8,.2-.72.92-3.87,1.32-4.28.05-.05.71-.41,1.38-3.31.1-.41-.26-.25.51-1-.31.31.66-2.09.71-2.65-3.51-2.8-8.5-8.19-12.88-9,.3,2.55-1,4.74-1,6ZM2.93,242.19a7.11,7.11,0,0,0,.92.81l.2-.2c.1,0,.21.1.31.2s.2.31.3.41.41.3.62.1a10.54,10.54,0,0,0-1.74-3.26,1.2,1.2,0,0,0-1.68-.15C1.71,240.86,2.42,241.68,2.93,242.19Zm16.81,20.16A20.71,20.71,0,0,1,18.51,266l-.05.15-.41,1a19.65,19.65,0,0,0-1.52,9.06c0,.46.41.61.46,1s-.46,1.07-.11,1.42a1.39,1.39,0,0,0,.41.31c0,.3-.46.66-.2.92a1.15,1.15,0,0,0,.41.3c.05.25-.31.51-.26.76.1.51,1.12,1.43,1.43,1.94s-.05,1,.25,1.27c1.48,1.48,1.68.66,3.21.66.2,0,.66.36.86.16a1.24,1.24,0,0,1,.41-.31l.21.21a.3.3,0,0,0,.2-.11,1.38,1.38,0,0,0,.31-.4c.35.35.5.2.76-.05a13.62,13.62,0,0,0,2.85-5.1c.15-.56-.1-1.12.25-1.68-.4-.71.87-2.9-1-7.89-.41-1-2.55-4.07-2.19-4.63A45.2,45.2,0,0,0,21,260.11c-.1-.1-.21-.2-.31-.2-.2.2-.2.91-.2,1.22S19.89,261.89,19.74,262.35Z"/><path d="M24.06,211.08c-.56-.56-1.68-2.09-.92-2.85.46-.46,1.13-.51,1.58-1a1.06,1.06,0,0,0,.31-.41A19.2,19.2,0,0,1,26.81,212C25.84,212.45,24.77,211.79,24.06,211.08ZM47.69,210c.61.61-.46,7.08-.61,8.15,0,.15.15.56.05.66l-.21.2a.5.5,0,0,1,.11.71s0,0,0,.11l-.21.81c-.1.51-.25,1.38.2,1.83,0,.82-.4,1.53-.4,2.34.1,1.53.46,4.23.05,4.74-.51.82.3,2.55-.77,3.62.26.56-.45,4.83-.66,5.75-.91.92-1.42,2.24-2.44,3.26-1.94,1.93-4.43,3.41-7.13.71-2.19-2.19-2.9-5.24-5.09-7.43l.25-.26a29.67,29.67,0,0,1-2.19-6.57,21.47,21.47,0,0,1-.71-2.75c.41-.4.15-2,1.48-3.3a3.1,3.1,0,0,1,1.22-.82c1,1,3.06,4,2.7,5.14.3.82,2.44,4.69,2.44,4.89.41,2,2.9,6.16,4.64,7.89a3.84,3.84,0,0,0,1.93,1.12c.46-.45,2-2.7,1.94-3.36,0-.4-.26-.86-.21-1.22s.41-.61.51-1c.26-.66,0-2.64.21-3.66.05-.36.45-.56.45-1s-.2-.51-.2-.71.46-.67.51-1-.31-1.63-.31-2.14l-.05-2c0-.51.56-1.07.51-1.52-.05-.26-.46-.77-.25-1l.1-.31C45.34,220.45,47,210.57,47.69,210Z"/><path d="M61,204.31a7.42,7.42,0,0,0-.71,1.73,18.63,18.63,0,0,1-1.53,6.82c0,.21.31.61.26.77a9.61,9.61,0,0,1-2,3.92c-1.07,1.07-1.73,1-3.1,1.17-.87.15-.1.71-2,.05a4.31,4.31,0,0,1-2.19-.76c-2.9-2.91-2.49-9.83-1.93-13.65.1-.82.45-.87.46-2,1.57-3.92.86-2.29,1.42-2.85.36-.35-.15-1,.25-1.37.21-.21.41-.31.62-.51.56-.56,1.07-1.58,1.88-2.39.25-.26.66-.26,1-.46,1.73-1.12,2-1.63,4.17-1.23.41.11.92-.1,1.23.21s.1.61.4.92c1.33-1.33-.3-2.35-.15-3.11.1-.51.41-1,0-1.43a10.39,10.39,0,0,1,0-4,10,10,0,0,1,.81-1.32,1.55,1.55,0,0,1,2.19.25c.61.61.67,2.6,1.17,3.82.11.1.26.15.36.26s.46,1.68,1.07,3.61a1.14,1.14,0,0,1,.41.31c.3.3,0,.76.1,1.22.1.1.25.15.36.25.35.36.15,1.28.2,1.23l0-.06L66,196c1.17,4.12,1.06,5,2.49,8.81l.3.81v.1c.62.72.41,2.45,1.18,3.21.1.1.4.21.51.1s0-.71.3-1a.27.27,0,0,1,.2-.11c.16-3.61,1.18-7.18,1.48-10.74,0-3.26.26-1.88.51-3.36s.1-3.16.2-4.68c.06-.87.46-1.58.51-2.45s-.25-1.47-.25-2.19c0-1,.41-1.93.56-2.9.1-.1.3-.2.41-.3a.3.3,0,0,0,.1-.21c-.1-.1-.26-.15-.36-.25s-.1-.31,0-.46.21-.21.31-.21a6,6,0,0,1,.56-1.78c.3.31-.31,5.3-.36,5.86,0,.3.26.15,0,.51-.3.51.61,1.12,0,1.93-.3.41,0,1,0,1.48s-.41.91-.46,1.48c0,.76.51,1.73,0,2.44-.35.46,0,.92,0,1.42s-.46,1-.51,1.53c0,.41.31.72.26,1.17a1.17,1.17,0,0,0-.41.31.26.26,0,0,0-.1.2l.2.21a1.2,1.2,0,0,1-.3.4c-.77.77-.11,5-.61,5.5-.31.31,0,1.07-.06,1.48-.05.56-.4.92-.45,1.48-.16,1,0,1.42-.26,2.69-.1.11-.25.16-.35.26,0-.05-.31,1.83-.36,2.39-.46,2.7,1.32,5.81,1.48,6.37.5,2,1.78,3.82,2.39,5.85a31.86,31.86,0,0,0,1.48,3.41c0,.26-.31.61-.26.77.51,1.83,2.34,5,1.94,5.39.2.41.66.77.76,1.17a7.82,7.82,0,0,1,0,1.53c0,2.19.87,4.33.76,6.57,0,1.37-.15,2.8-.3,4.18,0,.1.3.51.25.76-.1.1-.25.15-.35.25-.41.41.35.77,0,1.07a1,1,0,0,1-.41.21c-.15.25-.71,2.85-1,3.1s-.41.31-.56.46c-.61.61-.91,1.43-1.53,2-1.06,1.07-2.64,2.34-4.07,2.14l-.25-.36c-.77-.25-2.5-1-2.4-.87l-1-1c-.36.25-.61-.11-.87-.36-1.48-1.48-1.73-2.55-2.09-5a1.11,1.11,0,0,1-.4-.31c-.26-.25.15-.56.15-.86s-.41-.71-.51-1c-.26-1-.31-4.48-.46-4.94s.2-.41.26-.66a1.37,1.37,0,0,1-.46-.36c-.1-.1,0-.2.15-.35l.2-.21c.31-.3-.1-1.83-.15-2.29a1.24,1.24,0,0,0,.41-.3c.15-.16-.31-1.43-.16-1.89s.57-.76.72-1.22c.1-.3-.1-.71,0-1s.46-.56.51-.91a21.44,21.44,0,0,1,.76-3.21c.26-1-.25-1.48.46-2.5,0,0,.66-3.61.76-4.12.46-.56,0-2.7.72-3.67a12.41,12.41,0,0,1-1.48-4.43c-.15-1.17-1.68-3.71-2.14-5.09a50.08,50.08,0,0,1-2-7.38c-.06-.36-.67-.77-.77-1.17s.1-.72.05-1c-.71-.71-.56-1.07-.76-1.27C60.52,200.59,61,204.56,61,204.31Zm-2.64-8.45c-1.33-1.33-3-1.58-4.38-.21-1.58,1.58-.82,2.45-1.28,4.23-.35,1.58-.81,2.24-.45,4.43-.31,1.42.2,1,.2,1.73,0,.2-.25.56-.25.76s.45.56.5.92c.16.66-.15,1.37-.05,2,.16,1,1.58,5.65,2.14,6.21a2.12,2.12,0,0,0,.56.35,9.15,9.15,0,0,0,2.24-5.6c.1-.51.61-.71.72-1.22s-.31-.81-.21-1.22c.21-1,.72-.71.72-2.24,0-.92.3-1.83.35-2.8.15-1.88.15-3.82.41-5.7A9.49,9.49,0,0,0,58.33,195.86Zm10.18,29.73c-.56,1-1.12,4.58-1.32,4.79-1,1-.62,3.56-.62,3.56-.66.66-.15.77-.35,1s-.21.1-.41.2l.2.21a1.2,1.2,0,0,1-.3.4c-.41,1.33,0,3.11-.15,4.54-.21,3.05.3,3.87.76,6.56s.46,4,2.39,6a6.64,6.64,0,0,0,4.69,2.14,2.51,2.51,0,0,1,.51-.61c.66-.66,1.52-1.22,2.19-1.89,1-1,1.52-4,1.22-5.29,0-.36-.51-.82-.51-1s.56-.66.56-1-.51-.61-.56-1c-.1-1.23.56-1-.2-2.75-.11-.31.1-.62,0-.92s-.41-.61-.51-1,.1-.71.05-1c-.1-.5-1.33-1.62-.77-2.18-.81-.82-.3-.62-.45-1.48-1.79-1.78-1.74-5.6-3.37-7.23-.25-.26,0-.77,0-1.07a33.28,33.28,0,0,0-2.44-4.89v-.3l-.25,0c-.06,0,.25,1.27.1,1.42a1.27,1.27,0,0,1-.41.31A4.92,4.92,0,0,0,68.51,225.59Z"/><path d="M73.7,186.9c.26-2.5,0-5.45.56-7.89.2-.92.71-1.84.87-2.8,1.58-1,3.46-3,5.24-1.18a12.25,12.25,0,0,1,1.83,2.86c0,.25,0,.86,0,1,.36,1.17,1.48,2,1.68,3.21a10.69,10.69,0,0,0,1.23,3.16.44.44,0,0,0,0,.51c.1.1.25.15.35.25.26.26.05.87.16,1.17a24.29,24.29,0,0,0,2.18,4.13.58.58,0,0,0,.57-.05c.4-.41-.36-1.89.15-2.6.35-.56.35-2.29.3-3.67l0-3.41a10.48,10.48,0,0,1,.31-1.73c.15-2.7.4-5.39.71-8,0-.36.51-.82.51-1s-.31-.51-.31-.71.46-.67.51-1c0,.25-.15-2.8,1.07-4,.1-.11.66-.57.87-.36-.21-.21,2.65-1.43,3.1-1.38a.48.48,0,0,0,.56.16,11.33,11.33,0,0,1,2.75,4.17v.21a2.56,2.56,0,0,0,.72,1.93,17.46,17.46,0,0,0,2,4.94,30.58,30.58,0,0,0,3.62,5.14,9.48,9.48,0,0,0,3.66,2.65c.46-.46,1-.92,1.63-1.53,1.53-1.53,3-3.87,2.55-5.5.25-1,1.17-1,.51-2a.89.89,0,0,0,.3-.21c.41-.41-.25-.66,0-1,.77-2.18.21-2,.46-3.92.1-.81.41-1.63.51-2.44.05-.56-.26-2.29.1-2.65.1-.1.31-.2.41-.3a18.6,18.6,0,0,1,.35-3.31l.06-1.17a1.19,1.19,0,0,1-.11-1.23c.67-1.37-.15-5.95.77-6.87.3-.3-.41-.51-.31-.92s.31-.61.41-.91c-.1-.82-.15-5.55.51-7.23.41-.41.3-2.24.61-2.55a.2.2,0,0,1,.31,0c.86.87-.31,5.09-.31,6.62a92.41,92.41,0,0,1-.71,10.49c-.16,1.17-1,6-.56,6.36,0,.06.15.06.2.11-.2-.21-.15,2.39-.31,3.56a18.26,18.26,0,0,0-.45,4.43,13.72,13.72,0,0,1,0,2.6c-.11.1-.31.2-.41.3l.2.72c-.1.5-.56.76-.71,1.22-.1.3.05.66,0,1a12.62,12.62,0,0,1-3.46,6.42,12.84,12.84,0,0,1-1.22,1.12h-.51a5.59,5.59,0,0,0-.87,1.48c-.1.1-.51-.1-1,.35-.71.72-1.78-.15-2.54.61-.87-.05-1.63.51-2.45.51a27.94,27.94,0,0,1-2.64-2.34c-4.54-4.53-5.55-6.67-7.85-16.5l-.25,0c-1.17,1.17-.56,3.3-1,4.73-.15.86-.15,1.48-.25,2.19-.05.36-.41.61-.51,1,0,.25.56,1.17,0,1.93s.51,2.45-.2,3.16.4,4.07.25,5.14c-.1.51-.51.92-.56,1.48s.36,1.07.25,1.68-.35,1-.45,1.47a6.7,6.7,0,0,1-.26,2.19l-.51.51a.65.65,0,0,1-.2.51,10.38,10.38,0,0,1-4.69,1.94c-5.24-5.45-5.34-10.44-8.09-16.86-.51.62-.71,3.26-.76,4,0,.4.25,3.31-.82,4.38Z"/><path d="M186.42,88c.46-.46-.61-1.33-.2-2.14a13.5,13.5,0,0,0,.31-5.3c-.06-.35.5-1.32.5-1.83-.05-.15-.35-.46-.35-.66,0-.36.76-1.17.45-1.48l0-.05c.21.2.41-2.75.41-3.77,0-.71.61-4.58,1.07-5a.2.2,0,0,1,.31,0c.76.76,0,2.44-.16,3.31a31.52,31.52,0,0,1-.35,3.51c-.1.61-.41,1.23-.51,1.84-.15.86.35.76-.31,2.75.05.25.41.5.41.71-.31,1.93-.76,2.19-.36,3.51l-.2,2c0,.3.25.66.15,1-.76,1.57-.25,8.5.66,11,.16.46-.45.87-.5,1.33s.66.46.15,1,.56,1.37,0,2.7c-.26.35.61,3.76-1.58,6l-.36.36a.32.32,0,0,0-.46,0v.51c-1.47,1.37-6.77,3.61-8,2.34-.1-.1-.15-.26-.26-.36a8.59,8.59,0,0,1-3-1.83c-3.21-3.21-7.69-11.86-6.82-12.73.05,0,0-.2,0-.25l-.36-.36c.1-.1-.71-2.85-1-3.92a28.62,28.62,0,0,1-1-4.84.83.83,0,0,0-.35.26c-.71.71-.46,1.47-1.27,2.29-.11.1,0,2-.31,2.34-.76,1.07-.36,3.72-.56,3.92s-.31.2-.41.31c-.3.3.05,2.08,0,2.59s-.35,1-.46,1.48c-.15,1,.11,1.93-.05,2.9-.1.51-.35,1-.46,1.48-.15,1,.16,2,0,3-.1.51-.4.92-.5,1.43-.31,2.24.35,4.43-.26,6.67.31.81-.76,1.57-.46,2.39-.61.81.31,1.83-.71,2.85-.46.46-1.12-.1-1.53.31-.15.15-.3.4-.46.56a1.51,1.51,0,0,1-.81-.21c-.92.92-2.6.46-3.41-.35-1.68-1.68-1.63-4.28-3.41-6.06.35-.36-.11-2.14-.41-2.45-.1-.1-.31-.2-.41-.3-.3-.31.36-.66-.05-1.07a2.31,2.31,0,0,1-.61-1.63.53.53,0,0,1-.25-.15c-.36-.36,0-.72-.16-1.28a67.28,67.28,0,0,1-1.88-10.64c-.82,1.43-.1,3.16-.71,4.69-.46,1.17-.11,1.22.15,2.29a7.84,7.84,0,0,0-.61,3.77c.05.56-.51,1.22-.41,1.73l.36.15c-.26,2.39-1.12,4.68-1.43,7.13l-.76-.66c0-.31-.1-.41,0-.72.71-2,.56-4.94.81-6.82.05-.26-.25-.36-.15-.46.31-3.16.81-6.31.91-9.57.06-2.09.67-4-.3-6-.15-.35.36-3.1.1-3.46a5,5,0,0,1-.25-2.7c-.1-.1-.26-.15-.36-.25-.36-.36-.05-2.09-.1-2.65-.2-1.73-.71-3.36-.76-5.14-.06-.56.25-2.3-.11-2.65a.92.92,0,0,0-.35-.26c.05-.76-.31-4.17.1-4.58a1.15,1.15,0,0,1,.41-.3c0-.41-.56-1.48-.26-1.79.1-.1.31-.2.41-.3a7.2,7.2,0,0,1,2-3.41c.46-.46,1.74-1.53,2.4-.87s.46,1.58,1.58,2.7L148,68a15.7,15.7,0,0,1,1.22,1.63c.41.92,0,1.84.21,2.75,0,.36.51.61.56,1,0,.76-.51,1.63-.51,2.44,0,.21.25.56.2.72-.15.56-.66,1.17-.71,1.73a11,11,0,0,0-.71,3.66c-.21.41-.72.82-.77,1.28a12.12,12.12,0,0,0,.71,3.15c.16.46.16,2.6.31,3.16s.82,1.32.92,1.94c0,.25-.21.3,0,.51s1.17,3.41,1.53,4.88c0,.1.86,3.11.86,3.11s1.12,3.36,1.27,4c.56,2.29,2.65,5.81,2.91,7.28s.71,1.84,1,3c.26.86-.45,1,.51,1.93,1.94-1.93,1.07-5.35,1.43-7.84.05-.36.46-.56.51-.92.15-1-.15-2,0-2.95.1-.41.46-.66.51-1,.15-1.17-.21-2.24.2-3.66.15-.67.41-1.23.51-1.94s-.05-1.27,0-1.94a36.07,36.07,0,0,1,1.48-4.93c.1-.31-.11-.61,0-.92A14.33,14.33,0,0,1,164.78,85a7,7,0,0,1,2.29-1.48A16.89,16.89,0,0,1,171,89.91c.25.66.25,1.68.76,2.19.2.92.51.61.51,2,.1.1.3.2.41.3s0,.15-.11.31l-.1.1c.1.1.31.2.41.3s.05.16-.1.31l-.1.1.2-.1c.15.15-.15,1.58.86,2.6.51.5,1.68,3.71,2.14,4.58a24.2,24.2,0,0,0,4.33,5.34c1.43,1.43,1.63.31,3,1a.57.57,0,0,1,.21-.41c.56-.56,1.37-.86,1.93-1.42-.4.41,1.53-4.18.87-4.84.1-.2-.15-1-.1-1.22a19.14,19.14,0,0,0,.15-4.53c-.05-.76.2-1.63.1-2.45-.05-.25-.3-.5-.35-.76.91-.92-.06-.86-.06-1.68s1-1.12.16-2C186.68,88.59,185.91,88.53,186.42,88ZM146.3,77.94c0,.26-.25.56-.25.77s.4.61.5.91-.15.87.21,1.23a.57.57,0,0,0,.56.05c-.36-.77.25-.87.46-1.48.05-.15-.26-.56-.26-.76s.66-.77.77-1.17l-.26-.77a.71.71,0,0,0,.1-.2c.11-.1.26-.15.36-.26a18.82,18.82,0,0,0-.2-4.17c-.26-.26.05-.36,0-.51a28,28,0,0,0-2.19-4.13l.05-.25c-.21-.2-.61-.1-.82,0,0,.26-.66,2.29-.51,3,.06.36.46.56.51.92.21,1.43-.25,4.33.51,5.91C145.89,77.33,146.25,77.59,146.3,77.94Z"/><path d="M209.59,47.14c0,.72-.92,3.87-.67,4.13l.16,3.61v.41c0,.41-.41.61-.46,1-.46,2.19-.26,4.43-.71,6.62a1.15,1.15,0,0,0-.41.3c-.26.26.15.56.1.92s-.41.61-.46,1,.31.51.26.76c-.16.87-.51,1.73-.61,2.65s.05,2.09-.11,3c-.05.36-.66.76-.76,1.17s.1.71,0,1-.61.71-.71,1.22c-.05.26,0,.77-.05,1a22.67,22.67,0,0,1-3.72,5.55,4.78,4.78,0,0,1-1.17.86,1.17,1.17,0,0,1-.31.41.26.26,0,0,1-.2.1l-.21-.2a10,10,0,0,1-4,1.43,7.94,7.94,0,0,1-6.16-2.29c-2.29-2.3-2.65-3.26-3.82-6.78,0-.25.11-.71,0-1a20.94,20.94,0,0,1-.45-9.72c0-.46-.16-1.17,0-1.53a11.91,11.91,0,0,1,3-5.09c1.07-1.07,5-4.28,6.47-2.8,1.17,1.17.91,5.6.51,6.21-.62,1.12-.56,3-1,4.89-.31.31-.61.51-.92.81-.1.11-.3,2.65-1.58,4.13.82,2.85,2.09,6.26,4.33,8.5,1,1,3.87,1.63,4.94.56,3.87-3.87,4-10.08,5-15a23.27,23.27,0,0,0,.76-3.71c0-.36.41-.62.46-1s-.3-.51-.25-.77a1.2,1.2,0,0,0,.4-.3c.31-.31-.15-1-.15-1.38a1.24,1.24,0,0,0,.41-.3c.3-.31-.61-1.73,0-2.39-.15-.87.15-1.07.2-1.84,0-.46-.2-.91-.15-1.37l.2-1.22a26,26,0,0,0,.51-2.86Zm-16.65,17,.3-.31c.36-.35.41-1.83.46-2.39.1-1.73,1-2.34.25-4.12-.3-.82.05-1-.71-1.74a5.23,5.23,0,0,0-2.8,1.28c-.92.91-.86,4.43-.92,5.8A16.84,16.84,0,0,0,191,69.55a10.57,10.57,0,0,0,1-2.45c.3-.81.86-1.47,1.22-2.24C193.14,64.61,193,64.35,192.94,64.1Z"/><path d="M208.11,52.19c-.46-.46,0-7.49.35-11,.1-1.12-.2-2.14,0-3.26a13.57,13.57,0,0,1-4-2.75c-1.32-1.32-2.29-3.31-2-3.56l-.51-.51c.2-1.43-.57-2.7-.46-3.41,0-.36.4-.62.46-1s-.06-2,1.06-3.11c.11-.1,2.7-2,3.87-1.83,0,.1.06.15.16.25.25.26.76.56.91.72,1.48,1.47.1,3.15.87,3.92.51.51.1,3.56.25,3.71s.31.21.41.31c.26.25-.51,1.73,1.07,3.31,1.22,1.22,1.88.66,2.29,1.07a.71.71,0,0,0,.1.2,8.86,8.86,0,0,1,.87-1A22,22,0,0,1,218.59,31c.62.81,1.28,1.27.77,2.29l.25.25a13.52,13.52,0,0,1,.67,5c.45,1.07.81,2,1.22,3.16a25.83,25.83,0,0,1,1.22,2.75c.05.25-.36.25.2.81,1.12,1.12,1.33,4.18,2.7,5.55.41.41,1.12.92,1.68.36a10.92,10.92,0,0,0,2.7-5.75c.15-1.28,1.27-2.4,1.68-3.62l.51-.51c-.1-.2-.41-.71-.2-.91s.25-.06.35-.16c.31-.3.1-3.56.77-4.73l.2-.41c-.56-.56.2-1.12.31-1.63s-.36-.66-.11-.92a1.36,1.36,0,0,1,.41-.3,18.66,18.66,0,0,1,.46-3.92c.66-.66-.15-3.72.41-4.28s-.21-.81.3-1.32l.15-.16c-.15-.15-.56-.45-.3-.71s.92.21,1.17.36c-.2.3,0,.56,0,.86.1,2.14-.71,4.79-1,6.93-.1.61,0,1.22-.1,1.83-.2,1.43-.76,2.7-.92,4.07-.1.62.16,1.28,0,1.94s-.36,1.37-.46,2c0,.2-.41.61-.51.91-.26.66.05,2-.46,2.5-.1.1-.31.2-.41.3s-.36,1.58-.61,2.14c-1,2.5-1.93,5.3-3.87,7.23a1,1,0,0,1,.05.66l-.81.41a8.39,8.39,0,0,1-5.55.87.17.17,0,0,1,0-.21,5.11,5.11,0,0,1-2-1.22c-.51-.51-1.88-2.19-1.88-2.9,0-1-1.33-2.55-1.68-3.62a11.26,11.26,0,0,1-.51-2.95l-.26-2.7c-.2-1.83.16-3.82-.2-5.6-1.73,1.53-3,1.12-4.84,1.88a3.89,3.89,0,0,1-.15,1.07c-.31,1.73.1,3.47-.1,5l-.66,5.15c0,.1,0,.2,0,.3.4.41-.56,2.39-.62,3.06C208.51,52.19,208.21,52.29,208.11,52.19Zm-2.5-24.8a10.92,10.92,0,0,0,1.58,2.6.47.47,0,0,0,.61.1c-.36-2.6-.15-4.63-1.88-6.87a3.89,3.89,0,0,0-.77.45c-.66.67-.25,2.09.31,2.65.1.1.3.2.41.31C205.81,26.88,205.56,27.14,205.61,27.39Z"/><path d="M256.73,0c0,.71-.92,3.87-.66,4.12l.15,3.62v.41c0,.4-.41.61-.46,1-.46,2.19-.25,4.43-.71,6.62a1.27,1.27,0,0,0-.41.31c-.25.25.15.56.1.92s-.4.61-.45,1,.3.51.25.77c-.15.86-.51,1.73-.61,2.64s0,2.09-.1,3c-.05.35-.66.76-.77,1.17s.11.71,0,1-.61.71-.71,1.22c0,.25.05.76,0,1a22.67,22.67,0,0,1-3.72,5.55,4.85,4.85,0,0,1-1.17.86,1.24,1.24,0,0,1-.3.41.3.3,0,0,1-.21.1l-.2-.2a10.09,10.09,0,0,1-4,1.42,7.93,7.93,0,0,1-6.16-2.29c-2.3-2.29-2.65-3.26-3.82-6.77-.05-.25.1-.71,0-1a20.94,20.94,0,0,1-.46-9.72c.05-.46-.15-1.18,0-1.53a12.11,12.11,0,0,1,3.05-5.09c1.07-1.07,5-4.28,6.47-2.8,1.17,1.17.92,5.6.51,6.21-.61,1.12-.56,3-1,4.89-.3.3-.61.51-.92.81-.1.1-.3,2.65-1.57,4.13.81,2.85,2.08,6.26,4.32,8.5,1,1,3.87,1.63,4.94.56,3.87-3.87,4-10.08,5-15a24.6,24.6,0,0,0,.77-3.72c0-.35.4-.61.46-1s-.31-.5-.26-.76a1.24,1.24,0,0,0,.41-.3c.3-.31-.15-1-.15-1.38a1.2,1.2,0,0,0,.4-.3c.31-.31-.61-1.74.05-2.4-.15-.86.16-1.07.21-1.83.05-.46-.21-.92-.15-1.38l.2-1.22a28.4,28.4,0,0,0,.51-2.85ZM240.08,17l.3-.31c.36-.36.41-1.83.46-2.39.11-1.73,1-2.35.26-4.13-.31-.81.05-1-.72-1.73a5.29,5.29,0,0,0-2.8,1.27c-.91.92-.86,4.43-.91,5.81a17,17,0,0,0,1.42,6.92,10.08,10.08,0,0,0,1-2.44c.31-.81.87-1.48,1.22-2.24C240.28,17.46,240.13,17.21,240.08,17Z"/></g></g></g></svg>