<?xml version="1.0" encoding="utf-8"?>
<!-- Generator: Adobe Illustrator 22.1.0, SVG Export Plug-In . SVG Version: 6.00 Build 0)  -->
<svg version="1.1" id="Layer_1" xmlns="http://www.w3.org/2000/svg" xmlns:xlink="http://www.w3.org/1999/xlink" x="0px" y="0px"
	 viewBox="0 0 60.5 60.5" style="enable-background:new 0 0 60.5 60.5;" xml:space="preserve">
<title>edit</title>
<g>
	<path d="M59.7,11.4C59.7,11.4,59.7,11.4,59.7,11.4L49.1,0.7c-1-1-2.7-1-3.7,0L6.1,40.1c-0.3,0.3-0.5,0.6-0.6,1L0.1,57
		c-0.5,1.4,0.3,2.9,1.7,3.3c0.5,0.2,1.1,0.2,1.6,0L19.4,55c0.4-0.1,0.7-0.4,1-0.6l39.3-39.3C60.8,14.1,60.8,12.4,59.7,11.4z
		 M17.2,50.2l-6.9-6.9l37-37l6.9,6.9L17.2,50.2z"/>
</g>
</svg>
