<svg xmlns="http://www.w3.org/2000/svg" viewBox="0 0 24 13"><defs><style>.cls-1{fill:#00ab94;}</style></defs><title>eyelashes</title><g id="Layer_2" data-name="Layer 2"><g id="Layer_1-2" data-name="Layer 1"><path class="cls-1" d="M23.61,5,22.07,3.85a1,1,0,0,0-1.4.25L17.75,8.66l-1.66,2.6a1,1,0,0,0,.41,1.41l.53.24a1,1,0,0,0,1.13-.23l3.59-4,2-2.23A1,1,0,0,0,23.61,5Z"/><path class="cls-1" d="M6.25,8.66,3.33,4.1a1,1,0,0,0-1.4-.26L.39,5A1,1,0,0,0,.25,6.42l2,2.24,3.59,4A1,1,0,0,0,7,12.91l.53-.24a1,1,0,0,0,.42-1.41Z"/><path class="cls-1" d="M13.18,0H10.82a1,1,0,0,0-1,1.1l1,7.24L11,9.82a1,1,0,0,0,1.92,0l.2-1.48,1-7.24A1,1,0,0,0,13.18,0Z"/></g></g></svg>