<svg xmlns="http://www.w3.org/2000/svg" viewBox="0 0 433.5 121.72"><defs><style>.cls-1{fill:#ffda00;}</style></defs><title>logo</title><g id="Layer_2" data-name="Layer 2"><g id="Layer_1-2" data-name="Layer 1"><path class="cls-1" d="M118.34,44.4h15.11l5.24,18.49L144,44.4h15.11L149.24,73l4.31,12.5L166.47,44.4h17.89l-23.47,60H147.22L138.69,82.9l-8.44,21.45H116.57L93.1,44.4h17.81l13,41.12L128.05,73Z"/><path class="cls-1" d="M203.19,105.19a26.86,26.86,0,0,1-10.51-1.9,22.89,22.89,0,0,1-7.6-5.06,21,21,0,0,1-4.64-7.35,25.26,25.26,0,0,1,0-17.48,21,21,0,0,1,4.64-7.34,22.91,22.91,0,0,1,7.6-5.07,29.91,29.91,0,0,1,21,0,22.68,22.68,0,0,1,7.64,5.07,20.83,20.83,0,0,1,4.64,7.34,25.11,25.11,0,0,1,0,17.48,20.87,20.87,0,0,1-4.64,7.35,22.66,22.66,0,0,1-7.64,5.06A27,27,0,0,1,203.19,105.19Zm-7.85-23a10.36,10.36,0,0,0,2.19,7,7.6,7.6,0,0,0,11.32,0,10.36,10.36,0,0,0,2.19-7,10.34,10.34,0,0,0-2.19-7,7.58,7.58,0,0,0-11.32,0A10.34,10.34,0,0,0,195.34,82.14Z"/><path class="cls-1" d="M230.29,94.89l20.26-24h-19v-11h35.71v9.45l-20.18,24H268v11H230.29Z"/><path class="cls-1" d="M272,94.89l20.26-24h-19v-11H309v9.45l-20.18,24h20.94v11H272Z"/><path class="cls-1" d="M315.9,56.22V42.72h16v13.5Zm0,48.13V59.94h16v44.41Z"/><path class="cls-1" d="M337.6,82.14a24.18,24.18,0,0,1,1.6-8.74,21.39,21.39,0,0,1,4.69-7.34A22.68,22.68,0,0,1,351.53,61,27.16,27.16,0,0,1,362,59.09q8.1,0,13.55,3.38a21.68,21.68,0,0,1,8.14,8.7l-15.61,4.72a7.16,7.16,0,0,0-6.17-3.29,7.27,7.27,0,0,0-5.57,2.49q-2.28,2.49-2.28,7t2.28,7a7.27,7.27,0,0,0,5.57,2.49,7.14,7.14,0,0,0,6.17-3.29l15.61,4.73a21.72,21.72,0,0,1-8.14,8.69q-5.44,3.39-13.55,3.38a27,27,0,0,1-10.47-1.9,22.66,22.66,0,0,1-7.64-5.06,21.43,21.43,0,0,1-4.69-7.35A24.18,24.18,0,0,1,337.6,82.14Z"/><path class="cls-1" d="M401.84,105.19a17.14,17.14,0,0,1-6.16-1.1,15.4,15.4,0,0,1-4.94-3,13.85,13.85,0,0,1-3.25-4.52,13.54,13.54,0,0,1-1.18-5.66,13.22,13.22,0,0,1,1.44-6.16,14.62,14.62,0,0,1,4-4.81,18.49,18.49,0,0,1,6-3.13,25.81,25.81,0,0,1,7.72-1.09,20.71,20.71,0,0,1,8.95,1.69V76.06a5.7,5.7,0,0,0-1.81-4.64q-1.82-1.52-5.87-1.52a19.45,19.45,0,0,0-7,1.23A34.25,34.25,0,0,0,393,74.71l-4.64-10a36.13,36.13,0,0,1,20-5.66q10.63,0,16.37,4.73T430.47,78v8.61a5.42,5.42,0,0,0,.67,3.16,3.22,3.22,0,0,0,2.36,1.06v13.51c-1.29.28-2.51.49-3.67.63a25.82,25.82,0,0,1-3.08.21q-4.31,0-6.54-1.56a7.35,7.35,0,0,1-2.92-4.6L417,97.42a20.34,20.34,0,0,1-6.84,5.79A18,18,0,0,1,401.84,105.19Zm4.82-11.48a10.39,10.39,0,0,0,2.95-.46,10.62,10.62,0,0,0,2.7-1.23,6.7,6.7,0,0,0,1.52-1.48,2.69,2.69,0,0,0,.59-1.64V85.6a24.27,24.27,0,0,0-3.12-.84,16.13,16.13,0,0,0-3-.34,8,8,0,0,0-4.9,1.44,4.35,4.35,0,0,0-1.94,3.63,3.74,3.74,0,0,0,1.48,3A5.81,5.81,0,0,0,406.66,93.71Z"/><path class="cls-1" d="M83.79,86,67.71,45l-22,10.16L23.54,45,7.47,86,0,104.19l45.57,17.53,45.56-17.53ZM45.57,104.19,21.72,92.82l9.14-29.1L46,69.62l14.39-5.9,9.19,29.05Z"/><polygon class="cls-1" points="81.67 15.39 72.32 8.38 55.67 34.39 62.03 37.33 81.67 15.39"/><polygon class="cls-1" points="18.81 8.38 9.46 15.39 29.1 37.34 35.47 34.41 18.81 8.38"/><polygon class="cls-1" points="48.1 30.91 52.3 0 45.65 0 39 0 43.19 30.86 45.61 29.75 48.1 30.91"/></g></g></svg>