<svg xmlns="http://www.w3.org/2000/svg" viewBox="0 0 15.26 15.26"><defs><style>.cls-1{fill:#fff;}</style></defs><title>place-dot</title><g id="Layer_2" data-name="Layer 2"><g id="Layer_1-2" data-name="Layer 1"><path d="M7.63,13.26a5.63,5.63,0,1,1,5.63-5.63A5.64,5.64,0,0,1,7.63,13.26Z"/><path d="M7.63,4A3.63,3.63,0,1,1,4,7.63,3.63,3.63,0,0,1,7.63,4m0-4a7.63,7.63,0,1,0,7.63,7.63A7.64,7.64,0,0,0,7.63,0Z"/><path class="cls-1" d="M7.63,4A3.63,3.63,0,1,1,4,7.63,3.63,3.63,0,0,1,7.63,4m0-2a5.63,5.63,0,1,0,5.63,5.63A5.63,5.63,0,0,0,7.63,2Z"/></g></g></svg>