<svg id="Layer_1" data-name="Layer 1" xmlns="http://www.w3.org/2000/svg" viewBox="0 0 35 35"><defs><style>.cls-1{opacity:0.2;}.cls-2{opacity:0.8;}.cls-3{opacity:0.5;}.cls-4{opacity:0.05;}.cls-5{opacity:0.65;}.cls-6{opacity:0.95;}.cls-7{opacity:0.35;}.cls-8{opacity:0.25;}.cls-9{opacity:0.85;}.cls-10{opacity:0.55;}.cls-11{opacity:0.1;}.cls-12{opacity:0.7;}.cls-13{opacity:0.4;}.cls-14{opacity:0.15;}.cls-15{opacity:0.75;}.cls-16{opacity:0.45;}.cls-17{opacity:0.6;}.cls-18{opacity:0.9;}.cls-19{opacity:0.3;}</style></defs><title>spinnerX</title><rect class="cls-1" x="16.81" width="1.22" height="4.89"/><rect class="cls-2" x="16.81" y="29.95" width="1.22" height="4.89"/><rect x="29.95" y="16.81" width="4.89" height="1.22"/><rect class="cls-3" y="16.81" width="4.89" height="1.22"/><rect class="cls-4" x="25.57" y="6.22" width="4.89" height="1.22" transform="translate(3.37 21.79) rotate(-44.97)"/><rect class="cls-5" x="4.39" y="27.4" width="4.89" height="1.22" transform="translate(-17.81 13.05) rotate(-45.03)"/><rect class="cls-6" x="27.4" y="25.56" width="1.22" height="4.89" transform="translate(-11.6 28.01) rotate(-45)"/><rect class="cls-7" x="6.22" y="4.39" width="1.22" height="4.89" transform="translate(-2.83 6.83) rotate(-45)"/><rect class="cls-8" x="12.93" y="0.51" width="1.22" height="4.89" transform="translate(-0.3 3.61) rotate(-15)"/><rect class="cls-9" x="20.69" y="29.44" width="1.22" height="4.89" transform="translate(-7.53 6.6) rotate(-15)"/><rect x="29.44" y="12.93" width="4.89" height="1.22" transform="translate(-2.42 8.72) rotate(-15)"/><rect class="cls-10" x="0.51" y="20.69" width="4.89" height="1.22" transform="translate(-5.41 1.49) rotate(-15)"/><rect class="cls-11" x="22.46" y="3.84" width="4.89" height="1.22" transform="translate(8.6 23.8) rotate(-59.99)"/><rect class="cls-12" x="7.49" y="29.78" width="4.89" height="1.22" transform="translate(-21.35 23.79) rotate(-59.99)"/><rect x="29.78" y="22.46" width="1.22" height="4.89" transform="translate(-6.38 38.77) rotate(-60)"/><rect class="cls-13" x="3.84" y="7.49" width="1.22" height="4.89" transform="translate(-6.38 8.82) rotate(-60)"/><rect class="cls-14" x="18.85" y="2.34" width="4.89" height="1.22" transform="translate(12.93 22.76) rotate(-75.01)"/><rect class="cls-15" x="11.1" y="31.27" width="4.89" height="1.22" transform="translate(-20.76 36.72) rotate(-75.01)"/><rect x="31.28" y="18.85" width="1.22" height="4.89" transform="translate(3.06 46.58) rotate(-75)"/><rect class="cls-16" x="2.34" y="11.1" width="1.22" height="4.89" transform="translate(-10.89 12.89) rotate(-75)"/><rect x="27.94" y="9.32" width="4.89" height="1.22" transform="translate(-0.89 16.53) rotate(-30.01)"/><rect class="cls-17" x="2.01" y="24.3" width="4.89" height="1.22" transform="translate(-11.86 5.56) rotate(-30.01)"/><rect class="cls-18" x="24.3" y="27.94" width="1.22" height="4.89" transform="translate(-11.86 16.52) rotate(-29.99)"/><rect class="cls-19" x="9.32" y="2.01" width="1.22" height="4.89" transform="translate(-0.9 5.56) rotate(-29.99)"/></svg>