<svg xmlns="http://www.w3.org/2000/svg" viewBox="0 0 157.64 217.6"><defs><style>.cls-1{fill:#27ffab;}.cls-2{fill:#9cb2a9;}.cls-3{fill:#fff;}.cls-4{fill:#ff1a6d;}.cls-5{fill:#231f20;}</style></defs><title>svg-me</title><g id="Layer_2" data-name="Layer 2"><g id="Layer_4" data-name="Layer 4"><path class="cls-1" d="M138.62,111.14c36.44,45.37-9.25,109.94-60.75,99-24.46-5.23-43.46-28.62-45.81-53.61-2.42-25.84,11.31-50.31,33.13-61.54,23.7-12.2,54.07-6.89,72.73,14.7A3.14,3.14,0,0,0,138.62,111.14Z"/><g id="_Group_" data-name="&lt;Group&gt;"><path class="cls-2" d="M113.7,204.5c.09,2.79.08,3.42-2.47,5.1s-2.14,1.39-5.12,1.27a37.48,37.48,0,0,0-7.54.72,56.24,56.24,0,0,1-21.4-.54c-4.12-.92-9.52-2.39-9.28-7.51.15-3.22.31-6.45.46-9.68q.34-7.34.68-14.68c.41-.5.32-.92.63-1.87a1.42,1.42,0,0,0-.47-1.5c0-1,.09-2,.14-3,1.26-.29,3.11-.61,5.79-1,1.33-.18,3,.45,4.36.57,5.79.5,11.43-.82,17.13-1.54,3.47-.44,8.79-1.41,12,.41,3.4,1.93,2.9,10.07,3.22,13.41C112.44,191.26,113.5,197.91,113.7,204.5Z"/><path d="M115.16,188.18q.63,6.49,1.25,13c.26,2.72.69,5.64-.24,8.28-1.42,4.07-5,4.69-8.84,4.5-6.77-.33-13.38,1.64-20.21,1.4-6.14-.22-13.14-1.23-18.73-3.9s-3.4-9.75-3.16-14.92q.39-8.76.82-17.5a1.27,1.27,0,0,1,0-1.17q.15-3.1.29-6.21a1.33,1.33,0,0,1,2-1.08,8.2,8.2,0,0,1,5.26-1.79c4.4-.1,8.6,1,13.06.5,4-.43,8-1.3,12-1.66,4.19-.37,10.55-.89,13.56,2.71,1.45,1.74,1.54,4.08,1.76,6.22C114.43,180.43,114.79,184.31,115.16,188.18Zm-38,22.87a56.24,56.24,0,0,0,21.4.54,37.48,37.48,0,0,1,7.54-.72c3,.12,2.52.44,5.12-1.27s2.56-2.31,2.47-5.1c-.2-6.59-1.26-13.24-1.88-19.8-.32-3.34.18-11.48-3.22-13.41-3.2-1.82-8.52-.85-12-.41-5.7.72-11.34,2-17.13,1.54-1.33-.12-3-.75-4.36-.57-2.68.37-4.53.69-5.79,1,0,1-.1,2-.14,3a1.42,1.42,0,0,1,.47,1.5c-.31.95-.22,1.37-.63,1.87q-.33,7.35-.68,14.68c-.15,3.23-.31,6.46-.46,9.68C67.65,208.66,73.05,210.13,77.17,211.05Z"/></g><path d="M139.43,195.18c-16.6,18.21-43.85,27.67-68.71,19.4C42.37,205.14,24,174.87,25.77,145.66c1.71-27.48,19.63-51,44.54-59.91,25.88-9.24,56.45-.56,74.52,22.76a3.39,3.39,0,0,1,.71,1.77C164.81,137.12,159.81,172.81,139.43,195.18ZM77.87,210.09c51.5,11,97.19-53.58,60.75-98.95a3.14,3.14,0,0,1-.7-1.5c-18.66-21.59-49-26.9-72.73-14.7-21.82,11.23-35.55,35.7-33.13,61.54C34.41,181.47,53.41,204.86,77.87,210.09Z"/><g id="_Group_2" data-name="&lt;Group&gt;"><path class="cls-1" d="M116.32,135.16c-.75-.47-1.53-.91-2.31-1.34s-1.44-.81-2.19-1.28c-2.13-1.18-4.32-2.52-7.11-4.33l-2.27-1.48.77,2.6c0,.06,0,.13.08.23l.06.21.15.16a.38.38,0,0,1,.12.17c1.55,4.77,7.28,6.7,12.12,6.9l3.78.17Z"/><path class="cls-3" d="M126.52,114.09c-9.54-2.81-17-3.07-22.26-.79l-.6.26v.65a27.82,27.82,0,0,0,1,7.91l.1.39a12.21,12.21,0,0,0,1.92,4.43,12.78,12.78,0,0,0,2.46,2.35l.37.3a21.63,21.63,0,0,0,3.19,1.79,7.41,7.41,0,0,0,3,.75l.67,0,.7,0a7.43,7.43,0,0,0,4-1.21l.09-.06c1.7-.92,2.13-2.28,2.72-4.17.88-2.83,1.68-5.73,2.46-8.53l.81-2.91.27-.95Z"/><path class="cls-4" d="M103.85,141.61c-.14-.64-.27-1.21-.36-1.68a101.2,101.2,0,0,0-3.57-14.25c-1.09-3.18-4.28-8.48-8.15-9.15-1.34-.23-3.35,0-5.26,2.39l-.22.28a18.81,18.81,0,0,0-.93,2c-1.49,3.7-1.83,7.8-2.16,11.75-.09,1-.17,2-.27,2.93-.33,3.22-.67,6.44-1,9.74-.21,1.89-.62,6.56,0,9.17L82,155l.19.2c1.11,1.15,4.18,1.49,7.36,1.49a72.2,72.2,0,0,0,7.22-.43,32.27,32.27,0,0,0,4.72-.79C106.57,153.68,104.87,146.13,103.85,141.61Z"/><path class="cls-3" d="M79,114.83c-10.09-2.88-17.78-3.24-25.7-1.22l-.94.24.21.94c.07.31.16.77.27,1.33,1.53,7.75,3.39,15,6.58,15.93l.16,0a2.46,2.46,0,0,0,.56,0,3.73,3.73,0,0,0,.92.29l.48.07.19,0a5.62,5.62,0,0,0,.55.15l.06.08.4.08a22.68,22.68,0,0,0,4.34.49c2.89,0,5.84-.83,7.68-3.83,2.14-3.51,3.4-8,4.51-11.94l.69-2.43Z"/><path class="cls-1" d="M84.51,120a1,1,0,0,0-.55-.54l-1.46-.58-1.4-.55a1,1,0,0,0-.8,0,1,1,0,0,0-.53.6c-.79,2.47-1.58,4.69-2.4,6.8-.18.44-.35.91-.53,1.4-.79,2.16-1.69,4.61-3.26,5.88-3.45,2.76-10.6,1-14,.11l-.12,0a5,5,0,0,1-3.73-2.88c-1.62-3.11-2.42-7.06-3.19-10.88-.33-1.62-.64-3.16-1-4.7,0,0,0-.07,0-.12a1,1,0,0,0-.29-.61.67.67,0,0,1-.2-.57s0-.12.23-.19A41.71,41.71,0,0,1,61,111.47a1,1,0,0,0,.3-1.93c-2-.74-3.86-1.35-5.66-1.86a.35.35,0,0,1-.16-.08,1,1,0,0,0-.55-.17l-.76,0-1.54,0c-2.58-.07-5.19-.17-7.77-.3a.65.65,0,0,1-.23-.06,1,1,0,0,0-.41-.09,6.37,6.37,0,0,0-3,.44,1,1,0,0,0-.5,1.17.85.85,0,0,0,.15.3.93.93,0,0,0,.06.37,3.46,3.46,0,0,1,.16.62c0,.14,0,.28.08.42.08.31.15.61.22.92.15.67.3,1.34.48,2a1,1,0,0,0,1,.72l1.95-.15a.5.5,0,0,1,.34.08,1,1,0,0,0,.88.15.54.54,0,0,1,.42,0s.11.06.15.26a109.49,109.49,0,0,0,3.08,11.06c.2.58.41,1.27.63,2l.3,1c.86,2.7,1.87,5.41,3.49,7a.44.44,0,0,1,.15.25,1,1,0,0,0,.6.71,38.53,38.53,0,0,0,13.3,2.94q.48,0,1,0a13.2,13.2,0,0,0,6.14-1.62c2-1.19,3.23-3.92,4.19-6.1.24-.55.47-1.07.69-1.54,1.15-2.35,2.3-4.72,3.45-7.09a.72.72,0,0,0,.09-.2h0c.18-.55.4-1.13.7-1.86A1,1,0,0,0,84.51,120Z"/><path class="cls-2" d="M152.94,128.29c-.73-2.46-2.09-4-4-4.57-4.85-1.41-12,4-15.86,7.3l-.52.34v.52c-.05,1.77-.11,3.54-.19,5.3l-.17,3.61,2-3c2.13-3.21,4.69-6.76,8.2-8.2,1.78-.73,3.24-.7,4.36.09,1.53,1.09,2.42,3.7,2.27,6.62,0,.05,0,.1,0,.16-.09.35-.5.36-.65.34a.34.34,0,0,1-.34-.4c0-.16,0-.34,0-.52a6.48,6.48,0,0,0-.12-2.55c-.54-1.52-2.56-2.5-4.19-2.64l-1.76-.16.78,1.59a9.6,9.6,0,0,1-.73,9.6c-.05.06-.09.12-.27.09a.82.82,0,0,1-.59-.46.16.16,0,0,1,0-.15,8.48,8.48,0,0,0,.54-8.85l-.59-1.12-1,.83a18.6,18.6,0,0,0-2.28,2.53l-.22.27c-1.11,1.39-2.15,2.86-3,4.1l-1,1.4,1.7.17a.69.69,0,0,1,.45.22,3.52,3.52,0,0,1,.78,1.41c.4,1.61-.42,3.56-1.08,4.89l-.22.45.22.44a7.91,7.91,0,0,1,.82,3.14,7.22,7.22,0,0,1-.84,3.74.54.54,0,0,1-.37.31h-.76a.52.52,0,0,1-.53-.55c0-.27.09-.42.29-.44l.64-.06.21-.61a6.46,6.46,0,0,0-1.66-6.8l-1.55-1.47-.13,2.13c0,.65-.07,1.36-.1,2.11-.16,3.62-.35,8.13-1.94,11.06l-.22.4.16.43a.48.48,0,0,1,0,.18,2.93,2.93,0,0,0,1.25,2.29,5.5,5.5,0,0,0,3.13,1.26,1.94,1.94,0,0,0,.49-.05,7.86,7.86,0,0,0,4.09-3.07c1.77-2.82,1.21-6.82.53-10a.66.66,0,0,1,0-.28l.07-.28-.09-.27a.49.49,0,0,1,0-.12s0-.09.17-.17a28.61,28.61,0,0,0,7.23-5.7l1.1-1.07a21,21,0,0,0,5-6.88A13,13,0,0,0,152.94,128.29Z"/><path class="cls-2" d="M51.72,105.38v1l1,0c6,.15,12.07.13,18.14-.09h0c5-.18,10.27-.38,13.58,3.48l.51.6.71-.37a12.1,12.1,0,0,1,10.64-.3l.9.42.42-.9c1.84-3.93,6.79-3.86,11.17-3.81l1.38,0c3.32,0,6.84.06,10.76.16l1.12,0-.1-1.11A130.83,130.83,0,0,0,117.67,81l-.2-.73h-.76A238.67,238.67,0,0,1,92.38,79l-.78-.08-.26.73A34,34,0,0,1,88,86.36a.66.66,0,0,1-.57.26.29.29,0,0,1-.28-.17,18.78,18.78,0,0,0-5.21-6.75l-.31-.25-.4,0H81a72.6,72.6,0,0,0-18.66-1.09,37.53,37.53,0,0,1-6.53-.31L55.24,78l-.34.49a.93.93,0,0,0-.13.27,34.56,34.56,0,0,0-2.93,12.94c-.15,2.21-.16,4.43-.16,6.11,0,1.19,0,2.37,0,3.54C51.71,102.73,51.72,104.07,51.72,105.38Z"/><path class="cls-2" d="M126.91,162.64c-1.9-5.63-1.8-12.36-1.7-18.87,0-2.12.06-4.12,0-6.08l0-1.46-1.35.55c-4.73,1.91-12.55,1.9-17.44-1.43l-.42-.28-.47.16a.86.86,0,0,1-.35,0l-1.37-.2.24,1.36c.43,2.47.77,4.88,1.1,7.21l.23,1.59c.6,4.17.69,7.35-.84,9.27-1,1.31-2.9,2.07-5.69,2.3l-2,.21-1.72.21a47.12,47.12,0,0,1-9.37.56l-.23,0-.22.08a3.39,3.39,0,0,1-4.21-1.35c-1.43-2.05-.94-5.32-.5-8.2.12-.78.23-1.51.3-2.18.22-2.13.35-4.33.49-6.65.1-1.65.2-3.32.33-5l.36-4.42-2.22,3.84c-1.61,2.78-3.32,4.47-5.23,5.19a17.46,17.46,0,0,1-5.32,1c-6.13.28-12.35-1.94-15.51-3.29-.21-.08-.2-.15-.19-.23l.08-.43-2.23-2.94v3a169.69,169.69,0,0,0,1.64,24.59.46.46,0,0,1-.25.48l-.5.29v.58a42.4,42.4,0,0,0,1,9.12c1.27,5.6,3.64,10.23,6.84,13.39l.16.15.21.08a.32.32,0,0,1,.14.08L62,186c7.92,6.61,22.67,18.92,32.47,11.08a.49.49,0,0,1,.47-.1l.14,0a.45.45,0,0,1,.23.11l.64.55a13.86,13.86,0,0,0,4.84,3.09,8.32,8.32,0,0,0,2.3.34c2.9,0,4.7-1.86,6.45-3.67.3-.3.6-.62.91-.92l.29-.29c3-3,6.19-6.11,9.15-9.3,3.63-3.91,7.06-8.32,7.46-14.13.05-.78.08-1.58.08-2.43,0-.53,0-1.06,0-1.58a34.89,34.89,0,0,1,.18-5l.09-.72-.65-.31A.35.35,0,0,1,126.91,162.64Z"/><path class="cls-2" d="M51.36,160.52v-.35l-.2-.27A20.74,20.74,0,0,1,49,156.24l-.45-1-.25-.65A31.71,31.71,0,0,1,47,150.55l-.25-1-1,.32a1,1,0,0,1-.21,0H45l-.3.37a4.9,4.9,0,0,0-1,1.9,4.26,4.26,0,0,0-.1.74,3.1,3.1,0,0,0,1,2.37,2.31,2.31,0,0,0,1.91.56h0a.46.46,0,0,1,.31.05l.32.19-.08.43c0,.2-.13.28-.34.32a3.6,3.6,0,0,1-3.9-2.51s0-.1-.05-.16l0-.09a4.14,4.14,0,0,1,0-2l.18-.77-.71-.36a1.62,1.62,0,0,1-.29-.19c-1.68-1.55-1.89-4.21-1.34-6.16a6.5,6.5,0,0,1,.78-1.77.55.55,0,0,1,.46-.27l1.53-.1-.71-1.35a44.47,44.47,0,0,0-4.22-6.64l-.65-.86-.81.72a4.81,4.81,0,0,0-1.52,4.34,14,14,0,0,0,1.67,4.64.54.54,0,0,1,0,.49.76.76,0,0,1-.55.42s-.12,0-.21-.18a18.5,18.5,0,0,1-1.57-3.9,7.58,7.58,0,0,1-.27-1.34c-.34-2.34.26-4.06,1.83-5.27l.8-.62-.63-.8a7.92,7.92,0,0,0-1.46-1.49,4.11,4.11,0,0,0-4.63-.44,3.9,3.9,0,0,0-1.65,4c0,.3.09.6.16.91a14.49,14.49,0,0,0,2.56,5.64.35.35,0,0,1,.09.16c0,.08-.11.22-.3.3a.65.65,0,0,1-.8-.19,16.31,16.31,0,0,1-2.31-5.78,13.48,13.48,0,0,1-.32-4.12,4,4,0,0,1,1.31-2.89,4,4,0,0,1,3.13-.42c3.06.55,5.64,4.2,7.52,6.85l.39.55a45.82,45.82,0,0,1,3.3,5.47L46,145.38l-.54-5.28c-.34-3.37-.64-6.93-.9-10.9l-.05-.36-.55-.65c-2.69-3.17-6-7.12-10.59-7.57-5.57-.55-9.3,3.22-10,10.08a19.63,19.63,0,0,0,.09,4.73c1.34,9.19,8.88,14.14,16.48,18.43.17.09.16.14.15.18l-.1.56.43.37a.24.24,0,0,1,.05.1l0,.12c.29,2.24,2.65,8.82,6.26,10.4a3.78,3.78,0,0,0,3.9-.44l.18-.09.7-.26-.06-.75A33.83,33.83,0,0,1,51.36,160.52Z"/><path class="cls-4" d="M137,49.51a2,2,0,0,0-1.72-1,2.07,2.07,0,0,0-.5.06,16.32,16.32,0,0,0-3.21,1.19,2,2,0,0,0-.6.46l-.05,0c-1.59-4.15-4.14-9.24-8.6-13a24,24,0,0,0-5.67-3.42,2.07,2.07,0,0,0-.4-.13,1.65,1.65,0,0,0-.37-.2c-.77-.33-1.55-.65-2.33-1-1-.41-2.05-.85-3.06-1.3a2.27,2.27,0,0,0,.44-.38,2,2,0,0,0,.09-2.45c-.52-.72-1-1.39-1.33-2a29.05,29.05,0,0,1-1.62-3.26c-.08-.2-.19-.64-.28-1l-.07-.3a2,2,0,0,0-1.94-1.51h-.09A2,2,0,0,0,103.79,22c0,.2-.19,1.21-.21,1.6a9.6,9.6,0,0,0,.06,1.7,10.53,10.53,0,0,0,.63,2.42,29.17,29.17,0,0,1-5.57-5,24.31,24.31,0,0,1-2.46-3.5,2,2,0,0,0-3.72.78,16.38,16.38,0,0,0,.79,7.16c-5-4.73-10.11-5.74-16.18-5.74h-.32a1.09,1.09,0,0,0,.14-.23A2,2,0,0,0,76.52,19a13.33,13.33,0,0,1-1.24-1.45,16.3,16.3,0,0,1-1.69-2.86,2,2,0,0,0-1.81-1.16,2.18,2.18,0,0,0-.44,0,2,2,0,0,0-1.56,2,9.72,9.72,0,0,0,2,5.82A15.64,15.64,0,0,1,65,19.59a17.29,17.29,0,0,1-3.28-2.35A21.15,21.15,0,0,1,55,4.25a2,2,0,0,0-1.41-1.7A1.87,1.87,0,0,0,53,2.47a2,2,0,0,0-1.54.71A14,14,0,0,0,48,14.41a18.67,18.67,0,0,0,1.37,6.08,9.9,9.9,0,0,0,1.18,1.92l-.1,0c-1-.22-1.93-.43-2.84-.71a28.75,28.75,0,0,1-7.36-3.46A29.12,29.12,0,0,1,31.4,9a2,2,0,0,0-1.7-1,1.75,1.75,0,0,0-.4,0A2,2,0,0,0,27.72,9.7c-.15,1-.25,1.87-.32,2.65-.56,6.82.89,12,4.21,15.12a1.45,1.45,0,0,0,0,.36l-.07,0q-.36-.18-.72-.39a16.84,16.84,0,0,1-4.58-3.93,2,2,0,0,0-1.55-.73,2.08,2.08,0,0,0-.9.21,2,2,0,0,0-1,2.29A21.79,21.79,0,0,0,24.4,29.5c-2.4-.21-4.88-1.75-6.78-3.09a2,2,0,0,0-1.15-.36A2,2,0,0,0,14.71,29a9.45,9.45,0,0,0,1.85,2.45A21.16,21.16,0,0,0,20,33.94c.65.41,1.27.79,1.83,1.21l.18.09a6.64,6.64,0,0,1-2.11.51h-.22a7.41,7.41,0,0,1-.9-.06H18.5a2,2,0,0,0-1.28,3.53A26,26,0,0,0,21.35,42,31.83,31.83,0,0,0,12,40.59a32.44,32.44,0,0,0-3.68.22A2,2,0,0,0,8,44.72l.87.26L9,45a39.88,39.88,0,0,1,3.84,1.33l.56.23a10.36,10.36,0,0,1,2,1,12.31,12.31,0,0,1,2.13,2.18c1.33,1.6,3,3.57,5.54,4.13a6,6,0,0,0,1.11.5l.1,0-1.15.48A18.93,18.93,0,0,1,20,56a6.79,6.79,0,0,1-1.35.13,8.79,8.79,0,0,1-2.13-.28,2,2,0,0,0-.48-.06,2,2,0,0,0-1.69,3.07,20.38,20.38,0,0,0,4.88,5.7,8.71,8.71,0,0,0,5.29,1.67,21.83,21.83,0,0,0,4.66-.67A21.11,21.11,0,0,1,32.6,65c-.14.32-.26.65-.37,1a8.47,8.47,0,0,0,3.55,9.75,2,2,0,0,0,1.13.35,2,2,0,0,0,1.85-2.75c-1-2.43-.67-5.58,1.82-6.64a3,3,0,0,1,1.21-.29c1.94,0,3.33,3.2,4,6.19a23.14,23.14,0,0,1,.46,3.19,2,2,0,0,0,2,1.87h.1l.92,0,.92,0h.05c1.71,0,3.4.19,5.2.35s3.87.36,5.86.39h.61c.53,0,1.09,0,1.72,0,1.33-.08,2.67-.12,4-.12a72.81,72.81,0,0,1,13.3,1.27,2.21,2.21,0,0,0,.37,0,2.45,2.45,0,0,0,.38,0,18.48,18.48,0,0,1,4.23,4.69,2,2,0,0,0,1.7.94h.06a2,2,0,0,0,1.69-1,36.64,36.64,0,0,0,2.39-5.43,1.84,1.84,0,0,0,1,.39c5.72.6,11.62,1,17.53,1.17h.07a2,2,0,0,0,1.43-.61l0,0a2,2,0,0,0,1.5.72l4.48,0c2.24,0,4.46,0,6.59-.09,1.89,0,3.54-.11,5-.19a2,2,0,0,0,1.44-.71,2,2,0,0,0,.45-1.55,62.72,62.72,0,0,1-.59-7.41c-.09-5.72.86-10.34,2.91-14.12a2.23,2.23,0,0,0,.19-.51,14,14,0,0,1,1.64-2.32l.06-.07a18.19,18.19,0,0,1,1.2-1.41A2,2,0,0,0,137,49.51Z"/><path class="cls-5" d="M103,46.81a6.85,6.85,0,0,0,1.17.54c1.83.63,2.66-2.26.84-2.88s-3.46-3.54-4.24-5.17a11.07,11.07,0,0,1-1.06-4,31.2,31.2,0,0,0,6.55,8c1.45,1.27,3.53-.9,2.07-2.18a28.23,28.23,0,0,1-8-11.44c-.41-1.09-2.32-1.46-2.76-.15a14.34,14.34,0,0,0-.16,9.65C98.35,41.83,100.33,45.26,103,46.81Z"/><path class="cls-5" d="M93.75,54.12a1.66,1.66,0,0,0-1.6,2.21,13.14,13.14,0,0,1,.43,7.77c-.44,1.88,2.51,2.42,3,.54a15.73,15.73,0,0,0,.41-4.19c2.28,3.41,4,7.07,3.91,11.39a1.5,1.5,0,0,0,3,.07c.19-6.74-3.49-12.11-7.4-17.27A1.67,1.67,0,0,0,93.75,54.12Z"/><path class="cls-5" d="M112.69,58.84A31,31,0,0,0,108.2,53a39.27,39.27,0,0,0-6.14-4.84c-1.31-.89-2.65-1.75-4-2.66-5-3.51-8.67-7.83-10.49-13.74a1.51,1.51,0,0,0-2.9-.11,16,16,0,0,0,2.4,16.5A18.64,18.64,0,0,0,89,50.06c1.43,1.3,3.22-1.12,1.79-2.41a12.79,12.79,0,0,1-4.25-10.87C89.7,43,94.84,46.76,101,51c8.62,5.93,11.94,14.6,15.54,24,.69,1.8,3.42.55,2.72-1.25C117.3,68.69,115.47,63.47,112.69,58.84Z"/><path d="M154.86,127.69c-3.34-11.3-14.72-4.89-21.26.29.05-3.37.07-6.75.09-10.12a1.49,1.49,0,0,0-.16-.69c.25-1.25.49-2.51.71-3.76,1.33-.15,2.67-.5,3.2-1.71a7,7,0,0,0-.28-5.53,1.4,1.4,0,0,0-1-.82,1.45,1.45,0,0,0-.87-.3l-1.23,0a123.81,123.81,0,0,0-2-25.49,1.42,1.42,0,0,0,.32-1.17c0-.24-.07-.49-.1-.73-1.12-8.25-1.17-16.78,3.66-23.25a13.71,13.71,0,0,1,2.06-2,1.41,1.41,0,0,0,.51-.76,23,23,0,0,1,1.84-1.5,1.37,1.37,0,0,0,.36-1.92,1.23,1.23,0,0,0-1.24-1,17,17,0,0,0-8.1,1.63c-2.52-6.07-6.29-11.72-12.23-14.88-1.25-.67-2.53-1.23-3.82-1.77a1.65,1.65,0,0,0-.38-.62,26.5,26.5,0,0,1-6.1-9,7.72,7.72,0,0,1-.28-.91c-.38-1.49-.79-3.6-2.2-4-2.14-.55-3.08,2.34-3.46,3.85a10.54,10.54,0,0,0-.24,3.86,26.62,26.62,0,0,1-3.19-3.18,23.34,23.34,0,0,1-3.87-6.51,1.56,1.56,0,0,0-.18-.34,1.59,1.59,0,0,0-2.85.16,17.51,17.51,0,0,0-1,9,18.8,18.8,0,0,0-10.68-3.88,1.38,1.38,0,0,0-.56-.26,7.64,7.64,0,0,1-4.09-3,18.05,18.05,0,0,1-3.12-7,1.52,1.52,0,0,0-2.73-.53A10.81,10.81,0,0,0,69.82,20a14.27,14.27,0,0,1-8.14-4.31A19.75,19.75,0,0,1,55.88,3a1.45,1.45,0,0,0,0-.37c0-.39,0-.77,0-1.16A1.51,1.51,0,0,0,53.37.37a1.52,1.52,0,0,0-1.13.47C48.67,4.43,46.6,7.68,46.9,12.89a22.37,22.37,0,0,0,1.57,7.9A25.35,25.35,0,0,1,44,19.18,28.43,28.43,0,0,1,30.59,5.34,1.56,1.56,0,0,0,28,5.05a1.32,1.32,0,0,0-.52.82,43.71,43.71,0,0,0-1,6.41,24.88,24.88,0,0,0,1.33,11.34,16.41,16.41,0,0,1-3.35-4.94,1.58,1.58,0,0,0-3,.2A1.44,1.44,0,0,0,21,20a23,23,0,0,0,1.61,8.09c-3-1.08-6.13-3.72-8.37-5.34-1.42-1-3.19.8-2.27,2l0,.14a17.89,17.89,0,0,0,3,6.42,18.33,18.33,0,0,0,4.54,3.49,6.74,6.74,0,0,1-.77,0,15.89,15.89,0,0,1-4.51-1.62,1.28,1.28,0,0,0-1.36.11,1.36,1.36,0,0,0-.72,2.16,37.66,37.66,0,0,0,4.08,4.52,31.73,31.73,0,0,0-8-.06A33.78,33.78,0,0,0,1,41.48,1.49,1.49,0,0,0,.47,44a1.16,1.16,0,0,0,1.05.66A35,35,0,0,1,8.7,45.85a17.67,17.67,0,0,1,8.07,4.49c1.59,1.72,2.85,3.28,4.75,4.09-2.83.91-5,.56-7.84-.71a1.45,1.45,0,0,0-.44-.12c-1.17-1.24-3.29.52-2.21,2,2.67,3.69,4.69,8.11,8.76,10.51s7.35.67,11.33,0a9.51,9.51,0,0,0-.27,3.4c.49,5.13,5.06,8.43,9.88,9a1.31,1.31,0,0,0,1.51-1.3,1.71,1.71,0,0,0,.14-.67,1.37,1.37,0,0,0-.8-1.27,4.63,4.63,0,0,1-2.25-4.93c.2-1.69,1.2-3.38,3-2.46,1.42.73,2.18,2.54,2.57,4.46a22.12,22.12,0,0,1,.38,4.22v.39a1.53,1.53,0,0,0,.1.54A29.48,29.48,0,0,0,42.7,89.17c-.28,4.73-1.6,11.23-.53,15.89a6.27,6.27,0,0,0-2.12.59,2.51,2.51,0,0,0-1.19,2.95c0,.32.11.64.19,1,.4,1.64.53,4,1.44,5.4a2.53,2.53,0,0,0,2.4,1c0,1.25.09,2.49.15,3.74.07,1.61.14,3.22.22,4.82-3.6-3.73-8.08-7-13.49-5.7-4.58,1.09-7.16,5.35-8.1,9.69-2.75,12.85,6.78,21.2,16.87,26.86a1.93,1.93,0,0,0,0,.34c.65,5.12,6.11,14.66,12.3,11.66.22,1.42.49,2.83.8,4.24.4,1.81.85,3.61,1.32,5.38,1.21,4.58,3,6.5,6.47,9.69a1.4,1.4,0,0,0,.72.36c6.55,5.39,13.76,10.69,21.51,14.19,5.08,2.29,9,1.1,13.16-1.9,3.08,2.5,6.88,5,10.94,3.53,5-1.77,9.33-8.09,12.86-11.7s7-7.09,9.08-11.61c1.38-3,1.49-6.06,1.52-9.13,0-1.75,0-3.51.21-5.29.49.42,1,.82,1.55,1.2,2.05,1.53,3.65,1,5.75-.23,5.13-3,5.46-8.62,4.4-14,4.34-2.36,8.69-6.75,11.7-10.51S156.23,132.34,154.86,127.69ZM105.58,23.74c0-.17.09-.77.19-1.41a11.64,11.64,0,0,0,.45,1.58A31,31,0,0,0,108,27.42c.44.75.92,1.47,1.43,2.18a28.9,28.9,0,0,1-2.79-1.5,1.34,1.34,0,0,0-.07-.18,8.92,8.92,0,0,1-.9-2.82A8.7,8.7,0,0,1,105.58,23.74Zm-31.9-5a15.33,15.33,0,0,0,1.43,1.67h-.66l-.9,0a7.72,7.72,0,0,1-1.77-4.87A18.28,18.28,0,0,0,73.68,18.74ZM17.94,30a7.74,7.74,0,0,1-1.47-2c2.46,1.73,5.16,3.27,7.9,3.46.27.43.54.86.84,1.27a7.62,7.62,0,0,0-1,.24,8.13,8.13,0,0,0-1.22.52C21.34,32.33,19.42,31.41,17.94,30Zm2,7.74c3-.13,5-2.31,8-1.9a21.33,21.33,0,0,0,3.7,2.83,22.1,22.1,0,0,0,8,3c1.89.31,2.67-2.58.76-2.9a19.94,19.94,0,0,1-8.76-3.68L31.49,35a5,5,0,0,1-1.62-1.49l-.25-.35-.25-.08a18.85,18.85,0,0,1-4.65-8.33,18.92,18.92,0,0,0,5.14,4.41l1,.52a2,2,0,0,1,.78.37c4.65,2.14,9.86,2.82,13.53,6.81a1.54,1.54,0,0,0,2.64-1.25,1.45,1.45,0,0,0-.37-.7c-2.92-3.19-6.61-4.64-10.63-6.08-1.1-.39-2.16-.81-3.16-1.28a1.25,1.25,0,0,0-.43-1.35c-3.55-3.1-4.2-8.63-3.78-13.68.07-.86.18-1.71.3-2.53a31,31,0,0,0,9.48,9.9,31,31,0,0,0,7.87,3.7c3.4,1,7,1.2,9.91,3.43a1.6,1.6,0,0,0,1.95,0,29.29,29.29,0,0,0,2.46,4.76,18.67,18.67,0,0,0,1.91,2.49,26.16,26.16,0,0,1-5.89-3.82,1.28,1.28,0,0,0-.36-.29l-.09-.07a1.5,1.5,0,0,0-2,2.27h0A21.65,21.65,0,0,0,56.06,35a17.2,17.2,0,0,1-3.31-4.93c0-.11,0-.22,0-.33.13-1.93-2.87-1.72-3,.18a33.64,33.64,0,0,0,.08,5.41,31.21,31.21,0,0,0,3.59,11.68c-3.33-1.17-7-1.51-10.52-2.1-4.32-.72-8.42-1.8-11.41-5.21a1.8,1.8,0,0,0-.37-.32,1.52,1.52,0,0,0-2.09.76,1.24,1.24,0,0,0-.29,1.6,34.7,34.7,0,0,0,2.29,3.86,19.86,19.86,0,0,0-6.64-4.32,25.35,25.35,0,0,1-5.9-3.64A8.75,8.75,0,0,0,20,37.75Zm21.68,70.53h-.09l.15,0Zm8.44,56.05c-4.32,3.07-8.22-6.3-8.6-9.26a1.18,1.18,0,0,0-.06-.27,1.22,1.22,0,0,0-.36-.58,1.13,1.13,0,0,0-.65-1.23c-7.2-4.06-14.67-8.77-16-17.7a18.92,18.92,0,0,1-.08-4.48c.48-4.8,2.86-9.79,8.9-9.19,4.34.43,7.66,4.56,10.26,7.62l0,0c.24,3.65.53,7.3.9,10.94a45.57,45.57,0,0,0-3.37-5.59c-2-2.82-4.85-7.14-8.55-7.81s-5.31,1.36-5.61,4.19a14.51,14.51,0,0,0,.34,4.44,17.13,17.13,0,0,0,2.49,6.17c1,1.33,3.1.4,2.88-.88a1.35,1.35,0,0,0-.27-.59A13.44,13.44,0,0,1,30,134.88q-.09-.42-.15-.84c-.4-2.59,1.92-4.56,4.72-2.61a6.7,6.7,0,0,1,1.25,1.29,6.24,6.24,0,0,0-2.21,6.21,9.59,9.59,0,0,0,.3,1.47,19.77,19.77,0,0,0,1.65,4.09c.64,1.21,2.09.71,2.55-.29a1.48,1.48,0,0,0,0-1.37,12.84,12.84,0,0,1-1.56-4.29,3.8,3.8,0,0,1,1.19-3.48,43.68,43.68,0,0,1,4.13,6.49,1.55,1.55,0,0,0-1.24.73,7.47,7.47,0,0,0-.9,2c-.69,2.47-.27,5.43,1.63,7.17a2.37,2.37,0,0,0,.52.35,5,5,0,0,0,0,2.47c0,.13.07.26.12.38a4.6,4.6,0,0,0,5,3.11,1.34,1.34,0,0,0,1.18-1.12,22.42,22.42,0,0,0,2.29,3.83c0,1.21,0,2.42.11,3.63A1.8,1.8,0,0,0,50.08,164.33Zm-5.44-11.41a3.43,3.43,0,0,1,.08-.56,4,4,0,0,1,.79-1.49,1.7,1.7,0,0,0,.51-.08A33.71,33.71,0,0,0,47.34,155a1.43,1.43,0,0,0-1-.17C45.3,155,44.61,153.89,44.64,152.92ZM50.76,125a106.54,106.54,0,0,1-3-11,1.37,1.37,0,0,0-1.84-1,1.46,1.46,0,0,0-1-.27l-1.57.12-.38,0c-.27-.94-.46-1.91-.69-2.87a9.06,9.06,0,0,0-.28-1.17c.08-.41,0-.61-.19-.59a6.1,6.1,0,0,1,2.48-.33,1.56,1.56,0,0,0,.61.15q3.88.2,7.79.3l2.3.06a1.51,1.51,0,0,0,.46.22c1.89.53,3.75,1.15,5.59,1.83a42.65,42.65,0,0,0-10.08,1.71,1.4,1.4,0,0,0-.45,2.42,1.43,1.43,0,0,0,.06.34c1.25,4.94,1.91,11.15,4.29,15.73a6,6,0,0,0,4.49,3.41c4.42,1.11,11.23,2.65,14.91-.3,2.17-1.75,3.11-5.2,4.09-7.69.89-2.26,1.69-4.55,2.43-6.86l2.86,1.13c-.26.63-.51,1.27-.73,1.93a0,0,0,0,1,0,0l-3.48,7.16c-1.1,2.24-2.27,5.91-4.49,7.21a12.31,12.31,0,0,1-5.68,1.49c-4.71.22-10.12-1.31-13.84-2.84a1.47,1.47,0,0,0-.43-.76c-1.49-1.45-2.46-4.14-3.23-6.58C51.36,126.89,51.05,125.83,50.76,125Zm62.29,5.46a22,22,0,0,1-2.94-1.68,13.94,13.94,0,0,1-2.56-2.38,12.22,12.22,0,0,1-1.87-4.5,26.94,26.94,0,0,1-1-7.65c6.38-2.78,15.09-1.08,21.58.83-1.07,3.81-2.09,7.64-3.26,11.42-.57,1.82-.91,2.87-2.24,3.59a6.45,6.45,0,0,1-4.19,1.12A7.49,7.49,0,0,1,113.05,130.43Zm2.74,5.58c-4.89-.21-9.89-2.14-11.21-6.21a1.51,1.51,0,0,0-.34-.55c0-.06,0-.13-.07-.2,2.35,1.53,4.72,3,7.17,4.37C112.8,134.33,114.34,135.1,115.79,136Zm-5.64-31.57c-4.83,0-11.14-.6-13.46,4.37a13,13,0,0,0-11.52.32c-3.55-4.14-9-4-14.37-3.82q-9,.31-18.08.08c0-2.44,0-5,0-7.57,0-2,0-4,.16-6a34.37,34.37,0,0,1,2.85-12.61s0-.07,0-.1a38.34,38.34,0,0,0,6.7.31,71.93,71.93,0,0,1,18.41,1.08,1.74,1.74,0,0,0,.45,0,17.79,17.79,0,0,1,4.94,6.39,1.51,1.51,0,0,0,2.6,0A34.55,34.55,0,0,0,92.28,80a237.77,237.77,0,0,0,24.43,1.35,129.63,129.63,0,0,1,4.22,23.29C117.34,104.51,113.75,104.45,110.15,104.44Zm-9,50.12a28.37,28.37,0,0,1-4.5.74c-5,.53-12.25.8-13.74-.76-.68-2.89,0-8.71,0-8.92q.51-4.83,1-9.66c.49-4.71.56-9.93,2.36-14.41a18.72,18.72,0,0,1,.88-1.87l.09-.1c4.75-5.92,10.19,2,11.72,6.43a100.74,100.74,0,0,1,3.53,14.11C103.18,143.67,106.08,152.8,101.12,154.56ZM78.69,115.8c-1.25,4.38-2.49,9.35-4.82,13.16s-6.81,3.71-11,2.88a.41.41,0,0,1,0-.09,4.9,4.9,0,0,1-.92-.21c-.23,0-.46,0-.71-.1a3.8,3.8,0,0,1-.95-.32,1.34,1.34,0,0,1-.6,0h0c-3.44-1-5.55-13.83-6.14-16.51C62.18,112.37,70.1,113.35,78.69,115.8Zm47.74,54.57c0,.78,0,1.57-.07,2.37-.38,5.43-3.63,9.68-7.2,13.51-3,3.28-6.23,6.42-9.41,9.56-2.53,2.5-4.38,5.23-8.68,4-1.91-.54-3.63-2.2-5.11-3.44a1.49,1.49,0,0,0-.7-.33,1.44,1.44,0,0,0-1.41.27c-9.7,7.75-25-6-32.52-12.17a1.33,1.33,0,0,0-.44-.25c-3.34-3.29-5.45-8-6.57-12.9a41.87,41.87,0,0,1-1-8.9,1.45,1.45,0,0,0,.73-1.48,168.13,168.13,0,0,1-1.63-24.45l.18.24a1.17,1.17,0,0,0,.78,1.33c4.61,2,10.5,3.61,15.95,3.36A18.37,18.37,0,0,0,75,140c2.44-.91,4.27-3.07,5.75-5.63-.32,4-.45,8-.82,11.62-.33,3.23-1.71,8.07.37,11.06a4.4,4.4,0,0,0,5.4,1.71c3.6.3,7.71-.35,11.29-.77l2-.21c8.11-.68,8.45-5.59,7.42-12.71-.39-2.73-.79-5.76-1.33-8.83a1.75,1.75,0,0,0,.82-.08c5.06,3.45,13.14,3.65,18.38,1.53.15,8.08-.85,17.62,1.73,25.26a1.17,1.17,0,0,0,.63.66A50.62,50.62,0,0,0,126.43,170.37ZM129.32,78c-1.67.08-3.34.14-5,.19-3.66.1-7.32.11-11,0a23.65,23.65,0,0,0-2.2-9c-1.44-3-4.19-5.34-5.35-8.47-.67-1.8-3.58-1-2.9.76,1,2.61,2.82,4.48,4.32,6.78a20.09,20.09,0,0,1,3.12,9.91q-8.7-.27-17.39-1.16c0-3.25-1.36-6.16-2.73-9-1.59-3.39-3.19-6.76-2.59-10.6a1.63,1.63,0,0,0-1.51-1.89,1.42,1.42,0,0,0-1,.47A14.47,14.47,0,0,0,80.84,66.4a14.08,14.08,0,0,0-3.06-1.24c-3.26-1-6.17-4.22-7.59-7.3-.49-4.66-1-9.28-5.86-11.53a1.51,1.51,0,0,0-.67-.15c-1.41,0-2.34,2.06-.81,2.76,3.76,1.73,4,5.37,4.35,9a11.34,11.34,0,0,0,1.73,12.59c-2.52-2-5.57-3.15-8.16-5.06a30.33,30.33,0,0,1-6.7-6.87,1.47,1.47,0,0,0-2-.4,1.57,1.57,0,0,0-.7,1.34c0,6.52,2.12,14.52,9.9,15h.11a1.5,1.5,0,0,0,0-3c-4.33-.26-6.05-3.76-6.7-7.51A31.61,31.61,0,0,0,59,67.84c2.65,2,5.84,3.1,8.36,5.22,1.32,1.11,3-.65,2.23-1.92a11.29,11.29,0,0,0,4.94,2.74c1.84.48,3-2.29,1.11-2.79a8.32,8.32,0,0,1-6.5-9.19,27,27,0,0,0,3.81,4c2.62,2.32,6.24,2,8.46,4.92a1.48,1.48,0,0,0,.28.28c.81,1.26,3.08.14,2.59-1.54a11.39,11.39,0,0,1,.66-8.27,37.85,37.85,0,0,0,2.76,7.06c1.38,3,2.61,6,2.21,9.38a34.53,34.53,0,0,1-2.32,5.32,20.63,20.63,0,0,0-4.92-5.38,1.32,1.32,0,0,0-1.39-.21A72.48,72.48,0,0,0,63.5,76.32c-.74,0-1.47.06-2.2,0-3.71,0-7.38-.67-11-.74-.67,0-1.35,0-2,0a24.89,24.89,0,0,0-.5-3.48c-1-4.43-3.35-9.28-7.93-7.32-3.62,1.54-4.25,5.85-2.89,9.23a6.49,6.49,0,0,1-2.77-7.49C35.28,63,38.67,61,42,59.66a4.29,4.29,0,0,1,2.82,1.59c1.22,1.5,3.5-.46,2.27-2a7.06,7.06,0,0,0-2.25-1.83,7.35,7.35,0,0,0-3.24-.87,1.34,1.34,0,0,0-1.11.46A17.65,17.65,0,0,0,32.61,63h0c-4.14.18-8.39,2.75-12.2,0A18.57,18.57,0,0,1,16,57.77a9.67,9.67,0,0,0,4.36.17C24,57.19,28,53.79,31.67,56a1.57,1.57,0,0,0,1.8-.27l.68-.54c1.43-1.14-.43-3.11-1.9-2.27A8.2,8.2,0,0,0,27,52.49a1.12,1.12,0,0,0-.24-.13,2.84,2.84,0,0,1-1.95.1,4.17,4.17,0,0,1-1-.51h0c-3.32-.49-4.78-4.36-7.26-6.05a15.08,15.08,0,0,0-3-1.42c-1.32-.53-2.66-1-4-1.4l-.94-.28A30.15,30.15,0,0,1,24,45.1a1.34,1.34,0,0,0,.46.11l4.75,3,.18.09.09.1c1,1.38,3.25.34,2.82-1A29.53,29.53,0,0,0,40,54.12c1.49.92,3.6,1.6,5.34,2.49A8.77,8.77,0,0,1,47.34,58a1.58,1.58,0,0,0,2.2,0,1.27,1.27,0,0,0,.07-2c-2.43-2.39-6-3.07-8.86-5a26.88,26.88,0,0,1-6-5.45,33.18,33.18,0,0,0,7.67,1.85c5.05.76,10.2,1.27,14.17,4.75a1.45,1.45,0,0,0,2.22-.35A1.26,1.26,0,0,0,59,50.06,28.77,28.77,0,0,1,53,35.92c3.1,3.65,7.24,5.89,11.7,7.76,6.51,2.72,13.69,4.62,19.22,8.92l.12.08a9.12,9.12,0,0,1,.58,1,1.63,1.63,0,0,0,1.43,1,1.2,1.2,0,0,0,.51-.11,1.52,1.52,0,0,0,.86-1.94A15.36,15.36,0,0,0,86,50.33a1.29,1.29,0,0,0-.85-.49c-6.08-4.4-14.69-6.17-21.76-9.64a1.4,1.4,0,0,0-.42-.6,18.38,18.38,0,0,1-3-3.52,20.29,20.29,0,0,0,3.74,1.84c4.22,1.55,7.9.51,11.44,3.9,1.38,1.32,3.67-.61,2.27-2-.4-.39-.8-.75-1.2-1.09a11.77,11.77,0,0,0-3.75-2.29,1.38,1.38,0,0,0-1.19-.61l-.21,0a1.42,1.42,0,0,0-.64-.43,12.11,12.11,0,0,1-6.56-5.17,22,22,0,0,1-1.83-3.42c2,1.26,4.1,2.3,6.17,3.53,3.39,2,5.74,5.16,8.59,7.75A20.14,20.14,0,0,0,80,40.55a1.5,1.5,0,0,0,2.25-1.37,1.37,1.37,0,0,0-.71-1.2c-3.07-1.86-5.23-4.74-7.8-7.17a1.54,1.54,0,0,0-.49-.67L71.7,28.91a.91.91,0,0,0-.26-.13,1.19,1.19,0,0,0-.84-.39l0-.07c-3.79-2.4-8-3.85-10.86-7.54a1.2,1.2,0,0,0-1-.48,1.56,1.56,0,0,0-1.57,1.86c.2.61.41,1.22.62,1.83a21,21,0,0,0-5.05-2.07l-.09-.12a8,8,0,0,1-1.42-2.14A17,17,0,0,1,50,14.22a12,12,0,0,1,3-9.75,23.2,23.2,0,0,0,7.38,14.26A19.76,19.76,0,0,0,64,21.35a18.43,18.43,0,0,0,8.25,2l0,0a2.44,2.44,0,0,1,1,0,4.18,4.18,0,0,1,1.11-.15,3.2,3.2,0,0,1,1,.16h.31c7.06-.16,12,.75,17.09,6a1.67,1.67,0,0,0,.57.38,1.53,1.53,0,0,0,2.81-.38,1.41,1.41,0,0,0-.14-1,14.53,14.53,0,0,1-1.55-8.29A26.56,26.56,0,0,0,97.17,24a34.5,34.5,0,0,0,11.06,8.44c2.23,1.12,4.59,2,6.86,2.93a1.93,1.93,0,0,0-1.23.27,1.53,1.53,0,0,0-.45.43A19.37,19.37,0,0,0,110.09,50,22.21,22.21,0,0,0,113,57.52l.51.88A60.9,60.9,0,0,1,117,64.64c.78,1.76,3.58.69,2.8-1.08a80.07,80.07,0,0,0-4.12-7.26A25.38,25.38,0,0,1,114,52.91a15.52,15.52,0,0,1-.5-9.91,31.76,31.76,0,0,0,3.75,11.09c3.73,6.77,6.31,12.74,5.4,20.67a1.62,1.62,0,0,0,1.65,1.78,1.22,1.22,0,0,0,1.28-1.16,36.26,36.26,0,0,0,.24-5,29.59,29.59,0,0,0-2.7-11.83c-3.49-7.56-7.39-13-6.85-21.83a1.24,1.24,0,0,0-.41-1.06A21.82,21.82,0,0,1,121,38.8c4.44,3.74,7,9,8.83,14.43l.09.2c.35-.28.71-.55,1.08-.8s.83-.59,1.26-.88l.19-.1,0-.08a14.52,14.52,0,0,1,2.82-1c-.48.5-.9,1-1.32,1.55a16.06,16.06,0,0,0-1.88,2.65,1.78,1.78,0,0,0-.21.54c-2.44,4.52-3.23,9.73-3.15,15.11A66.06,66.06,0,0,0,129.32,78Zm22.28,58.81a20,20,0,0,1-4.77,6.54c-2.53,2.44-4.88,5-8.08,6.6A1.15,1.15,0,0,0,138,151a1.36,1.36,0,0,0,.08.44,1.64,1.64,0,0,0,0,.7c.6,2.77,1.22,6.67-.39,9.24a7,7,0,0,1-3.45,2.63c-1.1.24-3.7-1.11-3.67-2.5a1.4,1.4,0,0,0-.09-.56c2-3.76,1.92-9.73,2.16-13.58a5.45,5.45,0,0,1,1.4,5.75c-1.74.17-1.54,3,.33,3h.76a1.49,1.49,0,0,0,1.26-.84,8.18,8.18,0,0,0,.95-4.25,8.73,8.73,0,0,0-.92-3.54c.85-1.72,1.61-3.75,1.15-5.58a4.42,4.42,0,0,0-1-1.83,1.69,1.69,0,0,0-1.1-.55c1-1.38,1.94-2.75,3-4.05a20.13,20.13,0,0,1,2.37-2.67,7.53,7.53,0,0,1-.49,7.83,1.14,1.14,0,0,0-.16,1c.27,1,1.91,1.78,2.65.68a10.53,10.53,0,0,0,.8-10.59c1.36.12,3,.94,3.33,2a8,8,0,0,1,0,2.68c-.09,1.81,2.54,1.95,2.95.37a1.63,1.63,0,0,0,.05-.33c.26-5-2.21-10.1-8-7.72-3.67,1.51-6.33,5.07-8.65,8.57.08-1.77.14-3.54.19-5.32a1,1,0,0,0,.18-.13c4.14-3.59,15.54-12.47,18.29-3.2A12,12,0,0,1,151.6,136.82Z"/></g><g id="_Group_3" data-name="&lt;Group&gt;"><path class="cls-3" d="M105.61,174.94l1.07,1.55a11.06,11.06,0,0,0,2.65,2.72l.68.5.6-.59A24.62,24.62,0,0,0,113,176.5l1.29-1.63Z"/><path class="cls-3" d="M95.66,176.44a16,16,0,0,0,1.56,2.68l.33.41.49.6,1.29-.62a9.21,9.21,0,0,0,3.09-3l1-1.56L95,175Z"/><path class="cls-3" d="M85.12,175.16l-3.34.05.66,1.4c1.06,2.25,2.07,3.37,3.15,3.54a1,1,0,0,0,.25,0c1.1,0,2.15-1.26,3.64-3.53l1-1.59-1.91,0Z"/><path class="cls-3" d="M71.32,175.18l-1.61-.06,1.34,3c0,.11.09.24.14.37.15.44.57,1.66,1.69,1.66a1.8,1.8,0,0,0,.57-.1,5.06,5.06,0,0,0,2-1.92c.11-.15.2-.28.29-.39.23-.29.45-.59.67-.89l1.13-1.57H75.64C74.2,175.25,72.76,175.23,71.32,175.18Z"/><path d="M120.93,172.83c1.94,0,1.66,3-.26,3l-4.83,0a1.6,1.6,0,0,1-.2.39,29.73,29.73,0,0,1-4.53,5.17,1.52,1.52,0,0,1-1.82.17,12.93,12.93,0,0,1-4.75-4.74,10.7,10.7,0,0,1-5.54,5c-2.71.91-4.34-2.79-5.23-4.78a1.55,1.55,0,0,1-.08-1.07h-.48l-1,0a1.49,1.49,0,0,1-.14.24c-1.46,2-3.35,6-6.23,6.05s-4.84-3.93-5.77-6.09h0l-.91,0a1.44,1.44,0,0,1-.21.48c-1.37,2.06-3.54,5.6-6.36,5.57s-3.67-4-4.57-6.05c0-.08-.05-.16-.08-.23L67,176l-.13,0a7.14,7.14,0,0,1-5.41-1.75c-1.47-1.26.6-3.43,2.07-2.18a3.78,3.78,0,0,0,1.67.84,1.75,1.75,0,0,1,.47,0c9.46.81,19.15.21,28.65.15C103.2,173,112.07,172.87,120.93,172.83Zm-8.75,3.06-4.67,0a10.14,10.14,0,0,0,2.41,2.48A25.72,25.72,0,0,0,112.18,175.89Zm-10.6.08-5,0A14.89,14.89,0,0,0,98,178.52l.3.38.51-.25A8.11,8.11,0,0,0,101.58,176Zm-12.93.13c-1.76,0-3.53.06-5.3.09.6,1.27,1.51,2.84,2.41,3C86.46,179.29,87.69,177.56,88.65,176.1Zm-13.65,1c.22-.28.43-.57.64-.86-1.45,0-2.9,0-4.35-.08l.68,1.53c.29.66.4,1.63,1.16,1.39S74.56,177.67,75,177.12Z"/></g><g id="_Group_4" data-name="&lt;Group&gt;"><path d="M102.13,182.42c1.36-1.35,3.71.52,2.35,1.88-3.62,3.59-9.73,2.78-14.48,3s-9.08.57-11.91-3.92c-1-1.64,1.66-3,2.68-1.36,2.19,3.52,7.37,2.35,10.81,2.21C94.75,184.08,99.65,184.91,102.13,182.42Z"/></g><path class="cls-5" d="M63.18,120.76A2.27,2.27,0,0,0,62,120a1.76,1.76,0,0,0-.41-.21c-1.59-.59-2.54.64-2.83,2a2.17,2.17,0,0,0-.09.67,3.66,3.66,0,0,0,.12,1.26,2.53,2.53,0,0,0,2.07,1.85,2.46,2.46,0,0,0,2.54-1.75A3,3,0,0,0,63.18,120.76Z"/><path class="cls-5" d="M112.68,119.06a2.15,2.15,0,0,0-2.59-.2,2.48,2.48,0,0,0-1.15,1.8,2.85,2.85,0,0,0-.21,1.42,2.46,2.46,0,0,0,1.55,2,2.2,2.2,0,0,0,2.6-.89,3.79,3.79,0,0,0,.55-1.94A2.74,2.74,0,0,0,112.68,119.06Z"/></g></g></svg>