<svg xmlns="http://www.w3.org/2000/svg" viewBox="0 0 267.87 141.82"><defs><style>.cls-1{fill:#ff1a6d;}.cls-2{fill:#27ffab;}.cls-3{fill:#fff;}</style></defs><title>svg-art</title><g id="Layer_2" data-name="Layer 2"><g id="Layer_3" data-name="Layer 3"><path class="cls-1" d="M83.54,63.1c26.95,33.55-6.84,81.3-44.91,73.17C20.53,132.4,6.48,115.11,4.74,96.62c-1.79-19.1,8.37-37.2,24.5-45.5C46.77,42.1,69.22,46,83,62A2.41,2.41,0,0,0,83.54,63.1Z"/><path d="M84.14,125.25c-12.27,13.47-32.42,20.46-50.81,14.34-21-7-34.59-29.36-33.24-51A50.39,50.39,0,0,1,33,44.31c19.14-6.82,41.75-.4,55.1,16.85a2.41,2.41,0,0,1,.53,1.29C102.91,82.31,99.22,108.7,84.14,125.25Zm-45.51,11C76.7,144.4,110.49,96.65,83.54,63.1A2.41,2.41,0,0,1,83,62C69.22,46,46.77,42.1,29.24,51.12,13.11,59.42,3,77.52,4.74,96.62,6.48,115.11,20.53,132.4,38.63,136.27Z"/><path d="M91.59,107.16c1.32.14,1,2.18-.31,2l-.14,0c-3,6.66-6,12.62-11.47,17.83a40.19,40.19,0,0,1-17.22,9.48,52.11,52.11,0,0,1-38.66-4.08c-4.44-2.41-9.12-5.18-12.11-9.34-1.78-2.49-4.48-6.37-1.22-8.81,1.91-1.42,4.69-1.74,6.93-2.21,3.37-.7,6.7-1.57,10-2.34a106.77,106.77,0,0,1,22-2.67c7.84-.18,15.54-1.41,23.32-2.21a61.63,61.63,0,0,1,11.12.23,21.57,21.57,0,0,1,3.76.45C88.79,105.82,90.42,107,91.59,107.16Z"/><path d="M21.08,101.11c-.14.13-.26.26-.4.4a2.59,2.59,0,0,0,.12-.52c.18-.21.36-.42.56-.62a10.12,10.12,0,0,0,1.6-.94C22.33,100,21.7,100.54,21.08,101.11Z"/><path d="M17.71,103.09a6.77,6.77,0,0,0-.33.66.89.89,0,0,1,0-.15c0-.12.08-.23.13-.35a.5.5,0,0,1,0-.27A.5.5,0,0,0,17.71,103.09Z"/><path class="cls-2" d="M61,118c-.63.77.25,1.64,1,1.59a4.48,4.48,0,0,0,1.24-.3.07.07,0,0,0,0,0c.14.37.36.53.6.55a.38.38,0,0,0,.15.32,2.14,2.14,0,0,1-1.8.11.36.36,0,0,0-.61.34,1,1,0,0,0,.64.83,1.58,1.58,0,0,0,.69.2c-4.21,2.82-7.41,7.76-12,9.63-2.56.3-5.09.38-7.7.5-2.16.08-4.29-.4-6.43-.49a.1.1,0,0,0,0-.18,73.76,73.76,0,0,1-10.39-2.07.4.4,0,0,0,0-.19c-.05-.11-.19-.25-.25-.36s.09-.24.11-.32a3.63,3.63,0,0,1,.38-.73,1.6,1.6,0,0,1,.05-.29,4.68,4.68,0,0,1,1.39-2.11,2.17,2.17,0,0,0,.08-.3c0-.06-.08-.09-.12-.06a8.3,8.3,0,0,0-2.47,2.5,3.42,3.42,0,0,0-.26.46,5.43,5.43,0,0,0-.69.89c-.88-.27-1.78-.54-2.69-.84-3.81-1.27-7.09-2.47-10.26-4.82v0c-1.86-2.78-2.95-5.18-1.61-8.5a35.82,35.82,0,0,0,1.5-3.46,19.54,19.54,0,0,1,1.15-2.36,1.13,1.13,0,0,1,.44-.42c1.4-.49,1.17,3.66,1,4.16a5.47,5.47,0,0,0-.47,2c.11,1.14,1,1.9,1.4,3a2.29,2.29,0,0,1,.07.28c-.1,1-.31,1.81-1.18,1.55-.09,0-.17.1-.08.15.76.48,1.24.39,1.63-.43a3.7,3.7,0,0,0,.1-1.41c.12-1.78.75-2,1.72-3.29A5.11,5.11,0,0,0,18.45,110c-.18-.79-.5-2-1.48-1.91V108a4.55,4.55,0,0,0,3.11-2.36,6.45,6.45,0,0,0,.3-2.66,7.55,7.55,0,0,1,.31-1.42c.14-.14.26-.27.4-.4.62-.57,1.25-1.12,1.88-1.68,1.32-.92,2.56-2.09,3.75-2.87,2.59-1.72,5.25-3.37,7.77-5.17.36.13.85-.25.6-.68a5.83,5.83,0,0,1-.35-.85,22.23,22.23,0,0,0-.41-2.8c0-.35,0-.69,0-1-.11-1.78-.26-3.56-.25-5.35l.62.22a7.72,7.72,0,0,0,1.81.47c2.29,1.66,5.16,2,7.91,2.26l0,0c2.25.49,2.84,1,4.72,0,1.49-.78,2.44-.57,4.13-.37A5.55,5.55,0,0,0,55.82,83a29,29,0,0,0,7.12-3.83l.58-.41a2.53,2.53,0,0,0-.46,1.33c0,1,.85,1.63.48,2.54C63,84.05,61.6,85.5,62.83,87c-1,1.64,0,4.23,1.49,5.31A7.24,7.24,0,0,0,64,96.88c.1.51.85,1.93.72,2.32-.06.17-.7.54-.9.78-1.1,1.32-1.06,5,.71,5.84a5.44,5.44,0,0,0-1.57,2.52c-.24.86-.31,3.35.85,3.65a2.39,2.39,0,0,0-.18,2.2c.22.66.62,1.27.79,2a1.63,1.63,0,0,1,0,1.13.81.81,0,1,1-1.49-.64.19.19,0,0,0-.3-.22c-.88.75.12,2,1.16,2.08-.38.1-.77.32-1.1.41a1.73,1.73,0,0,1-.93,0c-.38-.15-.25-.59-.4-.9A.18.18,0,0,0,61,118Z"/><path d="M20.8,101a2.59,2.59,0,0,1-.12.52c-.59.62-1.16,1.27-1.76,1.88l-.09.1a.58.58,0,0,1-.13.14c.46-.6.89-1.23,1.38-1.81C20.31,101.53,20.55,101.26,20.8,101Z"/><path d="M20.84,100.59a2.85,2.85,0,0,1,0,.4c-.25.27-.49.54-.72.83-.49.58-.92,1.21-1.38,1.81a.24.24,0,0,1-.11.06c-.14.14-.27.28-.42.41a.48.48,0,0,1-.79-.35h0a6.77,6.77,0,0,1,.33-.66.5.5,0,0,1-.16-.11h0a1,1,0,0,1,.09-.17c.12-.16.25-.3.37-.45a7.85,7.85,0,0,1,1-1.21c.45-.55.91-1.08,1.39-1.6a19,19,0,0,1,1.85-1.48l0,0,.11-.08a.46.46,0,0,1,.23-.08c.28-.25.55-.51.8-.78,0,0,0,0,0,0a7,7,0,0,1-.49.89.55.55,0,0,1,0,.79c-.55.51-1.09,1-1.6,1.59Z"/><path d="M17.64,102.8a1,1,0,0,0-.09.17.3.3,0,0,1,0-.39c.2-.27.42-.54.64-.79a20.16,20.16,0,0,1,2.18-2.25c-.48.52-.94,1-1.39,1.6a7.85,7.85,0,0,0-1,1.21C17.89,102.5,17.76,102.64,17.64,102.8Z"/><path d="M23.41,97.1s0,0,0,0c-.25.27-.52.53-.8.78a.46.46,0,0,0-.23.08l-.11.08,0,0a19,19,0,0,0-1.85,1.48c.08-.1.17-.19.26-.29a8,8,0,0,1,2.84-2.34l.51-.47c.66-.65,1.57.36,1,1a24.41,24.41,0,0,1-2,2,10.12,10.12,0,0,1-1.6.94c.51-.54,1.05-1.08,1.6-1.59a.55.55,0,0,0,0-.79A7,7,0,0,0,23.41,97.1Z"/><path d="M17.38,103.75a.48.48,0,0,0,.79.35c.15-.13.28-.27.42-.41a.24.24,0,0,0,.11-.06,13.09,13.09,0,0,1-1,1.12.36.36,0,0,1-.58-.37A5.41,5.41,0,0,1,17.38,103.75Z"/><path d="M26.71,96.56c-1.19.78-2.43,2-3.75,2.87a24.41,24.41,0,0,0,2-2c.6-.67-.31-1.68-1-1l-.51.47a8,8,0,0,0-2.84,2.34c-.09.1-.18.19-.26.29a20.16,20.16,0,0,0-2.18,2.25c-.22.25-.44.52-.64.79a.3.3,0,0,0,0,.39h0a.5.5,0,0,0,0,.27c-.05.12-.09.23-.13.35a.89.89,0,0,0,0,.15h0a5.41,5.41,0,0,0-.24.63.36.36,0,0,0,.58.37,13.09,13.09,0,0,0,1-1.12.58.58,0,0,0,.13-.14l.09-.1c.6-.61,1.17-1.26,1.76-1.88a7.55,7.55,0,0,0-.31,1.42,6.45,6.45,0,0,1-.3,2.66A4.55,4.55,0,0,1,17,108v.1c1,0,1.3,1.12,1.48,1.91a5.11,5.11,0,0,1-1.07,4.25c-1,1.26-1.6,1.51-1.72,3.29a3.7,3.7,0,0,1-.1,1.41c-.39.82-.87.91-1.63.43-.09,0,0-.18.08-.15.87.26,1.08-.57,1.18-1.55a2.29,2.29,0,0,0-.07-.28c-.36-1.1-1.29-1.86-1.4-3a5.47,5.47,0,0,1,.47-2c.14-.5.37-4.65-1-4.16a1.13,1.13,0,0,0-.44.42l-.15-.11.09-.12a1.09,1.09,0,0,0-1.17-1.6c-.2.18-.4.38-.6.59-.26-2.24-.28-4.47,1.31-6.27-.89-.44-1.28-1.76-1.41-2.67a2.66,2.66,0,0,1,.44-2c.12-.21.24-.43.37-.71,1.13-2.6-1.14-4.66-1.12-7.21a3.47,3.47,0,0,1,1-2.48c0,.06,1.54-1.16,1.3-.89l.51-.24a11.31,11.31,0,0,0-1.61-3.42.31.31,0,0,1-.19,0c-1.65-.94-1.93-3-1.51-4.67a7.93,7.93,0,0,1,2-3.85c-2.08-1.9-3.08-4.52-1.57-7.15.11-.19,1-1,1-1.13.15-.63-.72-1.59-.76-2.3a2.92,2.92,0,0,1,.8-2c-1.22,0-2.25-1.78-2.64-2.77a3.41,3.41,0,0,1,1.33-3.66,2.59,2.59,0,0,1-.37-1.31c0-.68.29-.88.49-1.45a2.67,2.67,0,0,0,.12-2.34c-.61-1.75-1.32-3.19-.86-5.09a9,9,0,0,1,2.9-4.6s.05,0,.07-.06C10.82,35.51,10,32.58,12.11,29c.31-.54.71-.93,1.06-1.45,1.48-2.24,1.24-2.38,1.63-4.47a17,17,0,0,1,2.39-5.68,60.7,60.7,0,0,1,5.29-7.6,20.29,20.29,0,0,1,11-8A8,8,0,0,1,36,1l.37,2.1a1.78,1.78,0,0,0-.47.06,3.76,3.76,0,0,0-1.2.83c.08,0-1.56,2.5-1.35,2.57a.25.25,0,0,1,.13.33l-.24.74a.25.25,0,0,1,.11.33q-.07.36-.18.75a.23.23,0,0,1,.16.33,1.64,1.64,0,0,0-.25,1.35.29.29,0,0,1-.09.39A1.57,1.57,0,0,0,31.79,12a.24.24,0,0,1,.07.42c-1.87,1.5-4.37,1.33-6.61,1.9-1.45.37-2.68,1.1-4.06,1.57a20.64,20.64,0,0,0-3.86,10.73c-.17,3.66-1.19,7.41,0,11v0l.26.28.19.23a1.44,1.44,0,0,0,.45.29,2.44,2.44,0,0,0,1.34-.06c1.07-.24,2.11-.54,3.16-.83,1.77-1,4.39-1.52,5.93.08,1,1,2,3.5,1.42,5a1.61,1.61,0,0,1,0,.37s-.06,0-.08,0l0,.07a.11.11,0,0,1,0,.08,3.12,3.12,0,0,1,.05.69c0,.08-.08.11-.14.08s-.19,0-.18-.08,0-.4,0-.59a1.29,1.29,0,0,0-.06-.21v-.06l-.18-.59a.35.35,0,0,1-.15-.17,16.61,16.61,0,0,0-.76-1.59,6.29,6.29,0,0,0-1.38-1.56c-.78-.17-1.56-.42-2.35-.57h-.16a6.5,6.5,0,0,0-2.48.66c-.34.27-.77.48-1.07.68l-.49.37a6.5,6.5,0,0,0-.69.94l-.09.18s0,0,0,.05h.08a16.84,16.84,0,0,0,2.53-1.15,4.37,4.37,0,0,1,1-.27l.08.5a5.73,5.73,0,0,0-1.08.49c-.7.42-1.51,1.27-2.38,1.11H20l-.07,0s-.06,0-.09,0a2.11,2.11,0,0,1-1.16-.5,3.17,3.17,0,0,1-1.64-2.14c-.55,2.5-.3,5.19-.44,7.75a33.82,33.82,0,0,0,.92,9.12c.59,2.58,1.35,5.16,2,7.75a17.11,17.11,0,0,0,2.7,5.21,47.51,47.51,0,0,1,3.92,4,70.11,70.11,0,0,0,5.78,5.26s0,0,0,0c.59.34,1.15.74,1.76,1,.95.51,2,.63,3,1.06l-.27.63a7.72,7.72,0,0,1-1.81-.47L34,80.67c0,1.79.14,3.57.25,5.35,0,.35,0,.69,0,1a22.23,22.23,0,0,1,.41,2.8,5.83,5.83,0,0,0,.35.85c.25.43-.24.81-.6.68C32,93.19,29.3,94.84,26.71,96.56Z"/><path d="M21.36,100.37c-.2.2-.38.41-.56.62a2.85,2.85,0,0,0,0-.4Z"/><path d="M51,38.46a.15.15,0,0,1-.08.18l-.08,0a19.43,19.43,0,0,0,3.59-1.53c.26-.15.49.17.35.4s-.49.7-.72,1.05a.28.28,0,0,1,.06.26c.17-.18.35-.35.54-.52,0,0,0,0,0,0-.27.38-.54.75-.84,1.1-.05.09-.09.19-.13.27l.25,0a.24.24,0,0,1,.21.06.86.86,0,0,1,.13-.14c.22-.26.4-.54.62-.8,0,0,.1,0,.08,0a2.15,2.15,0,0,1-.7,1.16.32.32,0,0,1,0,.14l-.09.14c.35-.24.68-.49,1-.69s.53.21.34.44a4.6,4.6,0,0,1-2.31,1.5,3.73,3.73,0,0,1-1.51.4.77.77,0,0,1-.19,0,.3.3,0,0,1-.28.08l-.33.09a2.09,2.09,0,0,1-1.72-.25,8.53,8.53,0,0,1-1.06-.78l-.06,0,.27-.48c.74.22,1.74.51,1.37-.4a15,15,0,0,0-1.81-1c-.62-.27-1.25-.56-1.89-.78a.13.13,0,0,1-.09,0v0c-.3-.09-.59-.16-.88-.23l-.18,0c-.32,0-.66,0-1,0h0a9.9,9.9,0,0,0-5.33,2.49c-.16.41-.44.75-.59,1.17a12.69,12.69,0,0,0-.38,1.47c-.05.21-.39.35-.47.08a4.88,4.88,0,0,1-.16-1.84.09.09,0,0,0,0,0,11.47,11.47,0,0,0,.3,6.21.22.22,0,0,1-.37.19c-.52-.63-.5-1.31-.9-2-.16-.58-.21-.51-.16.2a8.16,8.16,0,0,0,.08,1.64c.06.52.18,1,.25,1.54,0,0-.06.08-.08,0s-.07-.21-.1-.32c0,.14,0,.26.06.4s0,0,0,0c-.08-.26-.2-.57-.34-.91a3.85,3.85,0,0,0-.35-1.17s0-.07-.05-.1v-.08A6.66,6.66,0,0,1,34.5,44a11.11,11.11,0,0,1,1.63-6.85c1.56-2.11,4-2.91,6.44-3.42.11,0,.2.14.11.21a3.08,3.08,0,0,1-.44.27h.06s.06.06,0,.08a13.94,13.94,0,0,0-3.15,2.2c-.08.06-.21.21-.34.32l1-.24a6.54,6.54,0,0,1,2.68,0,6.66,6.66,0,0,1,1.34.09,11.14,11.14,0,0,1,4.11,1.27H48l.54-.08.47,0c.52-.05,1-.29,1.51-.35.19,0,.24.2.15.33h0s0,0,0,0h0c-.17.12-.32.25-.48.38a.07.07,0,0,1,0,.05.35.35,0,0,1,0,.18l.14,0c.15-.07.32-.12.46-.19l.5-.24h0a2,2,0,0,0,.43-.29c.07-.06.15,0,.1.1s-.22.2-.34.3a0,0,0,0,0,0,0,.16.16,0,0,1-.06.16A2.53,2.53,0,0,1,51,38.46Z"/><path d="M10.89,107.33c.2-.21.4-.41.6-.59a1.09,1.09,0,0,1,1.17,1.6l-.09.12c-.32.45-.61.93-.89,1.4a20.39,20.39,0,0,1-1.53,2.88c-.25.49-.52,1-.81,1.46a.31.31,0,0,1-.07.09.78.78,0,0,1-.11.18,13.68,13.68,0,0,1,2-3.79c0-.21,0-.43.07-.63C11.12,109.16,11,108.24,10.89,107.33Z"/><path class="cls-2" d="M27.58,43.91c-1.76,1.56-3.72,1.3-5.87,1.19,0,0,0,0,0,0,1.51,1,4.9.31,6-1.13C27.69,44,27.63,43.87,27.58,43.91Zm21.86.39c.06-.09-.08-.19-.14-.11-1.95,2.09-5.34,1.34-7.77.64,0,0,0,0,0,0C43.55,46,48,46.6,49.44,44.3Zm-13,28.26s0,0,0,0c1.4.4,4.66.16,5.08-1.65,0,0-.06-.08-.09-.06a6.69,6.69,0,0,1-2.3,1.25A24.68,24.68,0,0,1,36.41,72.56ZM35.08,7.15,35.16,7Zm-8,59.21c-.11.2.19.43.33.24a7.51,7.51,0,0,0,.46-.69L28,66a2.24,2.24,0,0,0,.55.82h0A7,7,0,0,0,29,68.23a3,3,0,0,0,1.28,1.63c.13.19.5.21.5-.08,0,0,0,0,0-.07a.2.2,0,0,0,0-.11q0-.34-.06-.69a.15.15,0,0,1,.06,0,1.85,1.85,0,0,0,.81.38,2.38,2.38,0,0,0,.8.43,1.58,1.58,0,0,0,.58,0,1.61,1.61,0,0,0,.43.07,13.72,13.72,0,0,1-1.1,1.19,5.28,5.28,0,0,1-2.49,1.09l0,0c-.08,0-.16,0-.12.13.36.73,1.79,1,2.74.64l-.07.16a2,2,0,0,1-.57.74l-.1.06c-.21.14-.42.3-.63.45a.22.22,0,0,0,.22.39h0c1.21.6,2.35-.66,3-1.57.54-.74.91-1.57,1.39-2.34a5.17,5.17,0,0,1,.39-.53,7.71,7.71,0,0,0,3.67-1,7.35,7.35,0,0,0,3.18-2.79,3.56,3.56,0,0,1,.12,1,.27.27,0,0,0,.38.27,2.32,2.32,0,0,0,1.14-2.29,7.77,7.77,0,0,0-.07-1.18,6.76,6.76,0,0,0,1.18-1l.08-.09a.24.24,0,0,0,.06-.11.88.88,0,0,1,.23-.14l.05-.06a1.56,1.56,0,0,1,.6-.34l0,0,.11,0s0,0,0,0a4.53,4.53,0,0,1,1.47-.17.19.19,0,0,0,.19-.08h0c.11,0,.22-.12.15-.22-.39-.63-1.33-.58-1.92-1s-.93-1-1.59-1.32a0,0,0,0,0,0,0,4.79,4.79,0,0,0,1.41,1.75,3,3,0,0,0,.32.2c-1.88.27-3.55,1.93-5.25,2.73C38.19,66,31.66,66.82,28,65.51a1.53,1.53,0,0,0,.1-.5c0-.24-.35-.26-.44-.07s-.16.54-.28.79A4.89,4.89,0,0,1,27.05,66.36ZM36.64,54c.23,0,.36-.2.58-.22a.52.52,0,0,1,.44.19,3,3,0,0,1,.68,1.07s.09,0,.08,0c-.14-.57-.14-1.15-.65-1.55s-1.22-.23-1.3.36A.18.18,0,0,0,36.64,54Zm1.9,2.39a1.73,1.73,0,0,1-2.13,1.78,1.85,1.85,0,0,0-1.14,0l-.17,0a3.32,3.32,0,0,0-1.81.88.19.19,0,0,0,0,.28,2.38,2.38,0,0,1-2.53.56l-.35-.22a10.68,10.68,0,0,1-1-.94,2.73,2.73,0,0,0-1.23-.87,1,1,0,0,1-.08-.14c0-.06-.13-.09-.15,0A.49.49,0,0,0,28,58a.09.09,0,0,0,0,.1.81.81,0,0,0,.1.18l.12,0a2.45,2.45,0,0,1,1.29,1.25,5.08,5.08,0,0,0,.69.56,2.14,2.14,0,0,0,.82.56,1.42,1.42,0,0,0,1.14.24,8.38,8.38,0,0,0,2.31-.09,5,5,0,0,0,1.84-.48c2-.74,3.58-2.11,2.35-3.84a.43.43,0,0,0,0,0A.09.09,0,0,0,38.54,56.43Zm5.22-14.25c.76,1.46,4.74.73,4.3-1.11l.06,0a8.53,8.53,0,0,0,1.06.78,2.09,2.09,0,0,0,1.72.25l.33-.09a.3.3,0,0,0,.28-.08.77.77,0,0,0,.19,0,3.73,3.73,0,0,0,1.51-.4A4.6,4.6,0,0,0,55.52,40c.19-.23-.05-.64-.34-.44s-.63.45-1,.69l.09-.14a.32.32,0,0,0,0-.14,2.15,2.15,0,0,0,.7-1.16s-.06-.06-.08,0c-.22.26-.4.54-.62.8a.86.86,0,0,0-.13.14.24.24,0,0,0-.21-.06l-.25,0c0-.08.08-.18.13-.27.3-.35.57-.72.84-1.1,0,0,0,0,0,0-.19.17-.37.34-.54.52a.28.28,0,0,0-.06-.26c.23-.35.51-.68.72-1.05s-.09-.55-.35-.4a19.43,19.43,0,0,1-3.59,1.53l.08,0a.15.15,0,0,0,.08-.18,2.53,2.53,0,0,0,.34-.21.16.16,0,0,0,.06-.16,0,0,0,0,1,0,0c.12-.1.23-.19.34-.3s0-.16-.1-.1a2,2,0,0,1-.43.29h0l-.5.24c-.14.07-.31.12-.46.19l-.14,0a.35.35,0,0,0,0-.18.07.07,0,0,0,0-.05c.16-.13.31-.26.48-.38h0s0,0,0,0h0c.09-.13,0-.35-.15-.33-.52.06-1,.3-1.51.35l-.47,0-.54.08H47.9a11.14,11.14,0,0,0-4.11-1.27,6.66,6.66,0,0,0-1.34-.09,6.54,6.54,0,0,0-2.68,0l-1,.24c.13-.11.26-.26.34-.32a13.94,13.94,0,0,1,3.15-2.2s0-.09,0-.08h-.06a3.08,3.08,0,0,0,.44-.27c.09-.07,0-.23-.11-.21-2.45.51-4.88,1.31-6.44,3.42A11.11,11.11,0,0,0,34.5,44a6.66,6.66,0,0,0,.66,3.25v.08s0,.07.05.1a3.85,3.85,0,0,1,.35,1.17c.14.34.26.65.34.91,0,0,.05,0,0,0s0-.26-.06-.4c0,.11.06.21.1.32s.09,0,.08,0c-.07-.51-.19-1-.25-1.54a8.16,8.16,0,0,1-.08-1.64c0-.71,0-.78.16-.2.4.68.38,1.36.9,2a.22.22,0,0,0,.37-.19,11.47,11.47,0,0,1-.3-6.21.09.09,0,0,1,0,0,4.88,4.88,0,0,0,.16,1.84c.08.27.42.13.47-.08a12.69,12.69,0,0,1,.38-1.47c.15-.42.43-.76.59-1.17a9.9,9.9,0,0,1,5.33-2.49h0c.33,0,.67,0,1,0l.18,0c.29.07.58.14.88.23v0a.13.13,0,0,0,.09,0c.64.22,1.27.51,1.89.78a15,15,0,0,1,1.81,1c.37.91-.63.62-1.37.4a2.52,2.52,0,0,0-1.45-.75,5.72,5.72,0,0,0-1.21-.08c-.51,0-1,.06-1.47.11a7.5,7.5,0,0,0-3.93,1.28s0,0,0,0a12.31,12.31,0,0,1,3.26-1,1.83,1.83,0,0,0-.16.74,2.2,2.2,0,0,0,.29,1.12A.32.32,0,0,0,43.76,42.18Zm-16.2.23a.94.94,0,0,0,.28-1h0a.88.88,0,0,0,0-.17,6.11,6.11,0,0,1,.89.75h0A4.41,4.41,0,0,0,25.62,40c0-.06-.07-.1-.14-.09L25,40h-.2A3.42,3.42,0,0,0,24,40a5.88,5.88,0,0,0-1.57.33,16.84,16.84,0,0,1-2.53,1.15h-.08s0,0,0-.05l.09-.18a6.5,6.5,0,0,1,.69-.94l.49-.37c.3-.2.73-.41,1.07-.68a6.5,6.5,0,0,1,2.48-.66h.16c.79.15,1.57.4,2.35.57a6.29,6.29,0,0,1,1.38,1.56,16.61,16.61,0,0,1,.76,1.59.35.35,0,0,0,.15.17l.18.59v.06a1.29,1.29,0,0,1,.06.21c0,.19,0,.39,0,.59s.11.13.18.08.15,0,.14-.08a3.12,3.12,0,0,0-.05-.69.11.11,0,0,0,0-.08l0-.07s.08,0,.08,0a1.61,1.61,0,0,0,0-.37c.6-1.54-.41-4-1.42-5-1.54-1.6-4.16-1-5.93-.08-1.05.29-2.09.59-3.16.83a2.44,2.44,0,0,1-1.34.06,1.44,1.44,0,0,1-.45-.29L17.54,38l-.26-.28v0c-1.14-3.61-.12-7.36,0-11a20.64,20.64,0,0,1,3.86-10.73c1.38-.47,2.61-1.2,4.06-1.57,2.24-.57,4.74-.4,6.61-1.9a.24.24,0,0,0-.07-.42A1.57,1.57,0,0,1,33,10.73a.29.29,0,0,0,.09-.39A1.64,1.64,0,0,1,33.31,9a.23.23,0,0,0-.16-.33q.1-.39.18-.75a.25.25,0,0,0-.11-.33l.24-.74a.25.25,0,0,0-.13-.33c-.21-.07,1.43-2.57,1.35-2.57a3.76,3.76,0,0,1,1.2-.83,1.78,1.78,0,0,1,.47-.06c.47,0,.85.2.2.77a.24.24,0,0,0-.07.21c-.09.11-.24.31-.55.66-.1.11,0,.25.15.24s-.33.63-.53.84a0,0,0,0,0,0,0s0,0,0,0l0,0a.25.25,0,0,0,.25.36s-.36.52-.58.84V7L35.16,7,35.22,7a.28.28,0,0,0,.19.43L35,7.8a.26.26,0,0,0,.11.45c.49,0,.64.09.43.31A2.51,2.51,0,0,1,35,9a.11.11,0,0,0,0,.2c.21.46,0,.63-.51.5a.22.22,0,0,0-.07.38c.69.24.75.35.17.33-.3,0-.25.45,0,.51a3.1,3.1,0,0,0-.43,0,.29.29,0,0,0-.35.35l-.09-.05h0c1,1.89,3.5,2.09,5.66,1.85.82.05,1.61.09,2.41.09h.42a35.53,35.53,0,0,1,4.64,1.54c2.26.79,4.56,1.71,6.75,2.66,1,2.14.45,4.65,1.58,6.66,1.41,2.55,5.31,3.07,6.15,6s-1.52,4.4-1.36,7c.1,1.81,1.23,3.43,2.06,5.12,0,.18.07.36.11.55,0,.46,0,.92,0,1.39a23.53,23.53,0,0,1-1.79,5.7c-.82,1.72-2.73,3.7-2.68,5.69,0,1.69,1.57,3.12,2.17,4.65,1.51,3.82.83,7.55-.69,11.16-3.3,3.77-8.13,5.9-12.79,7.44-2.75.91-6.36,2.19-9.6,2h0l-.11,0c-1-.43-2.07-.55-3-1.06-.61-.31-1.17-.71-1.76-1,0,0,0,0,0,0a70.11,70.11,0,0,1-5.78-5.26,47.51,47.51,0,0,0-3.92-4,17.11,17.11,0,0,1-2.7-5.21c-.63-2.59-1.39-5.17-2-7.75a33.82,33.82,0,0,1-.92-9.12c.14-2.56-.11-5.25.44-7.75a3.17,3.17,0,0,0,1.64,2.14,2.11,2.11,0,0,0,1.16.5s.06,0,.09,0l.07,0h.09c.87.16,1.68-.69,2.38-1.11a5.73,5.73,0,0,1,1.08-.49c-.24.37,0,1.12.18,1.47a.05.05,0,0,1,0,0,1,1,0,0,0,.28.61,1.43,1.43,0,0,0,.66.34h0a.36.36,0,0,0,.22,0h.11A4.34,4.34,0,0,0,27,42.82a.25.25,0,0,0,.15-.1,2.23,2.23,0,0,0,.3-.2.18.18,0,0,0,.12-.08S27.55,42.42,27.56,42.41Z"/><path d="M8.24,114.51a.67.67,0,0,1-.4-.74,5.64,5.64,0,0,1,.78-3,11.44,11.44,0,0,1,2.27-3.44c.09.91.23,1.83.31,2.72,0,.2,0,.42-.07.63a13.68,13.68,0,0,0-2,3.79A.72.72,0,0,1,8.24,114.51Z"/><path d="M27.81,41.36h0a.94.94,0,0,1-.28,1s0,0,0,0a.18.18,0,0,1-.12.08,2.23,2.23,0,0,1-.3.2.25.25,0,0,1-.15.1,4.34,4.34,0,0,1-1.91.26h-.11a.36.36,0,0,1-.22,0h0a1.43,1.43,0,0,1-.66-.34,1,1,0,0,1-.28-.61.05.05,0,0,0,0,0c-.17-.35-.42-1.1-.18-1.47l-.08-.5A4.35,4.35,0,0,1,24,40a3.42,3.42,0,0,1,.79-.08H25l.48,0c.07,0,.11,0,.14.09a4.41,4.41,0,0,1,3.06,1.91h0a6.11,6.11,0,0,0-.89-.75.88.88,0,0,1,0,.17h0Z"/><path d="M48.06,41.07c.44,1.84-3.54,2.57-4.3,1.11a.32.32,0,0,1-.1-.1A2.2,2.2,0,0,1,43.37,41a1.83,1.83,0,0,1,.16-.74,12.31,12.31,0,0,0-3.26,1s0,0,0,0a7.5,7.5,0,0,1,3.93-1.28c.45,0,1-.1,1.47-.11a5.72,5.72,0,0,1,1.21.08,2.52,2.52,0,0,1,1.45.75Z"/><path d="M10.07,114.39c-1.34,3.32-.25,5.72,1.61,8.5v0c3.17,2.35,6.45,3.55,10.26,4.82.91.3,1.81.57,2.69.84a5.43,5.43,0,0,1,.69-.89,3.42,3.42,0,0,1,.26-.46,8.3,8.3,0,0,1,2.47-2.5s.13,0,.12.06a2.17,2.17,0,0,1-.08.3,4.68,4.68,0,0,0-1.39,2.11,1.6,1.6,0,0,0-.05.29,3.63,3.63,0,0,0-.38.73c0,.08-.07.34-.11.32s.2.25.25.36a.4.4,0,0,1,0,.19,73.76,73.76,0,0,0,10.39,2.07.1.1,0,0,1,0,.18c2.14.09,4.27.57,6.43.49,2.61-.12,5.14-.2,7.7-.5,4.6-1.87,7.8-6.81,12-9.63a1.58,1.58,0,0,1-.69-.2,1,1,0,0,1-.64-.83.36.36,0,0,1,.61-.34,2.14,2.14,0,0,0,1.8-.11.38.38,0,0,1-.15-.32c-.24,0-.46-.18-.6-.55a.07.07,0,0,1,0,0,4.48,4.48,0,0,1-1.24.3c-.8,0-1.68-.82-1-1.59a.18.18,0,0,1,.29,0c.15.31,0,.75.4.9a1.73,1.73,0,0,0,.93,0c.33-.09.72-.31,1.1-.41-1-.07-2-1.33-1.16-2.08a.19.19,0,0,1,.3.22.81.81,0,1,0,1.49.64,1.63,1.63,0,0,0,0-1.13c-.17-.68-.57-1.29-.79-2a2.39,2.39,0,0,1,.18-2.2c-1.16-.3-1.09-2.79-.85-3.65a5.44,5.44,0,0,1,1.57-2.52c-1.77-.84-1.81-4.52-.71-5.84.2-.24.84-.61.9-.78.13-.39-.62-1.81-.72-2.32a7.24,7.24,0,0,1,.34-4.57c-1.51-1.08-2.47-3.67-1.49-5.31-1.23-1.5.14-3,.71-4.35.37-.91-.51-1.53-.48-2.54a2.53,2.53,0,0,1,.46-1.33l-.58.41A29,29,0,0,1,55.82,83a5.55,5.55,0,0,1-2.56.26c-1.69-.2-2.64-.41-4.13.37-1.88,1-2.47.48-4.72,0l0,0c-2.75-.31-5.62-.6-7.91-2.26l.27-.63.11,0h0c3.24.18,6.85-1.1,9.6-2,4.66-1.54,9.49-3.67,12.79-7.44,1.52-3.61,2.2-7.34.69-11.16-.6-1.53-2.13-3-2.17-4.65-.05-2,1.86-4,2.68-5.69a23.53,23.53,0,0,0,1.79-5.7c0-.47,0-.93,0-1.39,0-.19-.08-.37-.11-.55-.83-1.69-2-3.31-2.06-5.12-.16-2.64,2.17-4.12,1.36-7s-4.74-3.49-6.15-6c-1.13-2-.62-4.52-1.58-6.66-2.19-.95-4.49-1.87-6.75-2.66a35.53,35.53,0,0,0-4.64-1.54h-.42c-.8,0-1.59,0-2.41-.09-2.16.24-4.65,0-5.66-1.85h0l.09.05a.29.29,0,0,1,.35-.35,3.1,3.1,0,0,1,.43,0c-.27-.06-.32-.49,0-.51.58,0,.52-.09-.17-.33a.22.22,0,0,1,.07-.38c.55.13.72,0,.51-.5A.11.11,0,0,1,35,9a2.51,2.51,0,0,0,.54-.39c.21-.22.06-.31-.43-.31A.26.26,0,0,1,35,7.8l.39-.4A.28.28,0,0,1,35.22,7c.22-.32.6-.84.58-.84a.25.25,0,0,1-.25-.36c.2-.21.78-.86.53-.84s-.25-.13-.15-.24c.31-.35.46-.55.55-.66a.24.24,0,0,1,.07-.21c.65-.57.27-.77-.2-.77L36,1q.69-.12,1.38-.21A15.85,15.85,0,0,1,39.87.32,13.35,13.35,0,0,1,44.26.11a14.8,14.8,0,0,1,2-.06,41,41,0,0,1,5.65.71,12.29,12.29,0,0,1,4,1.15,6.12,6.12,0,0,1,1.38.48,24.75,24.75,0,0,1,8.4,4.53,7.83,7.83,0,0,1,1.93,1.82,16.25,16.25,0,0,1,1.81,2.31,32.45,32.45,0,0,1,5.85,8.42,12.57,12.57,0,0,1,1.47,3.29c2.32,4.19,2.57,9.87,3,14.52.53,5.41.88,10.86,1.53,16.25s1,10.51,1.42,15.78c.19,2.42.34,4.81.48,7.21.17,2.93.14,6.52,1.65,9.13a16.28,16.28,0,0,1,1,2c.73,1.27,1.51,2.57,2.12,3.9,1,1.9,2,3.84,3,5.68,2.06,3.82,2.14,7.36,2.56,11.61a.19.19,0,0,1,0,.08.37.37,0,0,1-.36.58,4.35,4.35,0,0,0-2.81.52l-.22.15a19.63,19.63,0,0,1-2,1.17c-.2.12-.42.23-.64.34a24.49,24.49,0,0,1-5.2,1.83c-2.1.7-4.09,1.71-6.22,2.26-2.47.64-4.63.72-6.79,2.27-.67.49-1.27,1-1.92,1.49a3.49,3.49,0,0,1-1.65,1.14,6.7,6.7,0,0,1-1.33.73,98.2,98.2,0,0,0-8,6.83c-1.75,1.63-4.4,4.24-7,4.22a.27.27,0,0,1-.17-.06c-1.84.22-3.8.06-5.55.13-3,.1-5.72-.68-8.71-1,0,0-.06,0-.06-.08-4.14.06-7.74-1.08-11.77-2.53-3.86-1.38-8.74-2.47-11.67-5.64a.26.26,0,0,1-.24,0c-2.91-2.33-3.18-5.67-2.14-8.77a.78.78,0,0,0,.11-.18.31.31,0,0,0,.07-.09c.29-.47.56-1,.81-1.46a20.39,20.39,0,0,0,1.53-2.88c.28-.47.57-1,.89-1.4l.15.11a19.54,19.54,0,0,0-1.15,2.36A35.82,35.82,0,0,1,10.07,114.39Z"/><path d="M49.3,44.19c.06-.08.2,0,.14.11-1.49,2.3-5.89,1.69-7.91.54,0,0,0,0,0,0C44,45.53,47.35,46.28,49.3,44.19Z"/><path d="M48.63,62c.07.1,0,.22-.15.22h0a.19.19,0,0,1-.19.08,4.53,4.53,0,0,0-1.47.17s0,0,0,0l-.11,0,0,0a1.56,1.56,0,0,0-.6.34l-.05.06a.88.88,0,0,0-.23.14.24.24,0,0,1-.06.11l-.08.09a6.76,6.76,0,0,1-1.18,1,7.77,7.77,0,0,1,.07,1.18,2.32,2.32,0,0,1-1.14,2.29A.27.27,0,0,1,43,67.5a3.56,3.56,0,0,0-.12-1,7.35,7.35,0,0,1-3.18,2.79,7.71,7.71,0,0,1-3.67,1,5.17,5.17,0,0,0-.39.53c-.48.77-.85,1.6-1.39,2.34-.66.91-1.8,2.17-3,1.57h0a.22.22,0,0,1-.22-.39c.21-.15.42-.31.63-.45l.1-.06a2,2,0,0,0,.57-.74l.07-.16c-1,.32-2.38.09-2.74-.64,0-.08,0-.14.12-.13l0,0a5.28,5.28,0,0,0,2.49-1.09,13.72,13.72,0,0,0,1.1-1.19,1.61,1.61,0,0,1-.43-.07,1.58,1.58,0,0,1-.58,0,2.38,2.38,0,0,1-.8-.43,1.85,1.85,0,0,1-.81-.38.15.15,0,0,0-.06,0q0,.34.06.69a.2.2,0,0,1,0,.11s0,.05,0,.07c0,.29-.37.27-.5.08A3,3,0,0,1,29,68.23a7,7,0,0,1-.46-1.44h0A2.24,2.24,0,0,1,28,66l-.13-.06a7.51,7.51,0,0,1-.46.69c-.14.19-.44,0-.33-.24a4.89,4.89,0,0,0,.36-.63c.12-.25.17-.53.28-.79s.43-.17.44.07a1.53,1.53,0,0,1-.1.5c3.63,1.31,10.16.48,13.52-1.1,1.7-.8,3.37-2.46,5.25-2.73a3,3,0,0,1-.32-.2,4.79,4.79,0,0,1-1.41-1.75,0,0,0,0,1,0,0c.66.27,1,.94,1.59,1.32S48.24,61.34,48.63,62Zm-5.12,5a2.34,2.34,0,0,0,.48-2c0-.28-.18-.7-.23-1.06-.4.24-.79.48-1.17.69A4.24,4.24,0,0,1,43.51,67Zm-4.92.1c0-.07,0-.12-.06-.16s-.37.14-.57.2-.57.2-.87.26l-.14.12A5.24,5.24,0,0,0,36,68a20.69,20.69,0,0,0-2.81,2.93,5.06,5.06,0,0,1-2.21,1.54,4.56,4.56,0,0,0,.64,0c.53,0,1-.23,1.55-.27.06,0,.11.08.09.13a1,1,0,0,1-.18.26,2.62,2.62,0,0,1-.4,1.06,2.33,2.33,0,0,1-.39.55c1.56-.79,2.18-2.78,3.26-4.13a10.29,10.29,0,0,1,2.16-2,0,0,0,0,0,0,0,3,3,0,0,0,.3-.19.33.33,0,0,0,.1-.14l.24-.17A.9.9,0,0,0,38.59,67.11Zm-8.31-.37s0-.09,0-.12A9.12,9.12,0,0,1,29,66.34c.15.39.19.9.3,1.22A4.13,4.13,0,0,0,30,69c0-.25,0-.5,0-.74a2.64,2.64,0,0,0,0-.29A2,2,0,0,1,30.28,66.74Z"/><path class="cls-3" d="M44,65.06a2.34,2.34,0,0,1-.48,2,4.24,4.24,0,0,0-.92-2.32c.38-.21.77-.45,1.17-.69C43.81,64.36,44,64.78,44,65.06Z"/><path d="M41.4,70.88s.11,0,.09.06c-.42,1.81-3.68,2-5.08,1.65t0,0a24.68,24.68,0,0,0,2.69-.43A6.69,6.69,0,0,0,41.4,70.88Z"/><path d="M38.71,56.48c1.23,1.73-.3,3.1-2.35,3.84a5,5,0,0,1-1.84.48,8.38,8.38,0,0,1-2.31.09,1.42,1.42,0,0,1-1.14-.24,2.14,2.14,0,0,1-.82-.56,5.08,5.08,0,0,1-.69-.56,2.45,2.45,0,0,0-1.29-1.25l-.12,0a.81.81,0,0,1-.1-.18.09.09,0,0,1,0-.1.49.49,0,0,1,0-.21c0-.08.13,0,.15,0a1,1,0,0,0,.08.14,2.73,2.73,0,0,1,1.23.87,10.68,10.68,0,0,0,1,.94l.35.22a2.38,2.38,0,0,0,2.53-.56.19.19,0,0,1,0-.28,3.32,3.32,0,0,1,1.81-.88l.17,0a1.85,1.85,0,0,1,1.14,0,1.73,1.73,0,0,0,2.13-1.78.09.09,0,0,1,.18,0A.43.43,0,0,1,38.71,56.48Z"/><path class="cls-1" d="M38.53,67s.09.09.06.16a.9.9,0,0,1-.28.43l-.24.17a.33.33,0,0,1-.1.14,3,3,0,0,1-.3.19,0,0,0,0,1,0,0,10.29,10.29,0,0,0-2.16,2c-1.08,1.35-1.7,3.34-3.26,4.13a2.33,2.33,0,0,0,.39-.55,2.62,2.62,0,0,0,.4-1.06,1,1,0,0,0,.18-.26s0-.14-.09-.13c-.52,0-1,.23-1.55.27a4.56,4.56,0,0,1-.64,0,5.06,5.06,0,0,0,2.21-1.54A20.69,20.69,0,0,1,36,68a5.24,5.24,0,0,1,1-.44l.14-.12c.3-.06.57-.17.87-.26S38.35,67,38.53,67Z"/><path d="M38.42,55.06s-.06.06-.08,0A3,3,0,0,0,37.66,54a.52.52,0,0,0-.44-.19c-.22,0-.35.22-.58.22a.18.18,0,0,1-.17-.17c.08-.59.91-.68,1.3-.36S38.28,54.49,38.42,55.06Z"/><path d="M35.56,5.74a0,0,0,0,1,0,0l0,0S35.55,5.76,35.56,5.74Z"/><path d="M35.22,7V7L35.16,7Z"/><path d="M35.16,7l-.08.11Z"/><path class="cls-3" d="M30.33,66.62s0,.08,0,.12a2,2,0,0,0-.23,1.18,2.64,2.64,0,0,1,0,.29c0,.24,0,.49,0,.74a4.13,4.13,0,0,1-.79-1.39c-.11-.32-.15-.83-.3-1.22A9.12,9.12,0,0,0,30.33,66.62Z"/><path d="M27.58,43.91c.05,0,.11,0,.08.09-1.06,1.44-4.45,2.09-6,1.13,0,0,0,0,0,0C23.86,45.21,25.82,45.47,27.58,43.91Z"/><path d="M88.66,61.9a2.38,2.38,0,0,0-.53-1.29,49.94,49.94,0,0,0-11.67-11,3.42,3.42,0,0,1,.07.66l.09,2c.08,1.24.18,2.5.22,3.74A46.62,46.62,0,0,1,83,62a2.41,2.41,0,0,0,.51,1.11c26.95,33.55-6.84,81.3-44.91,73.17C20.53,132.4,6.48,115.11,4.74,96.62A47,47,0,0,1,15.51,62.15a26.68,26.68,0,0,1-1.25-6.23A50.81,50.81,0,0,0,.09,88.08c-1.35,21.6,12.28,44,33.24,51,18.39,6.12,38.54-.87,50.81-14.33C99.22,108.15,102.91,81.76,88.66,61.9Z"/><path d="M267.57,100.83c-.66-4.23-2.53-9.31-6.53-11.47-3.54-1.9-8.77-.53-9.6,3.79a1.37,1.37,0,0,0,2.69.5,3.21,3.21,0,0,1,2.81-2.39,4.92,4.92,0,0,1,4.26,1.64c2.5,2.53,3.55,6.41,3.85,9.86a24.08,24.08,0,0,1-7.86,19.63,29.83,29.83,0,0,1-20.53,7.46A39.81,39.81,0,0,1,214.28,122a47.5,47.5,0,0,1-15.51-19.21,22.24,22.24,0,0,0,10.79-6.59,13.29,13.29,0,0,0-.6-18.84c-5.73-5.82-14.64-6-22.11-4.19a106.21,106.21,0,0,0-11.84,4q.54-12.59,1.05-25.19.34-8.37.71-16.75a1.38,1.38,0,0,0-2.66-.54,1.41,1.41,0,0,0-.68.4c-6.49,6.85-16.93,6.34-25.57,6.79-4.78.24-9.93.7-14.26,2.9-3.62,1.84-6.21,5.75-3.95,9.69,2.42,4.2,8.41,3.71,10.65-.36.86-1.54-1.61-2.74-2.46-1.19-1.77,3.21-6.81,1.65-6.29-2s6-4.86,8.86-5.44C148.53,43.79,157,45,165,42.84a25.37,25.37,0,0,0,5.57-2.21L146.72,87.7l-.31.12c-2.22.82-4.88,2.26-7.31,1.84-1-.18-3.1-1.9-2-3s-.46-3.42-1.69-2.16c-2.15,2.18-1.28,5.65,1.24,7.19s5.45.75,8.17-.26c-4.29,8.48-8.5,17.08-14,24.89-2.42,3.47-5.23,6.92-9,9-3.59,1.93-8.36,2.55-11.87.1a11.13,11.13,0,0,1-4.17-11.17c.92-4.53,4.21-8.1,8.14-10.33,1.54-.87,0-3.13-1.52-2.27-7.34,4.11-12.21,13.23-8,21.3a12.18,12.18,0,0,0,10.34,6.79,17.73,17.73,0,0,0,12.27-4.72c3.65-3.14,6.34-7.27,8.87-11.32,2.79-4.44,5.28-9.06,7.69-13.72q2.56-5,5.11-10l23.38-8.73-.51,12.39-.72,17c-.07,1.76,2.67,1.69,2.74-.07q.63-15.21,1.28-30.41c1.67-.64,3.36-1.31,5.08-2q.71,27.23,1.35,54.44c0,1.74,2.77,2,2.72.26q-.33-13.76-.68-27.51l4.64-.49a1.48,1.48,0,0,0,.42,0c2.54-.36,5.14-.76,7.68-1.35,7,15.95,22.83,29,40.79,29.08a32.66,32.66,0,0,0,23-9A26.67,26.67,0,0,0,267.57,100.83ZM172.23,78.19,161,82.37l-10.49,3.91q4.05-8,8.08-16,7.59-15,15.2-30Q173,59.24,172.23,78.19Zm16.43,23.87h-.17l-.49.05a1.66,1.66,0,0,0-.33,0l-4.39,0q-.3-12.42-.6-24.83c5.07-1.72,10.3-2.91,15.6-2.11a15,15,0,0,1,10,5.65,10.34,10.34,0,0,1,1.43,10.05C206.36,99.13,196.58,100.91,188.66,102.06Z"/><path d="M256.68,51.25a7.41,7.41,0,0,0-6.79,1.35,6.94,6.94,0,0,0-2.3,7c.45,1.7,3.12,1.11,2.67-.6a4.26,4.26,0,0,1,2.87-5.12A5.56,5.56,0,0,1,259,56c2.72,3.66,1.11,8.5-2.13,11.17-7.67,6.34-17.59,1-23.57-5-6.28-6.25-11-14.28-18.86-18.81a21.65,21.65,0,0,0-13.65-2.78c-4.54.6-9.33,2.62-12.17,6.35s-3.4,9.6.43,13a7,7,0,0,0,10.68-1.87c.79-1.56-1.76-2.57-2.55-1a4.06,4.06,0,0,1-4.42,1.77,4.92,4.92,0,0,1-3.63-4.22c-.82-4.74,3.31-8.4,7.28-10a18.83,18.83,0,0,1,14.87.27c4,1.82,7.24,4.84,10.17,8,1.52,1.66,3,3.41,4.47,5.15a139.2,139.2,0,0,0,1.56,60.42c.43,1.7,3.13,1.24,2.7-.47a135.5,135.5,0,0,1-2-57.32c3.85,4.36,8,8.4,13.53,10.64a17.18,17.18,0,0,0,12.67.37,13.43,13.43,0,0,0,8.26-8.26C264.12,58.57,261.85,52.65,256.68,51.25Z"/></g></g></svg>