<svg xmlns="http://www.w3.org/2000/svg" viewBox="0 0 188.58 44.76"><title>svg-name</title><g id="Layer_2" data-name="Layer 2"><g id="Layer_3" data-name="Layer 3"><path d="M26.47.72c0-1-1.49-.93-1.58,0a.84.84,0,0,0-.12.23q-1.62,4.46-3.22,8.92a76.05,76.05,0,0,1-2.88,7.08q-2.93-6-5.87-12a.79.79,0,0,0-1.54.3q-.39,10.07-.77,20.11a71.21,71.21,0,0,1-.72,9,27.09,27.09,0,0,1-1.11,4.43,10.07,10.07,0,0,1-1.9,3.62,2.34,2.34,0,0,1-3.51,0c-1.1-1.07-1.38-2.72-1.67-4.16A.79.79,0,0,0,0,38.46a10.54,10.54,0,0,0,1.62,4.45,4.41,4.41,0,0,0,3.71,1.84c3-.23,4.31-3.91,5.07-6.32a39.12,39.12,0,0,0,1.51-9.91c.19-3.59.29-7.18.43-10.77l.36-9.43c1.68,3.46,3.35,6.92,5,10.38a6.75,6.75,0,0,1,.52,1,.63.63,0,0,0,.89-.3,63.55,63.55,0,0,0,3.74-8.69c.69-1.88,1.37-3.77,2-5.65Q25.21,21,24.62,36.9c0,1,1.55.93,1.59-.08Q26.89,18.77,26.47.72Z"/><path d="M29.44,4.8c-.14,10.54-.31,21.08-.45,31.62,0,1,1.57,1.18,1.58.16.16-10.53.28-21.06.45-31.58C31,4,29.45,3.78,29.44,4.8Z"/><path d="M47.88,35.7H46.25c-.44,0-.89,0-1.33-.07a.78.78,0,0,0-.5.13l-1.94-.07-6.13-.19C36.21,25.19,36,14.88,35.9,4.58c0-1-1.61-1.11-1.59-.08q.24,15.59.45,31.18a.86.86,0,0,0,.65,1.37q3.23.12,6.47.21c1.61.05,3.23.08,4.84.2,0-.05.07-.1.1-.16.34,0,.68,0,1,0C48.86,37.26,48.91,35.7,47.88,35.7Z"/><path d="M52.85,30.46q-6.1.15-12.22.34.15-5.51.14-11l6.61-.17a.8.8,0,0,0,0-1.59l-6.58-.1c0-3.78-.09-7.56-.23-11.34l10,.2c1,0,.94-1.57-.08-1.59L40.23,5a.83.83,0,0,0-1.32.67.57.57,0,0,0,0,.13.43.43,0,0,0,0,.16q.45,12.62.12,25.26a.76.76,0,0,0,.53.78.78.78,0,0,0,.72.38q6.24-.15,12.48-.34C53.79,32,53.87,30.43,52.85,30.46Z"/><path d="M94.46,26.58l-.12-6a.08.08,0,0,0,0-.05c0-.21,0-.42,0-.63s-.08-.17-.12-.26a.71.71,0,0,0-.5-.18H86.24c-1,0-.95,1.59.07,1.59h6.51c0,.22,0,.43,0,.65l.15,7.82a10.22,10.22,0,0,1-.25,3.4c-.43,1.3-1.56,1.54-2.8,1.64-1.5.13-3,.24-4.48.35a14,14,0,0,1-4.65,0c-2.25-.6-3.75-2.69-4.43-4.82-.85-2.66-.77-5.55-.86-8.32-.09-3-.16-6-.06-9a54.21,54.21,0,0,1,.41-5.82A.71.71,0,0,0,76,6.38c-.21-2,1.8-3,3.41-3.43a18.39,18.39,0,0,1,6.13-.64,18.75,18.75,0,0,1,2.59.35,6.2,6.2,0,0,1,2.5.82c1.21.94,1.32,3.17,1.23,4.55-.07,1,1.47,1.3,1.56.27.18-2-.13-4.85-1.9-6.14A8.49,8.49,0,0,0,88.07,1,19.67,19.67,0,0,0,84.57.7a17.83,17.83,0,0,0-6.83,1.12C76,2.54,74.38,4,74.34,6c-.12.78-.2,1.56-.27,2.33a96,96,0,0,0-.28,10.59,62.77,62.77,0,0,0,.56,9.79,10.06,10.06,0,0,0,4.16,6.92c2.72,1.7,6.25.89,9.26.67,1.62-.12,3.68,0,5.06-1a4.69,4.69,0,0,0,1.66-3.51A50.71,50.71,0,0,0,94.46,26.58Z"/><path d="M130,30.45a14.08,14.08,0,0,1-10.2,7.78,11.54,11.54,0,0,1-7.05-1.13,15.56,15.56,0,0,1-4.73-4,43.21,43.21,0,0,1-4-6l.6-.23a7.48,7.48,0,0,0,4.92-5.3A7.11,7.11,0,0,0,107.48,15c-2-1.92-4.77-2.23-7.43-2.33l-7.9-.27H92a.78.78,0,0,0-.57.2.8.8,0,0,0-.26.55.74.74,0,0,0,.2.57l.09.09A.84.84,0,0,0,92,14a.68.68,0,0,0,.34-.06l4.43.15c.12,8.4.21,16.8.34,25.2,0,1,1.59,1.18,1.58.16q-.06-5.91-.15-11.8a6.21,6.21,0,0,0,3.9-.07c2.3,3.94,4.8,8.17,8.84,10.55a13.74,13.74,0,0,0,14.8-.82,16.62,16.62,0,0,0,5.21-6.05C131.8,30.36,130.44,29.54,130,30.45Zm-28.09-4.38a3.59,3.59,0,0,1-3.27-.19l0,0-.15-11.7a17.55,17.55,0,0,1,6.1.75,5.72,5.72,0,0,1,3.57,4.53,5.47,5.47,0,0,1-2.68,5.32A14.72,14.72,0,0,1,101.87,26.07Z"/><path d="M124.77,17.71a6.91,6.91,0,0,0-3.18-2.92,3,3,0,0,0-1-.43,7.54,7.54,0,0,0-2.37-.21c-1.28.1-3,.53-3.81,1.64a8.59,8.59,0,0,0-2.28,5,10.7,10.7,0,0,0,.5,5.27A6.46,6.46,0,0,0,116,29.27c2.66,1.22,6.25,1,8.11-1.49A9.88,9.88,0,0,0,124.77,17.71Zm-1.44,8.23c-1.13,2.32-3.75,2.92-6.08,2.14a5.46,5.46,0,0,1-2.83-2,7,7,0,0,1-.8-4.06,7.76,7.76,0,0,1,1.81-5h0a.6.6,0,0,1,.22-.23h0l0-.05c.28-.5,1.23-.71,1.76-.83a5.51,5.51,0,0,1,2-.12,3.22,3.22,0,0,1,1.4.35,2,2,0,0,1,.57.32,1.45,1.45,0,0,1,.47.34h0A4.81,4.81,0,0,1,123,17.85C124.64,20.13,124.53,23.47,123.33,25.94Z"/><path d="M139.71,8.64q-2.13,9.9-4.25,19.8a37.54,37.54,0,0,0-4.68-11,19.37,19.37,0,0,0-10.24-8c-1-.3-1.28,1.25-.31,1.56,9,2.8,12.43,12.54,14.46,20.76a.78.78,0,0,0,1.41.19.67.67,0,0,0,.33-.48Q138.84,20.24,141.27,9A.8.8,0,0,0,139.71,8.64Z"/><path d="M153.07,13.24l-9.31-.71-.11-.06a3.9,3.9,0,0,1-.59,0l-.19,0a.73.73,0,0,0-.26.2l-.08.07c-.05.33-.13.65-.21,1,0,0,0,0,0,0Q141.1,22.4,139.64,31a.94.94,0,0,0,0,.29.68.68,0,0,0,.61.93,78.64,78.64,0,0,0,11.69-.08c1-.08,1-1.67,0-1.59a79.93,79.93,0,0,1-10.61.15q.68-4,1.29-7.93a6,6,0,0,0,1.66.19l3.54.08c1,0,.86-1.56-.16-1.58L145,21.43a5.61,5.61,0,0,1-2.16-.22q.54-3.54,1-7.08c3,.22,6,.46,9.05.69A.79.79,0,0,0,153.07,13.24Z"/><path d="M188.23,23.86c-.59-1.95-2.31-3.7-4.5-3.41a2.94,2.94,0,0,0-2.33,4,.8.8,0,0,0,1.44-.68,1.27,1.27,0,0,1,.41-1.5,1.82,1.82,0,0,1,2,0c1.39.75,1.76,2.59,1.75,4a9.29,9.29,0,0,1-3.25,6.74c-4.69,4.13-11.79,2.66-16-1.36a15.38,15.38,0,0,1-4.56-8.7c2.78-.68,5.17-2.34,5.57-5.33.3-2.29.18-4.79-1.73-6.33s-4.31-1.86-6.51-2.28a54.56,54.56,0,0,0-9.79-.93.8.8,0,0,0,0,1.59A51.93,51.93,0,0,1,156,10a7.53,7.53,0,0,1,.07,2.12v.13a.15.15,0,0,1,0,.07v0a1.61,1.61,0,0,1,0,.38,3.23,3.23,0,0,1,0,.44l0,.06A156.91,156.91,0,0,1,154.41,36a.43.43,0,0,1,0,0l-.06.47c-.15,1,1.43,1.19,1.58.18q1-6.72,1.43-13.5a14.11,14.11,0,0,0,4.23.14c1.18,7.15,6.95,13.15,14.3,13.81a11.83,11.83,0,0,0,9.77-3.69A10.13,10.13,0,0,0,188.23,23.86Zm-30.79-2.31q.27-5,.22-10s0-.06,0-.09a8.16,8.16,0,0,0-.07-1.3l.25,0a30.47,30.47,0,0,1,6.27,1.35,5.54,5.54,0,0,1,2.37,1.45,3.79,3.79,0,0,1,.73,2.62,7.58,7.58,0,0,1-.36,3,4.48,4.48,0,0,1-2.24,2.07A10.44,10.44,0,0,1,157.44,21.55Z"/><path d="M68,30.77a7.59,7.59,0,0,0-5.53-4.25c-1.54-.25-3-.24-4.32-1.09a8.84,8.84,0,0,1-2.74-2.87,10.8,10.8,0,0,1-1.28-9,6.94,6.94,0,0,1,5.64-4.71A5.83,5.83,0,0,1,66,14.27c.09,1.29-.22,3.37-1.94,3.19a1.5,1.5,0,0,1-.65-2.7c.8-.65-.24-1.85-1-1.21a3.09,3.09,0,0,0,1.7,5.5c3.35.17,4-3.88,3.26-6.38a7.42,7.42,0,0,0-6.42-5.35A8,8,0,0,0,53.8,10.8c-3.48,5-1.48,13,3.68,16.1a10.61,10.61,0,0,0,4.46,1.15,5.62,5.62,0,0,1,3.58,1.87,6.77,6.77,0,0,1,1.22,7.17,8.87,8.87,0,0,1-7.2,5c-3.28.34-7.38-1.64-7.16-5.44.06-1-1.51-1.27-1.57-.25a6.81,6.81,0,0,0,3.88,6.43,9.94,9.94,0,0,0,8.15,0C67.53,40.89,70.35,35.59,68,30.77Z"/></g></g></svg>