<svg xmlns="http://www.w3.org/2000/svg" viewBox="0 0 56.27 29.57"><defs><style>.cls-1{fill:#9cb2a9;}</style></defs><title>svg-divider</title><g id="Layer_2" data-name="Layer 2"><g id="Layer_3" data-name="Layer 3"><path class="cls-1" d="M26.84,17.4a8.29,8.29,0,0,0-9.56-5.8c-4.55.8-6.58,4.78-7.93,8.76-.64,1.88-1.26,4.8-3,6a2.2,2.2,0,0,1-3.08-1A3.18,3.18,0,0,1,3,23.24a4.07,4.07,0,0,1,.31-.91l.25-.46a.53.53,0,0,0,.26-.39,1.51,1.51,0,0,0,2.4-1.71c-.83-1.88-3.12-1.75-4.4-.45A6.89,6.89,0,0,0,.11,25.24c.77,3.91,5.55,5.79,8.55,3s3.1-7.27,5-10.6c1.8-3.17,6.2-4.51,9-1.75a5.53,5.53,0,0,1,1.15,5.78,4.51,4.51,0,0,1-2,2.42,2.1,2.1,0,0,1-2.12.16c-.5-.29-1-1.2-.25-1.52,1.76-.7.8-3.51-1-2.79a3.71,3.71,0,0,0-2.16,4.76,4.57,4.57,0,0,0,5.36,2.58C26,26.28,27.87,21.33,26.84,17.4Z"/><path class="cls-1" d="M29.43,17.4A8.29,8.29,0,0,1,39,11.6c4.55.8,6.58,4.78,7.93,8.76.64,1.88,1.26,4.8,3,6a2.2,2.2,0,0,0,3.08-1,3.18,3.18,0,0,0,.22-2.13,4.07,4.07,0,0,0-.31-.91l-.25-.46a.53.53,0,0,1-.26-.39A1.51,1.51,0,0,1,50,19.77c.83-1.88,3.12-1.75,4.4-.45a6.89,6.89,0,0,1,1.74,5.92c-.77,3.91-5.55,5.79-8.55,3s-3.1-7.27-5-10.6c-1.8-3.17-6.2-4.51-9-1.75a5.53,5.53,0,0,0-1.15,5.78,4.51,4.51,0,0,0,2,2.42,2.1,2.1,0,0,0,2.12.16c.5-.29,1-1.2.25-1.52-1.76-.7-.8-3.51,1-2.79A3.71,3.71,0,0,1,39.9,24.7a4.57,4.57,0,0,1-5.36,2.58C30.28,26.28,28.4,21.33,29.43,17.4Z"/><path class="cls-1" d="M29.55,3.23C31.07.86,33.9-.66,36.7.29A5,5,0,0,1,39.88,6.6a4.65,4.65,0,0,1-6.23,2.7C31.88,8.62,33.29,6,35,6.69c1.39.53,2.43-1,2.07-2.25-.48-1.57-2.42-1.82-3.65-1.05-2.81,1.75-3.45,6.48-3.8,9.49a1.48,1.48,0,0,1-2.93-.36C27.1,9.36,27.8,5.94,29.55,3.23Z"/><path class="cls-1" d="M26.72,3.23C25.2.86,22.37-.66,19.57.29A5,5,0,0,0,16.39,6.6a4.65,4.65,0,0,0,6.23,2.7C24.39,8.62,23,6,21.23,6.69c-1.39.53-2.43-1-2.07-2.25.48-1.57,2.42-1.82,3.65-1.05,2.81,1.75,3.45,6.48,3.8,9.49a1.48,1.48,0,0,0,2.93-.36C29.17,9.36,28.47,5.94,26.72,3.23Z"/></g></g></svg>