<svg xmlns="http://www.w3.org/2000/svg" viewBox="0 0 137.43 172.68"><defs><style>.cls-1{fill:#9cb2a9;}.cls-2{fill:#ff1a6d;}</style></defs><title>svg-skull</title><g id="Layer_2" data-name="Layer 2"><g id="Layer_4" data-name="Layer 4"><path d="M18.47,148.12c16.59,18.21,43.84,27.67,68.7,19.39,28.35-9.44,46.78-39.69,45-68.91-1.72-27.49-19.64-51-44.55-59.93-25.88-9.23-56.46-.55-74.51,22.78a3.2,3.2,0,0,0-.71,1.76C-6.92,90.05-1.93,125.75,18.47,148.12ZM80,163c-51.51,11-97.19-53.58-60.75-98.94a3.12,3.12,0,0,0,.69-1.5C38.64,41,69,35.68,92.71,47.88c21.82,11.22,35.54,35.7,33.13,61.54C123.49,134.4,104.48,157.8,80,163Z" transform="translate(-0.25)"/><path class="cls-1" d="M19.28,64.08C-17.16,109.44,28.52,174,80,163c24.45-5.22,43.46-28.62,45.81-53.6,2.41-25.84-11.31-50.32-33.13-61.54C69,35.68,38.64,41,20,62.58A3.12,3.12,0,0,1,19.28,64.08Z" transform="translate(-0.25)"/><path class="cls-2" d="M13.82,46.41c-.11,2.56-.18,5.19-.13,7.84A10.87,10.87,0,0,1,14.9,52.5c.38-.45,1.28-.08,1,.52a28.72,28.72,0,0,0-2,6c.08,1.2.18,2.39.32,3.57.29-1.11.67-2.19,1-3.18a.54.54,0,0,1,1,.31,36.5,36.5,0,0,0-.81,4,30.92,30.92,0,0,1-.53,3.6A46.61,46.61,0,0,0,16,72l.11.35c0-.7.11-1.38.2-2,.1-.8,1.24-.6,1.21.17-.07,2,.43,4,.35,5.93a.66.66,0,0,1,0,.15C23.55,87.77,36,93,47.87,98.36c0,0-.09-.12-.14-.18a.57.57,0,0,1,.89-.7c.6.68,1.21,1.34,1.77,2,.63.28,1.26.58,1.89.89l-.81-1.18c-.39-.56.38-1.26.81-.7l1.28,1.63a6.4,6.4,0,0,1,.95,1.32c.68.33,1.35.68,2,1-.41-.7-.81-1.42-1.22-2.12-.26-.48.55-1,.82-.5L57.4,102a.51.51,0,0,1-.3.79c1.57.83,3.09,1.7,4.54,2.62a22.69,22.69,0,0,0,2.92,2.45l.61,1.09a1.27,1.27,0,0,1-.06.18q3.6,8.07,7.22,16.14A63.53,63.53,0,0,0,76,132.71c.87,1.39,2.88,4.2,4.65,5A5.59,5.59,0,0,1,81,136.6c.17-.5.41-1,.62-1.47a.54.54,0,0,1,1,.32c-.11.49-.19,1-.33,1.49a9.58,9.58,0,0,1-.3,1c.78-.24,1.42-1.2,1.74-3.33.26-1.76,2.93-1.07,2.68.67,0,.1,0,.19,0,.29a8.52,8.52,0,0,0,.37,1h0a1.3,1.3,0,0,1,.4.51c1.89,3.94,7.1,2.2,7.29-1.64a1.09,1.09,0,0,1,0-.4,1.63,1.63,0,0,0,0-.31c-.18-1.77,2.58-1.78,2.77,0v.1c1.18,1.83,2.24,4.22,5.55,1.89,1.43-1,2.52-4.49,3-5.94a1.4,1.4,0,0,1,2.51-.45c3,4.36,6.59-2.94,7.26-5.25.77-2.64,1.37-5.34,1.93-8A140.62,140.62,0,0,0,120,98.71a1.2,1.2,0,0,1,0-.38,1.15,1.15,0,0,1,.62-.8.18.18,0,0,1,.07,0,54.21,54.21,0,0,0,7.34-4.6c-.1-.58-.16-1.17-.25-1.74s.8-.87,1-.28c.12.35.25.7.37,1.06a18.28,18.28,0,0,0,1.69-1.72c-.08-.28-.15-.55-.22-.8-.15-.56.66-1.05,1-.48l.12.2c.15-.22.3-.44.45-.68,3-4.67,3-10.52,2.45-15.85A133.65,133.65,0,0,0,128.55,43a64.64,64.64,0,0,0-4-9.27A2,2,0,0,1,123,33.4c-.44-.29-.36-1.08.25-1.08a2.36,2.36,0,0,0,.57-.1c-.37-.67-.75-1.33-1.17-2a2.35,2.35,0,0,1-1,.14.65.65,0,0,1-.06-1.3,1.23,1.23,0,0,0,.29-.08q-.7-1.11-1.5-2.16c-.45.49-1,.93-1.45,1.39s-1.28-.09-.91-.66.85-1.42,1.36-2.06c-.23-.29-.46-.58-.71-.86l-.34.1c-.55.16-.84-.58-.54-1,0,0,0-.08,0-.12s0,0,0,0a43.09,43.09,0,0,0-4.52-4.44c-7.82-6.56-17.86-8.95-27.56-11.26C66.27,3.31,38.82-3.31,24,14.47c-6.66,8-9.3,18.27-9.94,28.45,0,.53-.07,1-.09,1.59a4.46,4.46,0,0,1,1.15-.46c.57-.16.73.68.28.92A4.78,4.78,0,0,0,13.82,46.41ZM26,82.9a3.62,3.62,0,0,1,1.42-4.6,3.63,3.63,0,0,1-.71-1.38c-.16-.5.58-1,.86-.45a8.33,8.33,0,0,0,1.12,1.25,6.88,6.88,0,0,1,3.81.12,11.06,11.06,0,0,1-.81-2.37c-.11-.53.67-.94.93-.4a15.94,15.94,0,0,0,2.55,3.79h0c.62.29,1.21.59,1.75.88.71.36,1.38.78,2.1,1.12l.34.1a20,20,0,0,1-3.25-6.85.52.52,0,0,1,1-.28,19.51,19.51,0,0,0,2.58,4.8,30.3,30.3,0,0,0,2.41,2.65A8.72,8.72,0,0,0,44.23,81a19.79,19.79,0,0,1-5-10.69.51.51,0,0,1,1-.2,23.25,23.25,0,0,0,3.48,7.08c.73,1,1.57,2,2.38,2.93h0a.05.05,0,0,1,0,0l0,0a6.12,6.12,0,0,0,.78-1.2s0,0,0,0a2.87,2.87,0,0,0-.07-1.55.22.22,0,0,0,0-.13h0a22.58,22.58,0,0,1-4.74-9.35c-.13-.6.71-.74,1-.28.77,1.4,1.44,2.82,2.21,4.21a22.49,22.49,0,0,1,.66-11.58c.54-1.69,3.21-1,2.67.74-1.84,5.79-.46,10.22,1,15.91.15.54.29,1.1.4,1.66,0,.08.1.14.15.22a.49.49,0,0,1,0,.67,4.67,4.67,0,0,1-1.29,4.35c-1.84,1.68-4.65,1.72-6.93,1.22a18,18,0,0,1-4.23-1.64l-.94-.45c-2.57-1.18-9.36-4-8.09-.65C29.27,83.84,26.61,84.57,26,82.9ZM58.81,71.42C58.18,66,59,59.79,63.32,56a10.33,10.33,0,0,1,6.6-2.57,1.34,1.34,0,0,1,.14-.11l.75.12.2,0,.29.06.19,0,.93.21a13.15,13.15,0,0,1,7.3,4l0,0a15.73,15.73,0,0,1,3.92,5.84c.12.12.22.26.32.38a27.63,27.63,0,0,1,2.41,7.43c1.48,8.39,0,25.64-12.13,24.49C63,94.89,59.86,80.66,58.81,71.42ZM97.07,106a1.39,1.39,0,0,1-1.48-1.62q2-10.12,4.8-20.08a1.4,1.4,0,0,1,2.5-.5,56.36,56.36,0,0,1,7.72,19,2.24,2.24,0,0,1,0,.24,1.43,1.43,0,0,1-1.15,2.45A39.83,39.83,0,0,0,97.07,106Zm13.62-25.67c-1-6.27-.3-12.65.94-18.84.75-3.77,1.3-8.5,5.57-9.85a7.43,7.43,0,0,1,4.38,0,10.93,10.93,0,0,1,1.46.7,11.48,11.48,0,0,1,1.65,1.18c1,1.37,2.08,2.75,3.07,4.16a.8.8,0,0,1-.16.08c3.15,4.89,4.15,11.58,4.25,17.11.09,4.65-.95,9.33-4,12.93-2.55,3-7.28,5.68-11.26,3.92S111.32,84.18,110.69,80.37Z" transform="translate(-0.25)"/><path class="cls-2" d="M32.53,104.73c-.48,3.51,2,6.57,3.93,9.21a60,60,0,0,1,7,11.49A45,45,0,0,1,47,138.3a37.54,37.54,0,0,1,.2,6.45c-.06,1.07-.22,2.14-.32,3.21-.25,2.36-1.53,11,4.65,9a1.25,1.25,0,0,1,.7-.25c9.41-.66,15.25,6.26,23,10.26,5.51,2.86,11.48,3.31,17.46,2.7A17.37,17.37,0,0,1,95,166.75a.51.51,0,0,1,.83.58,16.75,16.75,0,0,1-1.21,2l-.08.13,1.13-.16c.5-.76,1.07-1.51,1.58-2.28.8-1.24,1.57-2.5,2.35-3.76.3-.48,1.2-.19,1,.4a26,26,0,0,1-2.51,5.23l1.41-.28a11.06,11.06,0,0,1,.93-1.34,7.35,7.35,0,0,1,2-1.91.51.51,0,0,1,.69.69,21.2,21.2,0,0,1-1.54,2.12c1.88-.42,3.74-.88,5.57-1.34a1.19,1.19,0,0,1,.91.11c4.7-.71,6.82-5.18,6.6-9.55-.1-2.07-1.44-10.1-4.37-9.95a1.23,1.23,0,0,1-.76-.18,3.66,3.66,0,0,0-2.44,5.11s0,.07,0,.11a5.46,5.46,0,0,1,.37,1.27c.29,1.74-2.37,2.49-2.66.73a3.38,3.38,0,0,0-3.18-3,3.24,3.24,0,0,0-3,3.71,1.37,1.37,0,0,1-1.35,1.56,1.47,1.47,0,0,1-2-1.38,2.79,2.79,0,0,0-2.6-2.81,2.75,2.75,0,0,0-2.49,3.28A1.38,1.38,0,0,1,89,157.49c-.59,1.24-2.79.42-2.53-1.17.74-4.4-5.55-6.15-7.23-2.1a1.45,1.45,0,0,1,0,.78c-.1.48-.21,1-.32,1.45a1.4,1.4,0,0,1-1.74.88c-2.34-.72-3.88-2.35-5.78-3.79a17.08,17.08,0,0,0-7.87-3.29,1.29,1.29,0,0,1-.52-.18,1.5,1.5,0,0,1-1.85-1.44c0-.66,0-1.33,0-2l-.16-.12c-.33-.24-.72-.37-1-.61a.67.67,0,0,1,.18-1.21,1.77,1.77,0,0,1,1,.05c0-.4,0-.8,0-1.21-.2-.15-.4-.31-.61-.45A4.32,4.32,0,0,1,59.05,142a.61.61,0,0,1,.38-.89,2.16,2.16,0,0,1,1.72.47c0-1,0-2.07-.11-3.1-.18-.1-.34-.2-.52-.28-.48-.22-1.15-.29-1.46-.76a.66.66,0,0,1,.16-.89,1.73,1.73,0,0,1,1.69,0c-.08-1-.19-2.08-.32-3.12a4.81,4.81,0,0,1-3.25-1.31c-.41-.44.07-1.1.59-1.07a6,6,0,0,1,1.7.38l.69.21a35.87,35.87,0,0,0-.87-3.64,4.08,4.08,0,0,1-3.16-.63c-.46-.36,0-1,.42-1a8.46,8.46,0,0,1,1.73.17l.54,0c-.42-1.28-.9-2.52-1.41-3.77l-.85.2c-.59.11-1.3.34-1.8-.08a.71.71,0,0,1-.18-1c.37-.58,1-.57,1.65-.64l.54,0c-.34-.81-.69-1.63-1-2.47a4.2,4.2,0,0,1-1.33.69.85.85,0,0,1-1-.26,1,1,0,0,1-.17-.61.81.81,0,0,1,.51-.68c.5-.14,1-.33,1.46-.5-1.13-3.74.19-7.81-3-10.9-1.77-1.72-5.3-3.18-7.64-1.63-1.65,1.09-1.24,2.54-2.39,3.68a1.4,1.4,0,0,1-2.17-.27l-.2-.29a1.28,1.28,0,0,1,.13-1.54,11.94,11.94,0,0,1-.65-1.44.55.55,0,0,1,.93-.54,8.27,8.27,0,0,1,.71.94c.1-.22.19-.46.28-.69l-.22-.27a9.8,9.8,0,0,0-1.41-1.32c-.47-.35,0-1,.52-.8a5,5,0,0,1,1.84,1.13,2,2,0,0,1,.24-.26C39.06,100.9,33.3,98.93,32.53,104.73Z" transform="translate(-0.25)"/><path d="M24.87,9.51C41.29-5.71,67.78.81,87.07,5.43c9.73,2.32,19.6,4.89,27.52,11.31A48.5,48.5,0,0,1,126.4,31.26a68.48,68.48,0,0,1,4,8.62,113.58,113.58,0,0,1,7.29,36.91c.07,5.09-.88,10.25-4,14.38-.29.39-.6.75-.92,1.11-2.76,3.1-6.43,5.23-10,7.25-.71,9.59-1.77,20.5-5.55,29.37-1.6,3.78-6,6.81-9.46,4.6a16.74,16.74,0,0,1-4,6.52,6.78,6.78,0,0,1,.49,2.16,6.6,6.6,0,0,1,6.65,1.81,1.45,1.45,0,0,1,.27.41l.21,0a1.32,1.32,0,0,1,1.05.72c3.85,1.93,5.18,9.39,5.2,13,0,5.71-3.57,10.91-9.43,11.61a1.32,1.32,0,0,1-.71-.11c-3.87,1-7.84,1.92-11.83,2.5a42.08,42.08,0,0,1-13.76,0c-10.52-2-18-13.29-28.89-12.67h0c-5.89,2.2-9.09-3.84-8.91-8.87s.93-9.62,0-14.67a44.5,44.5,0,0,0-5.34-14c-3.29-5.68-10.8-11.84-8.37-19.19,2.32-7.06,9.83-4.89,14.23-1.31a1.58,1.58,0,0,1,.42.52,8.55,8.55,0,0,1,3.14-.33,8.86,8.86,0,0,1,1.86.35l-.15-.07c-16.32-8-34.4-14-37.48-34.69-.36-2.4-.67-4.89-.9-7.43C9.66,42.12,11.56,21.85,24.87,9.51Zm19.84,95.42c-1.65,1.09-1.24,2.54-2.39,3.68a1.4,1.4,0,0,1-2.17-.27l-.2-.29a1.28,1.28,0,0,1,.13-1.54,11.94,11.94,0,0,1-.65-1.44.55.55,0,0,1,.93-.54,8.27,8.27,0,0,1,.71.94c.1-.22.19-.46.28-.69l-.22-.27a9.8,9.8,0,0,0-1.41-1.32c-.47-.35,0-1,.52-.8a5,5,0,0,1,1.84,1.13,2,2,0,0,1,.24-.26c-3.26-2.36-9-4.33-9.79,1.47-.48,3.51,2,6.57,3.93,9.21a60,60,0,0,1,7,11.49A45,45,0,0,1,47,138.3a37.54,37.54,0,0,1,.2,6.45c-.06,1.07-.22,2.14-.32,3.21-.25,2.36-1.53,11,4.65,9a1.25,1.25,0,0,1,.7-.25c9.41-.66,15.25,6.26,23,10.26,5.51,2.86,11.48,3.31,17.46,2.7A17.37,17.37,0,0,1,95,166.75a.51.51,0,0,1,.83.58,16.75,16.75,0,0,1-1.21,2l-.08.13,1.13-.16c.5-.76,1.07-1.51,1.58-2.28.8-1.24,1.57-2.5,2.35-3.76.3-.48,1.2-.19,1,.4a26,26,0,0,1-2.51,5.23l1.41-.28a11.06,11.06,0,0,1,.93-1.34,7.35,7.35,0,0,1,2-1.91.51.51,0,0,1,.69.69,21.2,21.2,0,0,1-1.54,2.12c1.88-.42,3.74-.88,5.57-1.34a1.19,1.19,0,0,1,.91.11c4.7-.71,6.82-5.18,6.6-9.55-.1-2.07-1.44-10.1-4.37-9.95a1.23,1.23,0,0,1-.76-.18,3.66,3.66,0,0,0-2.44,5.11s0,.07,0,.11a5.46,5.46,0,0,1,.37,1.27c.29,1.74-2.37,2.49-2.66.73a3.38,3.38,0,0,0-3.18-3,3.24,3.24,0,0,0-3,3.71,1.37,1.37,0,0,1-1.35,1.56,1.47,1.47,0,0,1-2-1.38,2.79,2.79,0,0,0-2.6-2.81,2.75,2.75,0,0,0-2.49,3.28A1.38,1.38,0,0,1,89,157.49c-.59,1.24-2.79.42-2.53-1.17.74-4.4-5.55-6.15-7.23-2.1a1.45,1.45,0,0,1,0,.78c-.1.48-.21,1-.32,1.45a1.4,1.4,0,0,1-1.74.88c-2.34-.72-3.88-2.35-5.78-3.79a17.08,17.08,0,0,0-7.87-3.29,1.29,1.29,0,0,1-.52-.18,1.5,1.5,0,0,1-1.85-1.44c0-.66,0-1.33,0-2l-.16-.12c-.33-.24-.72-.37-1-.61a.67.67,0,0,1,.18-1.21,1.77,1.77,0,0,1,1,.05c0-.4,0-.8,0-1.21-.2-.15-.4-.31-.61-.45A4.32,4.32,0,0,1,59.05,142a.61.61,0,0,1,.38-.89,2.16,2.16,0,0,1,1.72.47c0-1,0-2.07-.11-3.1-.18-.1-.34-.2-.52-.28-.48-.22-1.15-.29-1.46-.76a.66.66,0,0,1,.16-.89,1.73,1.73,0,0,1,1.69,0c-.08-1-.19-2.08-.32-3.12a4.81,4.81,0,0,1-3.25-1.31c-.41-.44.07-1.1.59-1.07a6,6,0,0,1,1.7.38l.69.21a35.87,35.87,0,0,0-.87-3.64,4.08,4.08,0,0,1-3.16-.63c-.46-.36,0-1,.42-1a8.46,8.46,0,0,1,1.73.17l.54,0c-.42-1.28-.9-2.52-1.41-3.77l-.85.2c-.59.11-1.3.34-1.8-.08a.71.71,0,0,1-.18-1c.37-.58,1-.57,1.65-.64l.54,0c-.34-.81-.69-1.63-1-2.47a4.2,4.2,0,0,1-1.33.69.85.85,0,0,1-1-.26,1,1,0,0,1-.17-.61.81.81,0,0,1,.51-.68c.5-.14,1-.33,1.46-.5-1.13-3.74.19-7.81-3-10.9C50.58,104.84,47.05,103.38,44.71,104.93Zm42.63,36.19a7.33,7.33,0,0,1-1.73-1.52,4.06,4.06,0,0,1-.36-.46,4.22,4.22,0,0,1-2.91,2.14c-3,.58-5.33-2.52-6.93-4.6-2.58-3.36-4.27-7.32-6-11.17Q65.73,117.26,62,109a71.45,71.45,0,0,0-8.75-5.31l-.13-.07a11.19,11.19,0,0,1,4,5.48c1.07,3.39.22,6.45,1.93,9.82a39.13,39.13,0,0,1,3.16,8.26,70.52,70.52,0,0,1,1.71,16.71c0,1.22,0,2.44,0,3.65a20.66,20.66,0,0,1,7,2.36c2,1.11,3.55,2.92,5.49,4.06a.77.77,0,0,1,0-.19,6.81,6.81,0,0,1,8-4.51,6.27,6.27,0,0,1,3.91,3.12,5.52,5.52,0,0,1,1.49-1.63A13.44,13.44,0,0,1,87.34,141.12ZM16,72l.11.35c0-.7.11-1.38.2-2,.1-.8,1.24-.6,1.21.17-.07,2,.43,4,.35,5.93a.66.66,0,0,1,0,.15C23.55,87.77,36,93,47.87,98.36c0,0-.09-.12-.14-.18a.57.57,0,0,1,.89-.7c.6.68,1.21,1.34,1.77,2,.63.28,1.26.58,1.89.89l-.81-1.18c-.39-.56.38-1.26.81-.7l1.28,1.63a6.4,6.4,0,0,1,.95,1.32c.68.33,1.35.68,2,1-.41-.7-.81-1.42-1.22-2.12-.26-.48.55-1,.82-.5L57.4,102a.51.51,0,0,1-.3.79c1.57.83,3.09,1.7,4.54,2.62a22.69,22.69,0,0,0,2.92,2.45l.61,1.09a1.27,1.27,0,0,1-.06.18q3.6,8.07,7.22,16.14A63.53,63.53,0,0,0,76,132.71c.87,1.39,2.88,4.2,4.65,5A5.59,5.59,0,0,1,81,136.6c.17-.5.41-1,.62-1.47a.54.54,0,0,1,1,.32c-.11.49-.19,1-.33,1.49a9.58,9.58,0,0,1-.3,1c.78-.24,1.42-1.2,1.74-3.33.26-1.76,2.93-1.07,2.68.67,0,.1,0,.19,0,.29a8.52,8.52,0,0,0,.37,1h0a1.3,1.3,0,0,1,.4.51c1.89,3.94,7.1,2.2,7.29-1.64a1.09,1.09,0,0,1,0-.4,1.63,1.63,0,0,0,0-.31c-.18-1.77,2.58-1.78,2.77,0v.1c1.18,1.83,2.24,4.22,5.55,1.89,1.43-1,2.52-4.49,3-5.94a1.4,1.4,0,0,1,2.51-.45c3,4.36,6.59-2.94,7.26-5.25.77-2.64,1.37-5.34,1.93-8A140.62,140.62,0,0,0,120,98.71a1.2,1.2,0,0,1,0-.38,1.15,1.15,0,0,1,.62-.8.18.18,0,0,1,.07,0,54.21,54.21,0,0,0,7.34-4.6c-.1-.58-.16-1.17-.25-1.74s.8-.87,1-.28c.12.35.25.7.37,1.06a18.28,18.28,0,0,0,1.69-1.72c-.08-.28-.15-.55-.22-.8-.15-.56.66-1.05,1-.48l.12.2c.15-.22.3-.44.45-.68,3-4.67,3-10.52,2.45-15.85A133.65,133.65,0,0,0,128.55,43a64.64,64.64,0,0,0-4-9.27A2,2,0,0,1,123,33.4c-.44-.29-.36-1.08.25-1.08a2.36,2.36,0,0,0,.57-.1c-.37-.67-.75-1.33-1.17-2a2.35,2.35,0,0,1-1,.14.65.65,0,0,1-.06-1.3,1.23,1.23,0,0,0,.29-.08q-.7-1.11-1.5-2.16c-.45.49-1,.93-1.45,1.39s-1.28-.09-.91-.66.85-1.42,1.36-2.06c-.23-.29-.46-.58-.71-.86l-.34.1c-.55.16-.84-.58-.54-1,0,0,0-.08,0-.12s0,0,0,0a43.09,43.09,0,0,0-4.52-4.44c-7.82-6.56-17.86-8.95-27.56-11.26C66.27,3.31,38.82-3.31,24,14.47c-6.66,8-9.3,18.27-9.94,28.45,0,.53-.07,1-.09,1.59a4.46,4.46,0,0,1,1.15-.46c.57-.16.73.68.28.92a4.78,4.78,0,0,0-1.53,1.44c-.11,2.56-.18,5.19-.13,7.84A10.87,10.87,0,0,1,14.9,52.5c.38-.45,1.28-.08,1,.52a28.72,28.72,0,0,0-2,6c.08,1.2.18,2.39.32,3.57.29-1.11.67-2.19,1-3.18a.54.54,0,0,1,1,.31,36.5,36.5,0,0,0-.81,4,30.92,30.92,0,0,1-.53,3.6A46.61,46.61,0,0,0,16,72Z" transform="translate(-0.25)"/><path d="M27.41,78.3a3.63,3.63,0,0,1-.71-1.38c-.16-.5.58-1,.86-.45a8.33,8.33,0,0,0,1.12,1.25,6.88,6.88,0,0,1,3.81.12,11.06,11.06,0,0,1-.81-2.37c-.11-.53.67-.94.93-.4a15.94,15.94,0,0,0,2.55,3.79h0c.62.29,1.21.59,1.75.88.71.36,1.38.78,2.1,1.12l.34.1a20,20,0,0,1-3.25-6.85.52.52,0,0,1,1-.28,19.51,19.51,0,0,0,2.58,4.8,30.3,30.3,0,0,0,2.41,2.65A8.72,8.72,0,0,0,44.23,81a19.79,19.79,0,0,1-5-10.69.51.51,0,0,1,1-.2,23.25,23.25,0,0,0,3.48,7.08c.73,1,1.57,2,2.38,2.93h0a.05.05,0,0,1,0,0l0,0a6.12,6.12,0,0,0,.78-1.2s0,0,0,0a2.87,2.87,0,0,0-.07-1.55.22.22,0,0,0,0-.13h0a22.58,22.58,0,0,1-4.74-9.35c-.13-.6.71-.74,1-.28.77,1.4,1.44,2.82,2.21,4.21a22.49,22.49,0,0,1,.66-11.58c.54-1.69,3.21-1,2.67.74-1.84,5.79-.46,10.22,1,15.91.15.54.29,1.1.4,1.66,0,.08.1.14.15.22a.49.49,0,0,1,0,.67,4.67,4.67,0,0,1-1.29,4.35c-1.84,1.68-4.65,1.72-6.93,1.22a18,18,0,0,1-4.23-1.64l-.94-.45c-2.57-1.18-9.36-4-8.09-.65.62,1.67-2,2.4-2.66.73A3.62,3.62,0,0,1,27.41,78.3Z" transform="translate(-0.25)"/><path d="M63.32,56a10.33,10.33,0,0,1,6.6-2.57,1.34,1.34,0,0,1,.14-.11l.75.12.2,0,.29.06.19,0,.93.21a13.15,13.15,0,0,1,7.3,4l0,0a15.73,15.73,0,0,1,3.92,5.84c.12.12.22.26.32.38a27.63,27.63,0,0,1,2.41,7.43c1.48,8.39,0,25.64-12.13,24.49C63,94.89,59.86,80.66,58.81,71.42,58.18,66,59,59.79,63.32,56Z" transform="translate(-0.25)"/><path d="M100.39,84.34a1.4,1.4,0,0,1,2.5-.5,56.36,56.36,0,0,1,7.72,19,2.24,2.24,0,0,1,0,.24,1.43,1.43,0,0,1-1.15,2.45,39.83,39.83,0,0,0-12.42.5,1.39,1.39,0,0,1-1.48-1.62Q97.63,94.3,100.39,84.34Z" transform="translate(-0.25)"/><path d="M111.63,61.53c.75-3.77,1.3-8.5,5.57-9.85a7.43,7.43,0,0,1,4.38,0,10.93,10.93,0,0,1,1.46.7,11.48,11.48,0,0,1,1.65,1.18c1,1.37,2.08,2.75,3.07,4.16a.8.8,0,0,1-.16.08c3.15,4.89,4.15,11.58,4.25,17.11.09,4.65-.95,9.33-4,12.93-2.55,3-7.28,5.68-11.26,3.92s-5.23-7.58-5.86-11.39C109.66,74.1,110.39,67.72,111.63,61.53Z" transform="translate(-0.25)"/><path d="M68.48,109.82c.3-.59,1.33-.38,1.18.34s-.24,1.24-.35,1.87a4.23,4.23,0,0,1-.38,1.77.67.67,0,0,1-1.15-.09,3.06,3.06,0,0,1,0-2A8.34,8.34,0,0,1,68.48,109.82Z" transform="translate(-0.25)"/><path d="M70.09,112.45a.57.57,0,0,1,1.1.23c0,.73-.12,1.46-.23,2.18a2.68,2.68,0,0,1-.63,1.81.61.61,0,0,1-1-.2,2.7,2.7,0,0,1,.11-1.91C69.65,113.85,69.86,113.15,70.09,112.45Z" transform="translate(-0.25)"/><path d="M72.71,117.23c0,.62,0,1.25,0,1.87a5.84,5.84,0,0,1,0,1.82c-.14.47-.9.8-1.19.24-.64-1.24-.21-2.87.24-4.11A.52.52,0,0,1,72.71,117.23Z" transform="translate(-0.25)"/><path d="M73.57,121.92a.54.54,0,0,1,1,.11,20.18,20.18,0,0,1,0,2.2,3.51,3.51,0,0,1-.45,2,.63.63,0,0,1-1.07-.12,3.48,3.48,0,0,1,0-2.07A19.43,19.43,0,0,1,73.57,121.92Z" transform="translate(-0.25)"/><path d="M76.35,125.83a13.82,13.82,0,0,1-.39,3.28.64.64,0,0,1-1.18.08,4.18,4.18,0,0,1,.5-3.72A.59.59,0,0,1,76.35,125.83Z" transform="translate(-0.25)"/><path d="M78,129.21c-.11.6-.21,1.2-.31,1.79a3.16,3.16,0,0,1-.53,1.64.65.65,0,0,1-1-.13c-.57-1.09.25-2.76.85-3.7A.55.55,0,0,1,78,129.21Z" transform="translate(-0.25)"/><path d="M80,132.87c-.23,1-.1,2-.24,3a.57.57,0,0,1-1.08.17,4.61,4.61,0,0,1,.25-3.42A.55.55,0,0,1,80,132.87Z" transform="translate(-0.25)"/><path d="M98.07,41.08c.06-1-.28-1.95.07-2.89a.62.62,0,0,1,1-.17c.89.85.75,2.37.61,3.51A5.9,5.9,0,0,1,98.21,45c-.39.42-.93-.12-.83-.56A21.05,21.05,0,0,0,98.07,41.08Z" transform="translate(-0.25)"/><path d="M93.44,35.45c2.4,1.85,3.26,5.94,2.48,8.74-.15.55-.89.31-.91-.18a14.72,14.72,0,0,0-.65-4.48,29.52,29.52,0,0,0-1.8-3.32C92.3,35.7,93,35.08,93.44,35.45Z" transform="translate(-0.25)"/><path d="M89.45,38.6A6.3,6.3,0,0,1,93.54,44a.53.53,0,0,1-.92.31c-.6-.83-1-1.79-1.62-2.59s-1.51-1.38-2.22-2.13C88.33,39.11,88.9,38.45,89.45,38.6Z" transform="translate(-0.25)"/><path d="M58.71,86.6a18.18,18.18,0,0,1,.86,3.51v0a17,17,0,0,0,4.34,5.76c2.19,1.88,4.53,2.66,7.15,3.71.63.25.26,1.12-.34,1.06-5.4-.58-10.09-5.49-12.09-10.24a.55.55,0,0,1,0-.25,16.62,16.62,0,0,1-1-3.31A.58.58,0,0,1,58.71,86.6Z" transform="translate(-0.25)"/><path d="M55.17,6.91a39.31,39.31,0,0,1,16.42,6.83c.48.34.06,1.12-.45.81A60.36,60.36,0,0,0,54.9,8,.55.55,0,0,1,55.17,6.91Z" transform="translate(-0.25)"/></g></g></svg>