<svg xmlns="http://www.w3.org/2000/svg" viewBox="0 0 132 212.16"><defs><style>.cls-1{fill:#ff1a6d;}.cls-2{fill:#9cb2a9;}.cls-3{fill:#27ffab;}.cls-4{fill:#fff;}</style></defs><title>svg-robot</title><g id="Layer_2" data-name="Layer 2"><g id="Layer_4" data-name="Layer 4"><path class="cls-1" d="M113,105.7c36.45,45.37-9.24,110-60.73,99C27.77,199.42,8.76,176,6.42,151,4,125.21,17.73,100.73,39.55,89.5c23.71-12.2,54.07-6.89,72.73,14.71A3.28,3.28,0,0,0,113,105.7Z"/><g id="_Group_" data-name="&lt;Group&gt;"><path class="cls-2" d="M113.81,182.38a.3.3,0,0,0-.19-.16A223.57,223.57,0,0,0,69.23,178c-15.16.09-32.75,1.15-48.35,8.3a.23.23,0,0,0-.14.18.23.23,0,0,0,.06.22c13.12,13.93,29.64,21.68,45.87,21.68,1.33,0,2.66-.05,4-.16,15.87-1.26,31.58-10.57,43.11-25.55A.26.26,0,0,0,113.81,182.38Z"/><path d="M17.45,184.84c15-7.57,31.65-9.17,48.26-9.57a223.15,223.15,0,0,1,53.05,5.21,1.42,1.42,0,0,1,.31.11,5.1,5.1,0,0,0-1.12,2.78c-.39-.07-.77-.16-1.16-.24a1.74,1.74,0,0,1-.15.26c-11.87,15.89-30,27.86-50.35,27.68-18.61-.17-35.87-9.83-48.23-23.33A1.54,1.54,0,0,1,17.45,184.84Zm49.22,23.49c1.33,0,2.66-.05,4-.16,15.87-1.26,31.58-10.57,43.11-25.55a.26.26,0,0,0,0-.24.3.3,0,0,0-.19-.16A223.57,223.57,0,0,0,69.23,178c-15.16.09-32.75,1.15-48.35,8.3a.23.23,0,0,0-.14.18.23.23,0,0,0,.06.22C33.92,200.58,50.44,208.33,66.67,208.33Z"/></g><path d="M113.79,189.75C97.19,208,69.94,217.42,45.07,209.14,16.72,199.7-1.7,169.44.12,140.23c1.72-27.5,19.63-51,44.55-59.93,25.87-9.23,56.46-.55,74.51,22.78a3.22,3.22,0,0,1,.71,1.75C139.17,131.69,134.18,167.37,113.79,189.75Zm-61.55,14.9c51.49,11,97.18-53.58,60.73-98.95a3.28,3.28,0,0,1-.69-1.49c-18.66-21.6-49-26.91-72.73-14.71C17.73,100.73,4,125.21,6.42,151,8.76,176,27.77,199.42,52.24,204.65Z"/><path class="cls-2" d="M94.39,93.19l0-2.94c-.08-10-.16-20.33-2.31-30.2-1.68-7.68-7.35-25.6-23.64-26.62a4.85,4.85,0,0,0-1.77-.25,16.62,16.62,0,0,0-3.29.37C44.78,35.7,36.63,56.29,31.61,74c-1.76,4-7.07,25.64-7,29.43-.87,4.84-1.51,9.31-2,13.68a141.91,141.91,0,0,0-.83,15.06.92.92,0,0,0,0,.33l0,.3c0,.18,0,.36.05.54a1.1,1.1,0,0,0-.08.4c-.05,3.12.08,7.12,1.47,10.42a19.79,19.79,0,0,0,1.26,4.17,23.94,23.94,0,0,0,1.4,2.44,1.18,1.18,0,0,0,.17.24,12.7,12.7,0,0,0,2,2.15c4.51,3.84,11.07,5.66,16.29,6.81a97,97,0,0,0,10.39,1.69,106.15,106.15,0,0,0,11.58.63,95.58,95.58,0,0,0,15.25-1.17c4.37-.72,8.79-1.85,10.62-7a23.14,23.14,0,0,0,1-6.72c0-.44,0-.89.07-1.33.31-5.69.57-11.63.76-17.64C94.39,116.56,94.52,104.71,94.39,93.19ZM67.19,33.7l-.58,0h0Zm1.1.22a2.85,2.85,0,0,0-.41-.13A2.85,2.85,0,0,1,68.29,33.92Zm-.56-.16-.39,0ZM63.87,34l-.43.09Zm2.66-.27-.57,0Zm-.69,0-.61,0Zm-.73.06-.53.07Zm-.61.08-.52.08ZM58,161.47c-1.05-.09-2.09-.18-3.13-.3C55.87,161.29,56.91,161.38,58,161.47Zm6.37.3-2-.05Zm-3.2-.1L59,161.54Zm4.43.12c.55,0,1.1,0,1.64,0H65.56Zm3.87,0,1.46-.06Zm3.7-.18,1.38-.1Zm3.78-.33,1.16-.12Z"/><path class="cls-1" d="M93.58,4.3c1.31,2.18-.12,4.82-2.32,5.68s-4-.24-4-2.7c0-1.9,1-3.85,3-4.24A1.4,1.4,0,0,0,90.6,3,2.7,2.7,0,0,1,93.58,4.3Z"/><path class="cls-1" d="M75.12,77.32c6.78,1,10.51,7.9,9.82,14.62C84.16,99.53,78.44,103.53,71,102,57.54,99.23,62.85,77.72,75.12,77.32Z"/><path class="cls-2" d="M80.27,128.22c-.06.34-.12.68-.17,1,0-.09,0-.17,0-.26q-.12-.57-.27-1.14Z"/><path class="cls-3" d="M77.06,129.27c-.31,2-.62,4.06-1,6.07a17.25,17.25,0,0,1-.79,3.64l-1.77-.2-1.77-.19c-1.49-.16-3-.29-4.48-.43q.76-5.55,1.54-11.1A72,72,0,0,1,77.06,129.27Z"/><path class="cls-3" d="M65.86,126.51l-1.59,11.36c-2.44-.21-4.87-.39-7.31-.55q.67-5.85,1.34-11.7Q62.1,125.89,65.86,126.51Z"/><path class="cls-3" d="M55.3,125.45q-.67,5.85-1.34,11.69c-3.08-.17-6.16-.32-9.24-.41.12-3.72.26-7.44.39-11.15C48.51,125.38,51.91,125.32,55.3,125.45Z"/><path class="cls-4" d="M49.61,41c1.26-1.45,3.68.33,2.41,1.79a68.34,68.34,0,0,0-13.8,24.27c-.58,1.84-3.49,1.08-2.9-.76A71.13,71.13,0,0,1,49.61,41Z"/><path class="cls-3" d="M42.1,125.79c-.12,3.62-.23,7.24-.36,10.87-2.6-.06-5.19-.11-7.78-.11,0-3.28,0-6.56,0-9.84Q38,126.14,42.1,125.79Z"/><path class="cls-1" d="M37.62,89.34a13.76,13.76,0,0,1-1.46,7.85c-1.41,2.54-9,7.78-10.34,2.58C27.08,93.45,28.6,87.19,30.24,81c.33-1.24.67-2.53,1-3.86C34.79,77,37.43,87.14,37.62,89.34Z"/><path class="cls-4" d="M31.34,150.06c.74,1.78-1.93,3.14-2.68,1.36a24,24,0,0,1-1.88-9.08c0-1.93,3-1.77,3,.15A20.1,20.1,0,0,0,31.34,150.06Z"/><path class="cls-3" d="M31,127.16q0,4.69,0,9.41c-1.32,0-2.65,0-4,0,0-.62-.07-1.63-.06-1.56-.07-.88-.12-1.76-.14-2.65-.05-1.52,0-3,.11-4.54C28.26,127.6,29.62,127.37,31,127.16Z"/><path class="cls-4" d="M26.55,107.76c.17-1.91,3.17-1.93,3,0q-.6,6.69-.8,13.4c-.05,1.93-3.05,1.78-3-.15Q26,114.37,26.55,107.76Z"/><path class="cls-2" d="M80.63,183.5c-.76.41-1.53.76-2.12,1l-.5.22-1.2.44a31.32,31.32,0,0,1-11.45,2,16.38,16.38,0,0,0-3-1c-.46-.12-.91-.25-1.31-.38a1.35,1.35,0,0,0-1.64.64A1.3,1.3,0,0,0,59.8,188a7.37,7.37,0,0,0,2.32,1.09l.53.18.84.28.58.22.1.05a19.11,19.11,0,0,0,6.94,1.39,12.48,12.48,0,0,0,4.88-.91l.6-.26-.41-.51a.63.63,0,0,1-.13-.21,1.05,1.05,0,0,1,.24-1.09l.23-.23-.11-.31a.78.78,0,0,1,.16-.87l.78-.86.62-.69.61.16a1,1,0,0,1,.38.18,1.1,1.1,0,0,1,.35.79l0,1.74.89-1.49a11,11,0,0,0,1.11-2.61l.33-1.14Z"/><path class="cls-2" d="M80.42,169.93l.33-.15,0-.35c-.06-.7-.12-1.35-.19-1.94-.32-2.79-.63-3.32-1.15-3.41a.77.77,0,0,1-.51-.27l-.17-.21-.26,0c-2,.15-4,.2-6,.25h-.23c-6,.17-10.54.14-14.76-.11l-.53,0V164l-1.37-.15-.41-.12-.2,0v-.07l-.46,0q-.84-.06-1.68-.15l-.63-.06.08.63c.16,1.13.3,2.28.44,3.43.1.78.19,1.57.29,2.36l0,.28.26.11a33.45,33.45,0,0,0,13.27,2.79A34.07,34.07,0,0,0,80.42,169.93Zm-2.64-2.09-.07.2.05.18s0,.08,0,.14a1.07,1.07,0,0,1-.78,1.1l-1.4.57a1,1,0,0,1-1.06-.5,1,1,0,0,1-.11-.6v-.08l0-.08a.67.67,0,0,1,0-.16v-.36l-.34-.11a.91.91,0,0,1-.64-.74,1,1,0,0,1,.71-1.14l1.89-.79a.86.86,0,0,1,.65,0,1,1,0,0,1,.62.83l0,.21.17.13A1,1,0,0,1,77.78,167.84Z"/><path class="cls-2" d="M65.76,185.21a29.66,29.66,0,0,0,10.5-2L77,183l-.6-.55a1.82,1.82,0,0,1-.61-1.18,1.33,1.33,0,0,1,.13-.82l.13-.23-.13-.24a1.07,1.07,0,0,1-.1-.75l0-.25-.17-.19a1.18,1.18,0,0,1-.24-1.1l.11-.31-.24-.22a1.21,1.21,0,0,1-.37-.93.78.78,0,0,1,.32-.59,6.18,6.18,0,0,0,1.33-1.2l.69-.85.74.34a1.06,1.06,0,0,1,.58.64.77.77,0,0,1-.1.65l-.19.32.24.27a1.08,1.08,0,0,1,.2,1.09l-.07.2.09.2a1,1,0,0,1,.13.35,2.46,2.46,0,0,1,0,1l-.08.28.21.21a1,1,0,0,1,0,1.28l-.15.2.07.23a2.09,2.09,0,0,1,0,.28l.41,0v0l-.42.14v.83l.73-.38c.47-.25.92-.5,1.38-.77l.27-.15-.11-2.09c-.09-1.84-.2-4-.34-6.1l0-.7-.64.27c-.66.27-1.36.54-2.15.81l-1.13.39-.88.24a34.77,34.77,0,0,1-16.67.5,14.47,14.47,0,0,0-3.23-1.21,1.76,1.76,0,0,0-1.09,0c-.32-.1-.63-.2-.94-.32l-.8-.29.13.84c.36,2.45.73,4.43,1.15,6.24a16.54,16.54,0,0,0,1.53,4.06l.1.18.18.06a29.89,29.89,0,0,0,8.11,1.47C65,185.2,65.36,185.21,65.76,185.21Z"/><path d="M81.66,105.23a5.1,5.1,0,0,0-2.87,1.13,1.5,1.5,0,0,0,.26,2.36c.58-.14.57-.07,0,.2a1.92,1.92,0,0,0-.51.39,2.51,2.51,0,0,0-.73,1.22,1.52,1.52,0,0,0,1.68,2l-.49.3c-1.72.15-1.68,2.7,0,3l.39-.1a.38.38,0,0,0,0,.1c.19,0,.35-.06.51-.09a2.65,2.65,0,0,1-.74.46l-1.53,1a1.46,1.46,0,0,0,.1,2.49l0,0a1.51,1.51,0,0,0,.73,2.8,4.4,4.4,0,0,0,2-.45,1.19,1.19,0,0,0,.78-1.26,8.83,8.83,0,0,0,1.19-1.58,1.4,1.4,0,0,0-.14-1.59,2.52,2.52,0,0,0,.73-1.93,2.43,2.43,0,0,0-.73-1.62,3.22,3.22,0,0,0-.2-3.48l.05,0a2.46,2.46,0,0,0,.71-1.65,2.19,2.19,0,0,0-.2-1C83.47,107,83.19,105.09,81.66,105.23Z"/><path d="M76.6,47.09l-.34.29a1.45,1.45,0,0,0,.31,2.25l-.13.1a1.5,1.5,0,0,0,1,2.8c2.28-.42.23.14-.91.89a1.52,1.52,0,0,0,.68,2.68c.37,0,.63,0,.79.08l-.23.07a1.5,1.5,0,0,0,.9,2.86l.06.2a1.5,1.5,0,0,0-.12,3c-.06.14-.11.28-.17.41a1.51,1.51,0,0,0-.73,2.89c1.52.68,1.11.12-.41.85-1.12.55-1.2,2.39-.2,2.84a1.55,1.55,0,0,0,1,2.17,1.65,1.65,0,0,0,2.21,1.45c1.45-.56,1.5-.63,2.25-2a1.55,1.55,0,0,0-.43-2,3.42,3.42,0,0,0-.08-.6,2.55,2.55,0,0,0-.41-.93,3.25,3.25,0,0,0,.81-1.54,1.5,1.5,0,0,0-.55-1.41l-.18-.11a3.07,3.07,0,0,0,0-3.38,3.21,3.21,0,0,0,.12-3.63A2.5,2.5,0,0,0,81,54a3.76,3.76,0,0,0,1.44-2.51,1.52,1.52,0,0,0-.64-1.37,4.1,4.1,0,0,0-.4-.23c.25-.23.5-.47.76-.73a1.52,1.52,0,0,0-.9-2.53.83.83,0,0,0,.11-.15,1.53,1.53,0,0,0-.4-1.78A2.39,2.39,0,0,0,79.68,44a1.37,1.37,0,0,0-1.93-.91,4.36,4.36,0,0,0-2.08,1.63A1.52,1.52,0,0,0,76.6,47.09Z"/><path d="M80.5,146.91a2.64,2.64,0,0,0-1.31-1.57,1.4,1.4,0,0,0-1.18-.72,2,2,0,0,0-2.27,2,1.45,1.45,0,0,0,.79,1.4l-.25.14a3.84,3.84,0,0,0-1,1.28,1.51,1.51,0,0,0,.78,2l.51.18a10.42,10.42,0,0,1-1.67,1.87,1.51,1.51,0,0,0,.25,2.26l-.53.5c-1.21,1.11.24,3.43,1.69,2.44l1-.7a1.21,1.21,0,0,0,.53-.66l1.94-1.79a1.44,1.44,0,0,0-.61-2.44,14.24,14.24,0,0,0,1.08-2,1.41,1.41,0,0,0-.41-1.74.53.53,0,0,0,.13-.13A2.48,2.48,0,0,0,80.5,146.91Z"/><path d="M73.77,74.21a1.51,1.51,0,0,0-.94.31C57.46,77,55,103.83,72.78,105.25,92.77,106.84,92.76,74.27,73.77,74.21ZM84.94,91.94C84.16,99.53,78.44,103.53,71,102c-13.48-2.77-8.17-24.28,4.1-24.68C81.9,78.28,85.63,85.22,84.94,91.94Z"/><path d="M79.14,34.13A22.91,22.91,0,0,0,67.75,30.9c0-.13,0-.25,0-.38.11-1.27.37-2.55.49-3.83v0c2.1-8.22,7.56-15.22,16.38-17,1.12,3.1,4.56,4.44,7.87,3.06,3.52-1.48,5.65-5.65,4-9.25A5.57,5.57,0,0,0,90.11.1a1.49,1.49,0,0,0-.47,0A6.3,6.3,0,0,0,88,.72c-.36.16-.73.33-1.08.52,0,.06-.05.12-.08.17a3.89,3.89,0,0,0-1,1.05,6.1,6.1,0,0,0-.57,1l-.11,0a8.25,8.25,0,0,0-1,3.27c-8,1.43-13.76,6.82-17,13.68l0,0c-.27.45-.53.92-.77,1.39a.83.83,0,0,1-.07.13q-.22.4-.42.81a2.41,2.41,0,0,1-.08.25s0,0,0,0a13,13,0,0,0-1,2.15,15,15,0,0,0-1.26,5.95,29.72,29.72,0,0,0-12.06,4.3c-9.39,5.91-15.05,15.84-18.78,26A245.19,245.19,0,0,0,21.1,108.29c-1.76,11.52-3.21,24.43-.9,36.22.29.64.58,1.29.84,2,0,0,0,0,0,0,.2.48.4,1,.58,1.46a.18.18,0,0,0,0,.1,27.07,27.07,0,0,0,2.89,5.16l.07.1a1.36,1.36,0,0,0,.61.5,25.77,25.77,0,0,0,8.43,5.43,62.72,62.72,0,0,0,16.06,4.29c.81,6.09.82,14.61,3.81,20.67a1.2,1.2,0,0,0,.78,1.4,13.2,13.2,0,0,0,2.16,2.71c4.9,4.61,13.82,7.14,20.15,4.58a11.2,11.2,0,0,0,7.1-8.45A20.68,20.68,0,0,0,84,178.2c-.19-2-.43-4-.7-5.94l-.27-2,0-.19c-.12-.89-.24-1.78-.35-2.68a23.68,23.68,0,0,0-.48-3.67,22.06,22.06,0,0,0,7-2.14c4.6-2.43,5.91-6.74,6.38-11.64C97,135,96.89,119.76,96.93,104.79c0-13.8.55-28.1-1.77-41.75C93.33,52.3,89,40.07,79.14,34.13ZM90.29,3A1.4,1.4,0,0,0,90.6,3a2.7,2.7,0,0,1,3,1.35c1.31,2.18-.12,4.82-2.32,5.68s-4-.24-4-2.7C87.31,5.38,88.32,3.43,90.29,3ZM30.24,81c.33-1.24.67-2.53,1-3.86,3.52-.11,6.16,10,6.35,12.24a13.76,13.76,0,0,1-1.46,7.85c-1.41,2.54-9,7.78-10.34,2.58C27.08,93.45,28.6,87.19,30.24,81Zm23.29,88.72c-.25-1.94-.47-3.88-.73-5.79.56.06,1.13.11,1.69.15v.08l.1,0a1,1,0,0,1,.17,0h.05a1,1,0,0,1,.25,0,12.35,12.35,0,0,1,2.85.18c4.81.26,9.63.23,14.36.09,2-.05,4.08-.1,6.21-.25a1.27,1.27,0,0,0,.82.45c.29.05.53,1.24.73,3,.07.58.13,1.23.19,1.92A32.79,32.79,0,0,1,53.53,169.68Zm1.61,9.61c-.48-2-.84-4.11-1.15-6.2.48.18,1,.32,1.46.48a.75.75,0,0,0,0,.15h.12l.09,0a.89.89,0,0,1,.58.25l.15.05a6,6,0,0,1,.75.16h.1a4.64,4.64,0,0,1,1.39.22,35.37,35.37,0,0,0,17.61-.36A5.65,5.65,0,0,1,75,175.2a1.5,1.5,0,0,0,0,2.29,1.64,1.64,0,0,0,.34,1.6,1.61,1.61,0,0,0,.15,1.1,1.85,1.85,0,0,0-.19,1.1,2.38,2.38,0,0,0,.77,1.5,29,29,0,0,1-11.49,1.89,29.32,29.32,0,0,1-8-1.45A15.7,15.7,0,0,1,55.14,179.29Zm21.06,7.23a1.29,1.29,0,0,0-.26,1.39,1.56,1.56,0,0,0-.36,1.63,1.15,1.15,0,0,0,.21.34c-3.11,1.33-7,1.05-10.55-.17a6,6,0,0,1-1.15-.38,3.73,3.73,0,0,1-.62-.36,2.54,2.54,0,0,1-1.08-.89l-.17-.15a.07.07,0,0,1,0-.08l0,0a.13.13,0,0,1,0-.23,4.23,4.23,0,0,1,2,0h.31a32,32,0,0,0,12.52-2Zm3.61-.09a1.58,1.58,0,0,0-.54-1.17,1.55,1.55,0,0,0-.56-.28c.72-.32,1.45-.66,2.16-1A10.49,10.49,0,0,1,79.81,186.43Zm-.29-5.17a1.47,1.47,0,0,0,0-.21,1.86,1.86,0,0,0-.06-.34,1.55,1.55,0,0,0-.08-1.94,3.08,3.08,0,0,0,.06-1.22,1.82,1.82,0,0,0-.18-.51,1.6,1.6,0,0,0-.29-1.59,1.39,1.39,0,0,0-.7-2c.73-.25,1.46-.52,2.18-.82.19,2.82.32,5.79.43,7.88C80.43,180.77,80,181,79.52,181.26Zm14-52.89q-.28,8.82-.76,17.63c-.15,2.63-.12,5.41-1,7.91-1.7,4.83-5.63,6-10.23,6.72a101.2,101.2,0,0,1-26.7.54,95.54,95.54,0,0,1-10.33-1.68c-5.47-1.21-11.73-3-16.07-6.7a12.71,12.71,0,0,1-1.95-2.09,1.27,1.27,0,0,1-.13-.19A22.46,22.46,0,0,1,25,148.13,19,19,0,0,1,23.75,144c-1.34-3.14-1.5-7-1.45-10.27a.57.57,0,0,1,.09-.31v0c0-.32-.06-.64-.09-1a.47.47,0,0,1,0-.21,138.38,138.38,0,0,1,.83-15.07c.46-4.59,1.13-9.15,2-13.69a8.76,8.76,0,0,0,6.25,1c4.48-.9,7.55-4.84,8.73-9.07a20.21,20.21,0,0,0-1.67-14c-1.29-2.66-3.26-6.62-6.33-7.22,4.79-16.9,12.82-38,31.36-40.14a6.73,6.73,0,0,0,.05,1.19v0A2.42,2.42,0,0,0,64.08,37l0,0a2.74,2.74,0,0,0,.31.29l0,0a.77.77,0,0,0,.23.21l.11.08.24.11.19,0a1.53,1.53,0,0,0,1.91-1.5h0a3.83,3.83,0,0,0,.27-.71,8.84,8.84,0,0,0,.27-1.71c.21,0,.42,0,.63,0C82,34.73,88.94,48.2,91.56,60.15c2.35,10.78,2.22,22.07,2.33,33Q94.09,110.79,93.52,128.37Z"/><path d="M77.56,141.37c.92-.82,1-2.87,1.2-3.9.45-2.74.89-5.48,1.34-8.23,0-.09,0-.17,0-.26q-.12-.57-.27-1.14a24.52,24.52,0,0,0-2.17-1.49l-.06,0c-16.67-5.55-34.19-4.44-51.27-1.38a.18.18,0,0,1-.08,0c-3.89,1.52-1.71,10-1.05,14a1.61,1.61,0,0,0,.58.35,3.44,3.44,0,0,1,.73.25c12.39-.18,24.78.19,37.13,1.24l3.39.3q3.11.28,6.19.63C74.49,141.9,76.4,142.41,77.56,141.37ZM31,136.57c-1.32,0-2.65,0-4,0,0-.62-.07-1.63-.06-1.56-.07-.88-.12-1.76-.14-2.65-.05-1.52,0-3,.11-4.54,1.36-.24,2.72-.47,4.08-.68Q31,131.85,31,136.57Zm10.78.09c-2.6-.06-5.19-.11-7.78-.11,0-3.28,0-6.56,0-9.84q4.06-.57,8.13-.92C42,129.41,41.87,133,41.74,136.66Zm12.22.48c-3.08-.17-6.16-.32-9.24-.41.12-3.72.26-7.44.39-11.15,3.4-.2,6.8-.26,10.19-.13Q54.63,131.3,54,137.14Zm10.31.73c-2.44-.21-4.87-.39-7.31-.55q.67-5.85,1.34-11.7,3.8.27,7.56.89Zm9.24.91-1.77-.19c-1.49-.16-3-.29-4.48-.43q.76-5.55,1.54-11.1a72,72,0,0,1,8.26,2.21c-.31,2-.62,4.06-1,6.07a17.25,17.25,0,0,1-.79,3.64Z"/><path d="M73.92,168.61a1.23,1.23,0,0,0,0,.27,1.49,1.49,0,0,0,1.86,1.61l1.4-.57a1.52,1.52,0,0,0,1.08-1.64,1.89,1.89,0,0,0,0-.23,1.45,1.45,0,0,0-.42-1.76,1.3,1.3,0,0,0-.07-.33,1.51,1.51,0,0,0-1.89-1L74,165.8a1.52,1.52,0,0,0-1,1.69A1.39,1.39,0,0,0,73.92,168.61Z"/><path class="cls-4" d="M57.67,167.31a3.84,3.84,0,0,1-.18-2,1.5,1.5,0,0,0-3-.36,6.56,6.56,0,0,0,.31,3.34,1.5,1.5,0,0,0,2.85-.94Z"/><path class="cls-4" d="M59.9,180a15.12,15.12,0,0,1-1.46-4.82,1.5,1.5,0,0,0-3,.4,18.56,18.56,0,0,0,1.82,5.9C58.15,183.24,60.77,181.76,59.9,180Z"/><path class="cls-4" d="M62.84,187.55a1.58,1.58,0,0,0-1.18-1.25,1.54,1.54,0,0,0-1.78,1.16,2.28,2.28,0,0,0,1.78,2.78,1.52,1.52,0,0,0,1.78-1.15A1.55,1.55,0,0,0,62.84,187.55Z"/><path d="M64.62,189.55A15.76,15.76,0,0,1,61.34,188a22.54,22.54,0,0,1-2.4-1.85,1.5,1.5,0,1,0-1.78,2.42,20,20,0,0,0,2.48,1.89l.09.07a18.93,18.93,0,0,0,3.81,1.79C65.36,193,66.46,190.17,64.62,189.55Z"/><path d="M69.4,185.78c-1.68-.32-3.37-.18-5.07-.41-1.54-.2-3.07-.52-4.61-.76-1.29-.25-1.83,1.71-.52,2,3.37.72,7,1.78,10.39.61C70.34,186.94,70.07,185.92,69.4,185.78Z"/><path d="M63.43,173.36a9,9,0,0,0-3.58-.85l-.27-.06a17,17,0,0,0-2.87-.8l-.88-.33c-1.22-.47-1.85,1.36-.68,1.88a20.16,20.16,0,0,0,4.14,1.32,7.33,7.33,0,0,0,4,.19A.75.75,0,0,0,63.43,173.36Z"/><path d="M59.67,162.27a26.72,26.72,0,0,0-4.1-.25c-.92-.14-1.85-.26-2.78-.39a.51.51,0,0,0-.48.17l-.15,0a.93.93,0,0,0-.39,1.81c2.55.54,5.57,1.15,8.13.38C60.81,163.7,60.47,162.4,59.67,162.27Z"/><path d="M61.88,173.51a.35.35,0,0,0-.06-.14.31.31,0,0,0,0-.12c-.74-.95-1.93-.88-3.05-1.09-.53-.1-1.07-.21-1.61-.3a25.8,25.8,0,0,0-3-1.21,1,1,0,0,0-.93,1.74c1.6,1.49,4.16,1.91,6.24,2.2h0a4.77,4.77,0,0,0,1.13,0,1.91,1.91,0,0,0,1-.33.61.61,0,0,0,.23-.27.53.53,0,0,0,.08-.17s0,0,0-.06a.65.65,0,0,0,0-.24A.07.07,0,0,0,61.88,173.51Z"/><path d="M66.05,185.19a14.52,14.52,0,0,0-2.28-.12c-.82-.16-1.65-.31-2.49-.43-.59-.16-1.18-.33-1.76-.51-1.41-.42-1.93,1.75-.55,2.2,2.22.74,5.38,1.88,7.56.57C67.32,186.43,66.77,185.33,66.05,185.19Z"/><path d="M66.94,191.65c-1.6-2.14-4.41-3-6.81-4-1.41-.58-2.3,1.51-1.14,2.35a18.46,18.46,0,0,0,5.12,2.65,1.32,1.32,0,0,0,.58.05,12.27,12.27,0,0,0,1.17.38A1,1,0,0,0,66.94,191.65Z"/></g></g></svg>